<svg xmlns="http://www.w3.org/2000/svg" viewBox="0 0 219.76 160.84"><defs><style>.cls-1{fill:#ef3b4e;}.cls-2{fill:#323333;}</style></defs><title>Asset 1</title><g id="Layer_2" data-name="Layer 2"><g id="Layer_1-2" data-name="Layer 1"><path class="cls-1" d="M51.6,158.59c-.41,2.48-3.29,2.2-12.24,2.2s-9.26-.56-10.45-2.34c0,0-12.67-40.91-16.92-58.5-.41-2.48.83-2.23,10.59-2.48,7.92-.2,7.47.46,8.64,2.61l9.62,25.67S69,6.92,70.6,3.18C71.63.72,68,.12,78.76.08c5.36,0,6.13,2,5.72,4.52-.8,4.92,2.39,9.73.92,17.58C77.13,66.14,54.55,145.22,51.6,158.59Z"/><path class="cls-1" d="M99.05,160.79c-13.9,0-24.08-8.94-24.08-22.56V87c0-13.62,10.18-22.56,24.08-22.56,14.45,0,24.07,8.39,24.07,22.56v51.18C123.13,152.4,113.5,160.79,99.05,160.79Zm3.44-68.1c0-3.85.55-8.25-3.44-8.25s-3.44,4.4-3.44,8.25v39.9c0,3.85-.69,8.26,3.44,8.26s3.44-4.4,3.44-8.26C102.35,117,102.49,108.24,102.49,92.69Z"/><path class="cls-1" d="M172.81,83.75H166.9a25.52,25.52,0,0,0-5.23.27c-1.24,1-1,3.3-1,5.09v70.31c0,1.24-.82,1.38-11,1.38-8.94,0-9.77,0-9.77-1.38V89.11c0-1.79.28-4.13-1-5.09a24.75,24.75,0,0,0-5.09-.27h-5.09c-2.06,0-2.48-1.24-2.48-9.77s.28-9.49,1.93-9.49h44.44c1.65,0,1.79,1,1.79,8.81C174.47,82.92,174.33,83.75,172.81,83.75Z"/><path class="cls-1" d="M218.11,160.79H185.78c-2.2,0-4.54.28-5.5-.55s-.83-3-.83-4.68v-87a3.54,3.54,0,0,1,1-3c.83-1.1,1.79-1.1,3.16-1.1h34.26c1.65,0,1.65.41,1.65,8.81,0,9.91,0,10.46-1.79,10.46H203.94c-1.1,0-2.75.14-3.16.69-.69,1-.69.82-.69,2.61v10c0,1.24-.28,2.75.83,3.58a4.62,4.62,0,0,0,3,.55h6.74c1.65,0,1.52.55,1.52,9.77,0,8.81.28,9.36-1.52,9.36h-6.19a10.53,10.53,0,0,0-3.44.41c-1.24.83-1,2.2-1,4v11.42c0,1.79,0,4.4.69,4.81a11,11,0,0,0,4.13.55H218c1.65,0,1.79.28,1.79,9.22C219.76,160.66,219.62,160.79,218.11,160.79Z"/><path class="cls-2" d="M28.78,59.25H27.09c-1.1,0-2.79-4.4-3.3-4.4-.85,0-1.52,4.4-9,4.4C6.26,59.25,0,53.75,0,45.37V13.88C0,5.5,6.26,0,14.81,0,23.7,0,29.63,5.16,29.63,13.88V19.3c0,.76-.85,1.19-7.11,1.19-3.89,0-5.59.25-5.59-.85V14.73c0-.51-.17-2.45-2.12-2.45-2.54,0-2.12,2.71-2.12,5.08V41.9c0,2.37-.42,5.08,2.12,5.08,2,0,2.12-2,2.12-2.46V36.9c0-1.19-.59-1.19-1.19-1.19-1.1,0-1.35-.25-1.35-.85v-5c0-1.61,1.35-1.44,7.28-1.44,6.35,0,8,.51,8,2.45V57.73C29.63,58.06,29.54,59.25,28.78,59.25Z"/><path class="cls-2" d="M58.16,59.25c-6.1,0-6.26.08-6.26-1.69V40.12c0-2.37.34-5.08-2.12-5.08-1.95,0-2.12-.08-2.12,1V57.39c0,1.86-1,1.86-6.86,1.86-5,0-5.84.08-5.84-2.54V2.54C35,0,35,0,37.5,0H49.44c8.89,0,14.81,5.16,14.81,13.88v6.77c0,7.62-6.26,8.13-6.26,8.55s6.6-.17,6.6,7.11V58C64.59,59.34,64.08,59.25,58.16,59.25Zm-6.6-41.9c0-2.37.34-5.08-2.12-5.08-1.52,0-1.78-.08-1.78,1V22.6c0,1.1.34,1,1.78,1,1.86,0,2.12-1.86,2.12-2.79Z"/><path class="cls-2" d="M80.4,59.25c-6.09,0-6.09-.08-6.09-1.27V1.61c0-1.52.08-1.52,6.09-1.52C87,.08,87,.17,87,1.69V57.81C87,59.17,86.92,59.25,80.4,59.25Z"/><path class="cls-2" d="M117.94,59.25c-3.13,0-3.89.17-4.4-1.27-3.13-8.89-3.72-11.77-6.94-22.6-.42-1.44-1.1-3.72-1.78-3.72s-.59,2.54-.59,4.23V57.81c0,1.35-.08,1.44-6.6,1.44-6.09,0-5.76-.08-5.76-1.27V1.61c0-1.52-.25-1.52,5.76-1.52,4.83,0,5.16.08,5.59,1.61.93,3.3,4.23,14.47,6.77,22,.25.85.59,2.29,1.19,2.29.76,0,.68-2.2.68-3.47V1.61c0-1.52.08-1.52,6.09-1.52,6.6,0,6.26.08,6.26,1.61V57.81C124.21,59.17,124.46,59.25,117.94,59.25Z"/><path class="cls-2" d="M145,59.25H132.75c-2.54,0-2.54.08-2.54-2.54V2.54c0-2.54.08-2.54,2.54-2.54H145c8.89,0,14.81,5.16,14.81,13.88V45.37C159.83,54.09,153.91,59.25,145,59.25Zm2.12-41.9c0-2.37.34-5.08-2.12-5.08-2.2,0-2.12-.08-2.12,1V46c0,1.1-.08,1,2.12,1,2.45,0,2.12-2.71,2.12-5.08Z"/><path class="cls-2" d="M11.47,69H9.8A4.46,4.46,0,0,0,8.67,69c-.35.27-.27.93-.27,1.44V91c0,.35-.43.39-2.25.39-1.63,0-2,0-2-.39V70.47c0-.5.08-1.17-.27-1.44A4.46,4.46,0,0,0,2.76,69H1.32c-.58,0-.7-.27-.7-1.9s.08-1.9.54-1.9H11.43c.47,0,.5.35.5,1.83C11.93,68.76,11.9,69,11.47,69Z"/><path class="cls-2" d="M23.33,91.36c-2.06,0-2.14,0-2.14-.78V81.24c0-.47,0-.86-.35-.89a11.56,11.56,0,0,0-2.33,0c-.31.12-.31.47-.31,1v9.42c0,.62-.12.62-2.14.62s-2,0-2-.54V65.89c0-.58.12-.7,2-.7,2.06,0,2.18.12,2.18.74V75c0,.66,0,1.09.51,1.24a9.81,9.81,0,0,0,2.14,0c.31-.12.31-.54.31-1.13V65.77c0-.66.23-.58,2.1-.58s2.1,0,2.1.62V90.59C25.39,91.32,25.39,91.36,23.33,91.36Z"/><path class="cls-2" d="M37.75,91.4H30.28c-.62,0-1.28.08-1.55-.16s-.23-.86-.23-1.32V66.31a1,1,0,0,1,.27-.86c.23-.31.5-.31.89-.31h8c.47,0,.47.31.47,1.83,0,1.75,0,2-.51,2H33.78c-.31,0-.78,0-.89.19s-.19.23-.19.74V75c0,.35-.08.78.23,1a1.31,1.31,0,0,0,.86.16h1.87c.47,0,.51.23.51,1.94s0,1.87-.51,1.87H33.9a3,3,0,0,0-1,.12c-.35.23-.27.62-.27,1.13v4.84c0,.51,0,1.24.19,1.36a3.14,3.14,0,0,0,1.17.15h3.69c.47,0,.51.16.51,1.87S38.18,91.4,37.75,91.4Z"/></g></g></svg>