<svg xmlns="http://www.w3.org/2000/svg" viewBox="0 0 51.92021 51.92013"><defs><style>.cls-1{fill:#272729;}</style></defs><title>CHAT</title><g id="Layer_2" data-name="Layer 2"><g id="Layer_1-2" data-name="Layer 1"><path class="cls-1" d="M47.65178,0H4.26835A4.22945,4.22945,0,0,0,0,4.17038v34.049a4.22945,4.22945,0,0,0,4.26835,4.17038H15.07227L14.90434,47.232a4.50478,4.50478,0,0,0,4.12844,4.66024c.13991.01392.29383.02793.43383.02793a5.381,5.381,0,0,0,2.46307-.60176l17.4653-8.9286h8.25679a4.22947,4.22947,0,0,0,4.26844-4.17038V4.17038A4.22947,4.22947,0,0,0,47.65178,0ZM16.86456,29.65288h-.76943V27.10542h.76943a5.78156,5.78156,0,0,0,2.77365-.55487A2.93732,2.93732,0,0,0,21.01513,24.547c-.02323-.13393-.043-.25967-.05877-.37993a3.875,3.875,0,0,1-3.6572-.7913,3.2123,3.2123,0,0,1-1.204-2.5912,4.61241,4.61241,0,0,1,1.07693-3.11873,4.09017,4.09017,0,0,1,3.2554-1.29287,4.17975,4.17975,0,0,1,3.321,1.5457,5.79847,5.79847,0,0,1,1.2587,3.84853C25.00716,26.92638,22.19183,29.65288,16.86456,29.65288Zm10.23359,0h-.76943V27.10542h.76943a5.77527,5.77527,0,0,0,2.77433-.55487,2.9348,2.9348,0,0,0,1.3776-2.0049c-.02323-.1312-.04237-.2583-.05808-.37857a3.87525,3.87525,0,0,1-3.6572-.7913,3.20639,3.20639,0,0,1-1.20608-2.5912,4.61235,4.61235,0,0,1,1.0783-3.11873,4.09017,4.09017,0,0,1,3.2554-1.29287,4.1763,4.1763,0,0,1,3.32168,1.54707,5.78868,5.78868,0,0,1,1.25733,3.84716C35.24143,26.92638,32.42542,29.65288,27.09815,29.65288Z"/></g></g></svg>