<svg xmlns="http://www.w3.org/2000/svg" viewBox="0 0 328.93 32.53"><defs><style>.cls-1{fill:gray;}</style></defs><title>Asset 7</title><g id="Layer_2" data-name="Layer 2"><g id="Layer_1-2" data-name="Layer 1"><g id="Layer_1-3" data-name="Layer_1"><path class="cls-1" d="M256.53,18.27h0Z"/><polygon class="cls-1" points="256.53 18.27 256.53 18.27 256.53 18.27 256.53 18.27 256.53 18.27"/><path class="cls-1" d="M241.15,13.27h0c-.12-1.92-.27-4.31.38-5.76A7.36,7.36,0,0,1,244.66,4a9.21,9.21,0,0,1,4.56-1.06,8.25,8.25,0,0,1,4.34,1.26,7.53,7.53,0,0,1,2.81,3.35c.66,1.48.51,3.83.38,5.69l0,.53.15,0a2.2,2.2,0,0,0,.48-.09,3.92,3.92,0,0,0,.59-.23,1.41,1.41,0,0,1,.32-.1,1.74,1.74,0,0,1,.34,0h0a1.91,1.91,0,0,1,.36,0,1.75,1.75,0,0,1,.32.09h0a1.75,1.75,0,0,1,.74.48,1.19,1.19,0,0,1,.31.76h0a1.28,1.28,0,0,1-.44,1,3.52,3.52,0,0,1-1.16.68h0l-.2.07-.22.07a5.85,5.85,0,0,0-.85.32,1.05,1.05,0,0,0-.52.45.57.57,0,0,0,0,.3,1.53,1.53,0,0,0,.15.46h0v0h0v0a9,9,0,0,0,1.34,2.08,6.71,6.71,0,0,0,4,2.4.88.88,0,0,1,.73.91,1,1,0,0,1,0,.18,1.09,1.09,0,0,1-.06.18h0a2.18,2.18,0,0,1-1.28,1,11.72,11.72,0,0,1-2.44.61c0,.12-.08.31-.11.44h0l-.07.33h0c0,.12-.06.23-.09.34h0a.93.93,0,0,1-.93.7h0l-.31,0-.38-.06c-.2,0-.42-.08-.65-.11a6.45,6.45,0,0,0-.77,0l-.5,0-.51.06a4.84,4.84,0,0,0-1.86,1h0a6.33,6.33,0,0,1-8.32,0h0a4.84,4.84,0,0,0-1.87-1h0l-.51-.06-.5,0a6,6,0,0,0-.8.05l-.62.11-.35.06-.34,0a1,1,0,0,1-.61-.18h0a1,1,0,0,1-.36-.52c0-.13-.07-.24-.09-.35l-.07-.32h0c0-.13-.07-.33-.11-.44a11.68,11.68,0,0,1-2.44-.61,2.18,2.18,0,0,1-1.28-1h0a1.11,1.11,0,0,1-.06-.18,1.06,1.06,0,0,1,0-.18.88.88,0,0,1,.73-.91,6.7,6.7,0,0,0,4-2.4A9,9,0,0,0,240.81,18h0v0h0a1.54,1.54,0,0,0,.16-.47.57.57,0,0,0,0-.3h0c-.16-.39-.89-.62-1.37-.77h0l-.22-.07-.21-.07a3.31,3.31,0,0,1-1.23-.76,1.19,1.19,0,0,1-.35-1.07,1.34,1.34,0,0,1,.59-.84,1.94,1.94,0,0,1,1.06-.34,1.46,1.46,0,0,1,.29,0,1.22,1.22,0,0,1,.27.09,3.85,3.85,0,0,0,.63.24,2,2,0,0,0,.52.08l.23,0,0-.31v-.14h0Z"/></g><path id="Tumblr" class="cls-1" d="M70.87,26.4A2.92,2.92,0,0,1,69.65,25a13.77,13.77,0,0,1-.17-3.44V13.39h7.45V7.69H69.48V.31H64.9a12.23,12.23,0,0,1-1.13,4.07,8.71,8.71,0,0,1-2.18,2.74A11.54,11.54,0,0,1,58,8.87v4.52h4.37V24.58a9.51,9.51,0,0,0,.46,3.35,5.75,5.75,0,0,0,1.66,2.18,8.62,8.62,0,0,0,2.9,1.57,10,10,0,0,0,3.47.55,16.36,16.36,0,0,0,3.62-.39,19.59,19.59,0,0,0,3.73-1.35v-5A8.81,8.81,0,0,1,73.31,27,4.55,4.55,0,0,1,70.87,26.4Z"/><g id="Layer_1-4" data-name="Layer_1"><path class="cls-1" d="M136,30.35H121.42a7.56,7.56,0,0,1-5.26-1.72,6.32,6.32,0,0,1-1.89-4.86V12.36h7.58a7.29,7.29,0,1,0,13,0h7.58V23.69a6.75,6.75,0,0,1-1.87,4.73A6.33,6.33,0,0,1,136,30.35Zm-11-18a4.7,4.7,0,1,1-1.38,3.33A4.69,4.69,0,0,1,125,12.32Zm-1.4,8.05a6.68,6.68,0,1,0-2-4.73A6.67,6.67,0,0,0,123.64,20.37Z"/><path class="cls-1" d="M135.18,4.86h1.87a1.57,1.57,0,0,1,1.56,1.56V8.3a1.57,1.57,0,0,1-1.56,1.56h-1.87a1.57,1.57,0,0,1-1.56-1.56V6.43a1.57,1.57,0,0,1,1.56-1.56Zm7.27,4.42a7.65,7.65,0,0,0-1.67-4.94,5.64,5.64,0,0,0-4.25-2.16H122V9.93a.3.3,0,0,1-.6,0V2.18h-1.09V9.93a.3.3,0,0,1-.6,0V2.25a6.3,6.3,0,0,0-1.09.26V9.93a.3.3,0,1,1-.6,0V2.75A5.8,5.8,0,0,0,116,4.21a7.82,7.82,0,0,0-1.76,5.24v2.31h7.92a7.34,7.34,0,0,1,1-1.26,7.28,7.28,0,0,1,10.3,0,7.34,7.34,0,0,1,1,1.26h7.92V9.28Z"/></g><g id="Layer_1-5" data-name="Layer_1"><path class="cls-1" d="M200.57,8.13a10.89,10.89,0,0,0,1.5-.53.29.29,0,0,1,.39.42,11.49,11.49,0,0,1-1.29,1.61,11.52,11.52,0,0,1-1.44,1.26v.57A16.71,16.71,0,0,1,194.91,23a15.58,15.58,0,0,1-11.29,4.53A16.06,16.06,0,0,1,175,25a.29.29,0,0,1,.17-.55h0l.64.05.65,0a10.89,10.89,0,0,0,6.1-1.86,5.88,5.88,0,0,1-4.66-4,.29.29,0,0,1,.33-.4h0l.49.07.5,0h.17a5.88,5.88,0,0,1-3.47-5.35V13a.29.29,0,0,1,.44-.26h0a5.38,5.38,0,0,0,1.17.48l.22.06a5.86,5.86,0,0,1-1.58-5.74,5.77,5.77,0,0,1,.58-1.39.29.29,0,0,1,.5-.06l-.23.19.23-.19a15.59,15.59,0,0,0,5,4.05,15.45,15.45,0,0,0,5.85,1.63q0-.14,0-.27a6,6,0,0,1,0-.68,5.86,5.86,0,0,1,10-4.13,10.76,10.76,0,0,0,1.62-.48,10.86,10.86,0,0,0,1.66-.8.29.29,0,0,1,.45.34h0a5.9,5.9,0,0,1-1.58,2.49l.4-.1Z"/></g><g id="Layer_1-6" data-name="Layer_1"><path class="cls-1" d="M326.63,4.27A5.16,5.16,0,0,0,323.72,3c-2.39-.27-4.81-.4-7.23-.47s-4.83-.07-7.24-.07-4.83,0-7.24.07-4.84.2-7.24.47a5.15,5.15,0,0,0-2.9,1.32,5.39,5.39,0,0,0-1.62,2.79,27.31,27.31,0,0,0-.6,4.59c-.09,1.57-.09,3.11-.09,4.61s0,3,.09,4.61a27.07,27.07,0,0,0,.6,4.59,5.4,5.4,0,0,0,1.63,2.79,5.15,5.15,0,0,0,2.9,1.32c2.4.27,4.81.4,7.24.47s4.83.07,7.24.07,4.83,0,7.24-.07,4.84-.2,7.24-.47a5.15,5.15,0,0,0,2.9-1.32,5.41,5.41,0,0,0,1.63-2.79,27.26,27.26,0,0,0,.6-4.59c.08-1.54.09-3.1.09-4.61h0v-.08h0a41.3,41.3,0,0,0-.68-9.13,5.4,5.4,0,0,0-1.63-2.79Zm-22.78,18V8.81l.61.32L310,12l6.7,3.5.71.37-.71.37-6.12,3.18-6.12,3.17-.61.32v-.69Z"/></g><g id="Layer_1-7" data-name="Layer_1"><path class="cls-1" d="M.35,10.61h3.9v-5a.35.35,0,0,1,0,0,7.51,7.51,0,0,1,1.1-3.91A4.1,4.1,0,0,1,9,0h6.24a.35.35,0,0,1,.35.35v5a.35.35,0,0,1-.35.35H12.74A2.22,2.22,0,0,0,11.32,6l-.22-.27.22.27,0,0a1.78,1.78,0,0,0-.48,1.31h0v3.24h4.39a.35.35,0,0,1,.35.35v5.31a.35.35,0,0,1-.35.35H10.81V32.19a.35.35,0,0,1-.35.35H4.59a.35.35,0,0,1-.35-.35V16.61H.35A.35.35,0,0,1,0,16.27V11a.35.35,0,0,1,.35-.35Z"/></g></g></g></svg>
