<svg xmlns="http://www.w3.org/2000/svg" xmlns:xlink="http://www.w3.org/1999/xlink" viewBox="0 0 382.13 145.37"><defs><clipPath id="clip-path" transform="translate(0 0)"><rect width="382.13" height="145.37" fill="none"/></clipPath></defs><title>Asset 1</title><g id="Layer_2" data-name="Layer 2"><g id="Layer_1-2" data-name="Layer 1"><g clip-path="url(#clip-path)"><path d="M19.54,100.14C7.74,100.14.13,92.52.13,80.72V73.4c0-5.93,6-5.93,8.56-5.93,2.82,0,8.69,0,8.69,5.67v7.2c0,2.56,1.3,2.56,2.17,2.56,1.51,0,2.43-.2,2.43-3V72c0-5.77-5.07-12.86-9.54-19.12l-.52-.74C6,43.89,0,35.4,0,26.56V19.89C0,10.36,6,.09,19.15.09S38.3,11.83,38.3,19.76v6c0,5.28-5.31,5.28-8.82,5.28-2.73,0-8.42,0-8.42-5.41V19.49a2.61,2.61,0,0,0-1.91-2.82c-1.1,0-2.17,1.54-2.17,2.7v7.19c0,3.21,4.3,9.18,8.09,14.45l1.19,1.66C32.68,51.58,39,61.2,39,72.09v8.64a19,19,0,0,1-19.42,19.41m56.78,0c-1.38,0-5.06,0-6.93-2.79-1.29-2.06-1.26-4.45-1.24-6.37V6c0-3.78,2.43-5.95,6.68-5.95H76.4c3.06,0,8.74,0,8.74,6.19,0,.73,0,68.74,0,77.93h10.7c4,0,6.06,2.61,6.06,7.76,0,2.65,0,8.16-6.06,8.16Zm71.83,0c-14.14,0-19.41-11.83-19.41-19.28V6.28c0-2.82,1.46-6.19,8.42-6.19,7.72,0,8.56,4.33,8.56,6.19V80.2c0,2.49,1.26,2.7,2.44,2.7.6,0,2.43,0,2.43-2.56V5.89c0-5.8,6.15-5.8,8.17-5.8,2.41,0,8.82,0,8.82,5.67v75c0,9-5.09,19.41-19.41,19.41m85.82,0c-2.74,0-8.43,0-8.43-6.59V57.77a5.49,5.49,0,0,1-4.91,2.6A5.65,5.65,0,0,1,216,58V93.55c0,6.59-5.69,6.59-8.42,6.59s-8.56,0-8.56-6.59V6.28C199,2.42,201.38.2,205.55.2h1.36c6.25,0,7.55,4,9.5,10.13,1.64,5.18,3,9.45,4.36,13.62.78-2.42,4.44-14,4.44-14,1.92-6.16,3.08-9.88,9-9.88,2.69,0,8.3,0,8.3,6.19V93.55c0,6.59-5.36,6.59-8.56,6.59M360.54,40.4a5.43,5.43,0,0,0,3-1.44,4.72,4.72,0,0,0,1.46-4V22.51c0-2.51-.28-3.37-1.51-4.59-.53-.54-.69-.69-3-.72Zm11.93,59.74c-4.77,0-7.19-2-7.19-6.07V60.84c0-3.11-1.73-4.35-2.19-4.4h-2.68V93.81c0,6.33-5,6.33-8.68,6.33-2.65,0-8.17,0-8.17-6.07V8.37c0-2,.25-4.62,2.17-6.53A6.68,6.68,0,0,1,350.33,0c.35,0,.71,0,1.07.06l7.79,0c3.08,0,10.89.55,16.57,5.66,4.14,3.87,6.24,9.5,6.24,16.76V34.94c0,3.08,0,6-2,9.61a12.62,12.62,0,0,1-2.34,3.09,12.33,12.33,0,0,1,2.53,3.45c1.91,3.81,1.9,6.43,1.89,9.46V93.81c0,6.33-5.43,6.33-8.68,6.33h-1ZM291.59,40.43a5,5,0,0,0,3-1.47c1.46-1.61,1.46-2.21,1.46-4V22.51c0-2.51-.28-3.37-1.51-4.59-.64-.64-.72-.72-3-.72,0,4.1,0,19,0,23.24m0,42.68A5.34,5.34,0,0,0,295,81.6c1.59-1.74,1.59-2.4,1.59-4V60.84c0-2.92-1.08-4.4-3.22-4.4h-1.78Zm-5.06,17.08c-.76,0-1.55,0-2.42-.07-.41,0-.76,0-1.13,0-2.24,0-5-.08-6.61-2.49-1.54-2.11-1.76-3.35-1.76-6.8V8.37c0-1.68,0-4.24,2-6.26a7.67,7.67,0,0,1,5.44-2h8.16c2.41,0,10.74.41,16.57,5.66C311,9.68,313,15.16,313,22.51V34.95c0,3.07,0,6-2,9.61a12.86,12.86,0,0,1-2.21,3,12.29,12.29,0,0,1,2.67,3.56,18.23,18.23,0,0,1,1.89,9.49V77.45c0,3.54,0,8.89-5.74,15.58-5.52,6.18-13,7.11-16.95,7.11l-4.22.06" transform="translate(0 0)" fill="#f8be15"/><path d="M291.54,14.53a9.7,9.7,0,0,0-2.48.18,3.67,3.67,0,0,0-.13,1.38v25c0,1.17,0,1.61.33,1.93s.2.2.54.2h.69a8.17,8.17,0,0,0,6.06-2.39,7.06,7.06,0,0,0,2.19-5.85V22.51c0-2.84-.34-4.53-2.29-6.48-1-1-1.5-1.5-4.9-1.5m68,0a4.57,4.57,0,0,0-1.53.15,3.26,3.26,0,0,0-.17,1.42V40.56c0,.26,0,.52,0,.78,0,.8,0,1.48.17,1.63a1,1,0,0,0,.8.22h.61a8.79,8.79,0,0,0,6.06-2.39,7.29,7.29,0,0,0,2.18-5.85V22.51c0-2.84-.34-4.53-2.29-6.48-1.09-1.09-1.5-1.5-5.82-1.5M289.2,85.75a11.67,11.67,0,0,0,1.81.08,8.42,8.42,0,0,0,5.92-2.39c2.31-2.54,2.31-4,2.31-5.85V60.84c0-4.42-2.2-7.06-5.88-7.06-4.44,0-4.44,0-4.44,2V83.21a8.11,8.11,0,0,0,.27,2.53M19.54,97.48c-10.33,0-16.75-6.42-16.75-16.75V73.4c0-3.28,3.27-3.28,5.89-3.28,3,0,6,0,6,3v7.19c0,1.57.47,5.23,4.84,5.23,3.43,0,5.1-1.84,5.1-5.62V72c0-6.62-5.33-14.08-10-20.67l-.52-.74c-5.61-7.87-11.41-16-11.41-24V19.89c0-8.26,5.16-17.14,16.49-17.14s16.49,10.15,16.49,17v6c0,2.62-2.72,2.62-6.15,2.62-2.83,0-5.76,0-5.76-2.75V19.5c0-3.58-2.66-5.49-4.57-5.49-2.72,0-4.84,2.88-4.84,5.36v7.19c0,4.08,4.2,9.91,8.64,16.08l1.14,1.58c6.17,8.56,12.2,17.76,12.2,27.87v8.64A16.38,16.38,0,0,1,19.54,97.48m56.78,0c-1.8,0-3.76-.19-4.71-1.62s-.81-3.12-.79-4.86V6c0-3.29,2.82-3.29,4-3.29h1.48c3.3,0,6.15,0,6.15,3.54V83.34c0,.26,0,.54,0,.82a6.69,6.69,0,0,0,.22,2.52,11.44,11.44,0,0,0,2.14.19h11c3.41,0,3.41,3.07,3.41,5.11,0,3,0,5.5-3.41,5.5Zm71.83,0c-12.2,0-16.75-10.19-16.75-16.62V6.28c0-3.54,3.75-3.54,5.76-3.54,3.91,0,5.89,1.19,5.89,3.54V80.2c0,1.61.5,5.36,5.1,5.36,3.76,0,5.1-2.82,5.1-5.23V5.89c0-3.14,3.31-3.14,5.5-3.14,2.6,0,6.15,0,6.15,3v75c0,8.1-4.4,16.75-16.75,16.75m85.82,0c-2.83,0-5.76,0-5.76-3.93V47.89c0-1.87,0-5.24-.1-8-1.22,4.63-2.16,7.86-3.47,12.39l-.74,2.59a3.26,3.26,0,0,1-3.28,2.86,3.67,3.67,0,0,1-3.28-2.51l-.15-.31-.06-.2c-1.38-5.39-2.35-9.17-3.8-14.79,0,2.05,0,4.41,0,6V93.55c0,3.93-2.93,3.93-5.76,3.93-3,0-5.89,0-5.89-3.93V6.28c0-3.42,2.73-3.42,3.9-3.42h1.34c4.15,0,4.93,1.85,7,8.29,1.66,5.24,3.06,9.58,4.43,13.83l2.37,7.37.06.12a1.35,1.35,0,0,0,.12-.23c2-5.89,3.2-9.81,4.77-14.79l2.12-6.7c1.88-6,2.51-8,6.48-8,2.77,0,5.63,0,5.63,3.54V93.55c0,3.93-2.47,3.93-5.89,3.93m138.49,0c-1.91,0-4.53,0-4.53-3.41V60.84c0-4.55-2.86-7.06-4.84-7.06h-1.87a29,29,0,0,0-3.48.13c0,.07,0,.15,0,.26V93.81c0,3.67-2.14,3.67-6,3.67-3,0-5.5,0-5.5-3.41V8.38c0-1.52.16-3.43,1.38-4.65a3.9,3.9,0,0,1,2.73-1.07c.27,0,.54,0,.82,0s.4,0,.58,0h7.46c2.78,0,9.79.49,14.79,5,3.56,3.32,5.36,8.29,5.36,14.78V34.94c0,3,0,5.31-1.63,8.33a11.68,11.68,0,0,1-4.42,4.41,10.78,10.78,0,0,1,4.57,4.6c1.62,3.24,1.62,5.35,1.61,8.27V93.81c0,3.67-2.53,3.67-6,3.67h-1Zm-85.94.05c-.72,0-1.46,0-2.27-.06-.41,0-.83,0-1.25,0-1.88,0-3.58,0-4.42-1.31l-.25-.35c-.85-1.16-1.06-1.79-1.06-5V8.38c0-1.47,0-3.14,1.24-4.38a4.92,4.92,0,0,1,3.55-1.25h8.16c2.17,0,9.65.36,14.79,5,3.61,3.37,5.36,8.2,5.36,14.78V34.95c0,3,0,5.31-1.63,8.33a11.77,11.77,0,0,1-4.29,4.37,10.77,10.77,0,0,1,4.71,4.63c1.62,3.25,1.62,5.36,1.61,8.29V77.45c0,3.34,0,7.91-5.09,13.85-4.81,5.37-11.42,6.17-14.93,6.17-.77,0-1.47,0-2.14,0h-.13l-1.95,0" transform="translate(0 0)" fill="#fff"/><path d="M136.72,118.85A12.24,12.24,0,0,1,142,120a4.89,4.89,0,0,0,1.66.56,5.62,5.62,0,0,0,1.08-.17,2.38,2.38,0,0,1,.54-.06,2.15,2.15,0,0,1,1.7.9,8.16,8.16,0,0,1,1.79,5.38,3.7,3.7,0,0,1-1.55,3.31,3.33,3.33,0,0,1-1.89.56,2.68,2.68,0,0,1-1.55-.41,4.06,4.06,0,0,1-1.16-1.46,16.57,16.57,0,0,0-1.31-2.12,6,6,0,0,0-1.23-1.17,6.51,6.51,0,0,0-3.79-1.27,3.73,3.73,0,0,0-3.05,1.39,5.73,5.73,0,0,0-1.13,3.73,11.11,11.11,0,0,0,1.63,5.88,7,7,0,0,0,6.31,3.57,9.25,9.25,0,0,0,3-.51,6,6,0,0,0,2.31-1.31,2,2,0,0,1,1.16-.67,1.38,1.38,0,0,1,1.12.61,2.34,2.34,0,0,1,.47,1.47,5.64,5.64,0,0,1-.65,2.43,6.28,6.28,0,0,1-1.57,2.11,4.14,4.14,0,0,1-1.62.56,8.2,8.2,0,0,0-1.89.69,13.15,13.15,0,0,1-5.75,1.33,15,15,0,0,1-6.22-1.4,13.32,13.32,0,0,1-7.75-11.82,12.27,12.27,0,0,1,2.58-7.56,14.34,14.34,0,0,1,5.85-4.54,14,14,0,0,1,5.66-1.2" transform="translate(0 0)" fill="#f8be15"/><path d="M167.71,134.31h3.66q1,0,1-.45a9.64,9.64,0,0,0-1.4-3,9.87,9.87,0,0,0-1-1.47,1,1,0,0,0-.71-.37q-.67,0-1.12,1.25l-.54,1.33a10.48,10.48,0,0,0-.78,2.28q0,.47.86.47m13-2.35,3.53,7.56a5.38,5.38,0,0,0,.84,1.37,1.88,1.88,0,0,0,1,.44q1.35.21,1.35,1.36,0,1.36-1.64,2a17.26,17.26,0,0,1-5.38.6,40,40,0,0,1-6.26-.35,2.87,2.87,0,0,1-1.49-.68,1.64,1.64,0,0,1-.55-1.24,1.22,1.22,0,0,1,.29-.87,2.68,2.68,0,0,1,1.07-.57q.88-.3.88-1,0-1.25-1.51-1.48a35.74,35.74,0,0,0-4.58-.22,8.06,8.06,0,0,0-3,.3,1.5,1.5,0,0,0-.52.67,2.23,2.23,0,0,0-.22.93.66.66,0,0,0,.16.53,5,5,0,0,0,1,.4,1.35,1.35,0,0,1,1.14,1.34q0,2.22-5.32,2.22a17.41,17.41,0,0,1-4.45-.41,1.65,1.65,0,0,1-1.31-1.72,1.28,1.28,0,0,1,.29-.9,2.56,2.56,0,0,1,1-.58,4,4,0,0,0,1.84-1.2,18.25,18.25,0,0,0,1.78-3.32l2.63-5.77a45.25,45.25,0,0,0,2-4.75,10.77,10.77,0,0,0,.51-3.09,9.84,9.84,0,0,1,.2-2.23,2.8,2.8,0,0,1,.79-1.22,4.42,4.42,0,0,1,3.29-1.31,5.47,5.47,0,0,1,3.6,1.48q2.39,2,6.95,11.75" transform="translate(0 0)" fill="#f8be15"/><path d="M213.26,137.13l-2.24,5a9,9,0,0,1-.93,1.71,1,1,0,0,1-.79.44,1,1,0,0,1-.73-.36,12,12,0,0,1-.94-1.64q-.74-1.42-1.22-2.52l-2.47-5.55q-.5-1.16-1.06-1.16t-.65,1q-.13,2.2-.13,4.07a12,12,0,0,0,.19,2.63,1.29,1.29,0,0,0,.35.6,7.58,7.58,0,0,0,1.17.67,1.13,1.13,0,0,1,.62,1.1q0,2.09-5.36,2.09-4.52,0-4.52-2a1,1,0,0,1,.23-.76,5.39,5.39,0,0,1,1.21-.7,1.55,1.55,0,0,0,.83-.77,7.41,7.41,0,0,0,.36-1.89q.17-1.49.32-4.9t.15-5.84a12.05,12.05,0,0,0-.47-4.13,1.61,1.61,0,0,0-.38-.56,4.34,4.34,0,0,0-.81-.49q-1.33-.64-1.33-1.64a1.73,1.73,0,0,1,.49-1.19,2.69,2.69,0,0,1,1.32-.77,14.74,14.74,0,0,1,2.19-.42A18.66,18.66,0,0,1,201,119a10.19,10.19,0,0,1,3.38.39,1.93,1.93,0,0,1,.77.5,7.75,7.75,0,0,1,.8,1.31l3.88,7.15a9.15,9.15,0,0,0,.88,1.44.87.87,0,0,0,.67.26.93.93,0,0,0,.66-.28,4.26,4.26,0,0,0,.68-1l2.63-5.14.63-1.29a6.48,6.48,0,0,1,1.81-2.48,7.64,7.64,0,0,1,4.15-.8q5.29,0,5.29,2.41a1.62,1.62,0,0,1-.21.87,3.38,3.38,0,0,1-.84.79,2.91,2.91,0,0,0-1.08,1.89,38.88,38.88,0,0,0-.43,6.28,68.36,68.36,0,0,0,.45,8.35,2.76,2.76,0,0,0,.35,1.2,5.3,5.3,0,0,0,1.21,1,1.38,1.38,0,0,1,.67,1.2q0,1.31-1.74,1.85a8.45,8.45,0,0,1-1.89.39q-1,.09-3,.09a18.24,18.24,0,0,1-4.71-.45q-1.72-.5-1.72-1.72a1.17,1.17,0,0,1,.22-.74,9.12,9.12,0,0,1,1.16-1.06,2.39,2.39,0,0,0,.66-1.51,28,28,0,0,0,.18-3.81,8.53,8.53,0,0,0-.14-2,.57.57,0,0,0-.59-.47q-.52,0-1,.72a22.85,22.85,0,0,0-1.46,2.87" transform="translate(0 0)" fill="#f8be15"/><path d="M246.63,123.87v6.35q0,.73.32.88a3.12,3.12,0,0,0,1.36.26,3.16,3.16,0,0,0,2.07-.69,4.06,4.06,0,0,0,1.21-3.32,4.14,4.14,0,0,0-1.42-3.51,3.44,3.44,0,0,0-2.17-.69q-1.38,0-1.38.73m-8.42,12.2v-9.82a6.71,6.71,0,0,0-.26-2.42,2.16,2.16,0,0,0-1.42-.83q-1.68-.49-1.68-1.68a1.43,1.43,0,0,1,.71-1.29,3.87,3.87,0,0,1,2.05-.45l2.22.06H241q3.1,0,3.63,0t3.8-.33a19.28,19.28,0,0,1,2-.11,11.59,11.59,0,0,1,5.45,1.25,7.23,7.23,0,0,1,4.17,6.87,7.39,7.39,0,0,1-2.91,6.11,10.46,10.46,0,0,1-6.65,2.15q-1,0-2.43-.13l-1-.06q-.54,0-.54.62v.11l.13,3.06a2.67,2.67,0,0,0,.33,1.34,3.17,3.17,0,0,0,1.19.91q1.21.65,1.21,1.42,0,1.18-1.79,1.81a15.86,15.86,0,0,1-5.08.63q-6.91,0-6.91-2.37a1.16,1.16,0,0,1,.3-.86,6.43,6.43,0,0,1,1.4-.86,1.37,1.37,0,0,0,.78-1q.11-.64.15-4.09" transform="translate(0 0)" fill="#f8be15"/></g></g></g></svg>