<svg xmlns="http://www.w3.org/2000/svg" viewBox="0 0 54.18083 32.93468"><defs><style>.cls-1{fill:#272729;}</style></defs><title>Aa</title><g id="Layer_2" data-name="Layer 2"><g id="Layer_1-2" data-name="Layer 1"><path class="cls-1" d="M12.45428,0h6.046l12.4999,32.45357H24.90856L21.86319,23.863H8.90895L5.86358,32.45357H0ZM10.45444,19.544h9.90887L15.49966,5.59079h-.13594Z"/><path class="cls-1" d="M51.681,27.07019a2.76345,2.76345,0,0,0,.25,1.36485,1.05594,1.05594,0,0,0,.978.40873h.54558a3.412,3.412,0,0,0,.72622-.09123v3.59095c-.18247.06021-.416.12773-.70432.20436-.2883.07481-.58389.14415-.88679.20436s-.60579.10583-.90869.13685c-.3029.02919-.56017.04562-.77184.04562a5.00244,5.00244,0,0,1-2.63665-.63681,3.15912,3.15912,0,0,1-1.36485-2.22792,9.15662,9.15662,0,0,1-3.79531,2.1823,14.95206,14.95206,0,0,1-4.34.68243,10.62367,10.62367,0,0,1-3.04537-.43245,7.99041,7.99041,0,0,1-2.56822-1.27179,6.09992,6.09992,0,0,1-1.77267-2.13669,6.57914,6.57914,0,0,1-.65962-3.02348,6.98236,6.98236,0,0,1,.79556-3.54533,5.90266,5.90266,0,0,1,2.09107-2.13669,9.47546,9.47546,0,0,1,2.90944-1.113q1.6121-.33939,3.24974-.52186a26.11717,26.11717,0,0,1,2.68135-.38683,12.43783,12.43783,0,0,0,2.24982-.38683,3.44974,3.44974,0,0,0,1.5455-.84117,2.31033,2.31033,0,0,0,.5693-1.70424,2.66336,2.66336,0,0,0-.47806-1.63673,3.1871,3.1871,0,0,0-1.18239-.9762,5.054,5.054,0,0,0-1.56739-.45434,12.44768,12.44768,0,0,0-1.63673-.115,6.51084,6.51084,0,0,0-3.59095.91051,3.54185,3.54185,0,0,0-1.5902,2.81729H31.5905a7.80342,7.80342,0,0,1,1.09115-3.77342A7.54018,7.54018,0,0,1,35.113,9.79787a9.95435,9.95435,0,0,1,3.341-1.27179,19.86222,19.86222,0,0,1,3.819-.36493,16.0848,16.0848,0,0,1,3.40848.36493,9.68838,9.68838,0,0,1,3.02165,1.18056,6.54312,6.54312,0,0,1,2.16041,2.11479,5.79428,5.79428,0,0,1,.81745,3.1585ZM46.499,20.5251a6.27342,6.27342,0,0,1-2.90852.93241q-1.727.15875-3.455.47624a11.2014,11.2014,0,0,0-1.5902.38683,4.78919,4.78919,0,0,0-1.36394.68243,2.98618,2.98618,0,0,0-.93149,1.13677,3.88518,3.88518,0,0,0-.34121,1.70424,2.17327,2.17327,0,0,0,.5,1.45426,3.60666,3.60666,0,0,0,1.20428.93058,5.55885,5.55885,0,0,0,1.5455.47806,9.55762,9.55762,0,0,0,1.52269.13685,8.33719,8.33719,0,0,0,1.8639-.22808,6.21926,6.21926,0,0,0,1.88671-.77184,4.98426,4.98426,0,0,0,1.47616-1.38675,3.50389,3.50389,0,0,0,.59119-2.06735Z"/></g></g></svg>