<svg xmlns="http://www.w3.org/2000/svg" viewBox="0 0 51.33784 43.66667"><defs><style>.cls-1{fill:#272729;}</style></defs><title>Camera</title><g id="Layer_2" data-name="Layer 2"><g id="Layer_1-2" data-name="Layer 1"><path class="cls-1" d="M44.69342,5.49968H38.049a.7945.7945,0,0,1-.69627-.41311L35.03955,1.00312A1.96983,1.96983,0,0,0,33.32828,0H17.99775a1.96983,1.96983,0,0,0-1.71128,1.00312L13.97329,5.08657a.7945.7945,0,0,1-.69627.41311H6.63261A6.70481,6.70481,0,0,0,0,12.26209V36.89244a6.70757,6.70757,0,0,0,6.63261,6.77422H44.69342a6.7175,6.7175,0,0,0,6.64442-6.77422V12.26209A6.71477,6.71477,0,0,0,44.69342,5.49968ZM17.64371,24.0757a8.01941,8.01941,0,1,1,8.0134,8.06058A8.05646,8.05646,0,0,1,17.64371,24.0757Z"/></g></g></svg>