<svg xmlns="http://www.w3.org/2000/svg" viewBox="0 0 44 43.99791"><defs><style>.cls-1{fill:#272729;}</style></defs><title>Check</title><g id="Layer_2" data-name="Layer 2"><g id="Layer_1-2" data-name="Layer 1"><path class="cls-1" d="M41.04662,10.95718A21.51886,21.51886,0,0,1,44,22a21.51886,21.51886,0,0,1-2.95338,11.04282,21.92455,21.92455,0,0,1-8.0038,8.00589,21.53755,21.53755,0,0,1-11.04491,2.94921A21.53346,21.53346,0,0,1,10.95718,41.0487a21.90426,21.90426,0,0,1-8.008-8.00589A21.51518,21.51518,0,0,1,0,22,21.51518,21.51518,0,0,1,2.94921,10.95718a21.90426,21.90426,0,0,1,8.008-8.00589A21.515,21.515,0,0,1,21.99791,0,21.51906,21.51906,0,0,1,33.04282,2.9513,21.92455,21.92455,0,0,1,41.04662,10.95718ZM36.78154,17.359a1.793,1.793,0,0,0-.518-1.318l-2.60666-2.57742a1.79582,1.79582,0,0,0-2.57742,0l-11.68822,11.659-6.47071-6.47489a1.80559,1.80559,0,0,0-2.5816,0L7.73227,21.22719a1.785,1.785,0,0,0-.51381,1.31586,1.75712,1.75712,0,0,0,.51381,1.2908L18.10462,34.202a1.74843,1.74843,0,0,0,1.28662.54514,1.79569,1.79569,0,0,0,1.32-.54514L36.26355,18.64768A1.75242,1.75242,0,0,0,36.78154,17.359Z"/></g></g></svg>