<svg xmlns="http://www.w3.org/2000/svg" viewBox="0 0 40.69 46" style="fill: #FFB400;"><title>Download</title><g id="Layer_2" data-name="Layer 2"><g id="Layer_1-2" data-name="Layer 1"><path class="cls-1" d="M40.19,35.14v9.45a.90691.90691,0,0,1-.91.91H1.41a.90691.90691,0,0,1-.91-.91V35.14a.91.91,0,1,1,1.82,0v8.54H38.37V35.14a.91.91,0,0,1,1.82,0Z"/><path class="cls-2" d="M29.34,27.72a.90542.90542,0,0,1,0,1.29l-8.35,8.34a.88549.88549,0,0,1-.64.27.92492.92492,0,0,1-.65-.27l-8.34-8.34a.90542.90542,0,0,1,0-1.29.8935.8935,0,0,1,1.28,0l6.8,6.79V1.41a.91.91,0,1,1,1.82,0v33.1l6.79-6.79A.90542.90542,0,0,1,29.34,27.72Z"/><path class="cls-3" d="M20.35.5a.90067.90067,0,0,0-.91.91v33.1l-6.8-6.79a.8935.8935,0,0,0-1.28,0,.90542.90542,0,0,0,0,1.29l8.34,8.34a.92492.92492,0,0,0,.65.27.88549.88549,0,0,0,.64-.27l8.35-8.34a.91217.91217,0,0,0-1.29-1.29l-6.79,6.79V1.41A.90691.90691,0,0,0,20.35.5Z"/><path class="cls-3" d="M1.41,34.23a.90067.90067,0,0,0-.91.91v9.45a.90691.90691,0,0,0,.91.91H39.28a.90691.90691,0,0,0,.91-.91V35.14a.91.91,0,0,0-1.82,0v8.54H2.32V35.14A.90691.90691,0,0,0,1.41,34.23Z"/></g></g></svg>