<svg xmlns="http://www.w3.org/2000/svg" viewBox="0 0 24.3293 45"><defs><style>.cls-1{fill:#272729;}</style></defs><title>Facebook</title><g id="Layer_2" data-name="Layer 2"><g id="Layer_1-2" data-name="Layer 1"><path class="cls-1" d="M23.41313.00936,17.57764,0C11.02166,0,6.7849,4.34677,6.7849,11.07456v5.10611H.91757A.91766.91766,0,0,0,0,17.09872V24.4969a.91756.91756,0,0,0,.91757.91757H6.7849v18.668A.91726.91726,0,0,0,7.70248,45h7.65519a.91756.91756,0,0,0,.91757-.91757v-18.668h6.86027a.91726.91726,0,0,0,.91757-.91757l.00281-7.39818a.91826.91826,0,0,0-.918-.918H16.27524V11.85216c0-2.08046.49577-3.13661,3.20589-3.13661l3.93106-.0014a.91746.91746,0,0,0,.91711-.91757V.92694A.91786.91786,0,0,0,23.41313.00936Z"/></g></g></svg>