<svg xmlns="http://www.w3.org/2000/svg" viewBox="0 0 51.63499 49.14807"><defs><style>.cls-1{fill:#272729;}</style></defs><title>Fav Star</title><g id="Layer_2" data-name="Layer 2"><g id="Layer_1-2" data-name="Layer 1"><path class="cls-1" d="M25.28718.4598c.2914-.61306.76864-.61306,1.06,0l6.92336,14.5635a2.53483,2.53483,0,0,0,1.75461,1.2749l15.99027,2.08367c.67357.08829.82112.54207.32783,1.00881L39.6315,30.4752a2.5368,2.5368,0,0,0-.66986,2.06268l2.95912,15.85136c.12471.668-.26115.9483-.85755.62356l-14.16158-7.713a2.536,2.536,0,0,0-2.16887,0l-14.161,7.713c-.59639.32475-.98226.04445-.85817-.62356l2.95913-15.85136a2.53471,2.53471,0,0,0-.66986-2.06268L.29173,19.39067c-.49329-.46674-.34574-.92052.32721-1.00881l15.99027-2.08367a2.53355,2.53355,0,0,0,1.75461-1.2749Z"/></g></g></svg>