<svg xmlns="http://www.w3.org/2000/svg" viewBox="0 0 45 45"><defs><style>.cls-1{fill:#272729;}</style></defs><title>Instagram</title><g id="Layer_2" data-name="Layer 2"><g id="Layer_1-2" data-name="Layer 1"><path class="cls-1" d="M34.61538,12.11538a1.73362,1.73362,0,0,1-1.73077-1.73077V6.92308a1.73362,1.73362,0,0,1,1.73077-1.73077h3.46154a1.73362,1.73362,0,0,1,1.73077,1.73077v3.46154a1.73362,1.73362,0,0,1-1.73077,1.73077Z"/><path class="cls-1" d="M22.5,15.90231a6.55505,6.55505,0,0,0-3.41481.97442,3.26753,3.26753,0,0,1,.97615-.161,3.34644,3.34644,0,1,1-3.34558,3.34731,3.3075,3.3075,0,0,1,.16269-.97788A6.52446,6.52446,0,0,0,15.90231,22.5,6.59942,6.59942,0,1,0,22.5,15.90231Z"/><path class="cls-1" d="M22.5,12.11538A10.38462,10.38462,0,1,1,12.11538,22.5,10.38508,10.38508,0,0,1,22.5,12.11538m0-3.46154A13.84615,13.84615,0,1,0,36.34615,22.5,13.86231,13.86231,0,0,0,22.5,8.65385Z"/><path class="cls-1" d="M36.5625,0H8.4375A8.43614,8.43614,0,0,0,0,8.4375v28.125A8.43614,8.43614,0,0,0,8.4375,45h28.125A8.43614,8.43614,0,0,0,45,36.5625V8.4375A8.43614,8.43614,0,0,0,36.5625,0Zm4.976,15.57692h-11.314a10.38463,10.38463,0,1,1-15.44885,0H3.46154V8.4375a4.98222,4.98222,0,0,1,4.976-4.976h28.125a4.98111,4.98111,0,0,1,4.976,4.976Z"/></g></g></svg>