<svg xmlns="http://www.w3.org/2000/svg" viewBox="0 0 59.24764 45"><defs><style>.cls-1{fill:#272729;}</style></defs><title>Mail</title><g id="Layer_2" data-name="Layer 2"><g id="Layer_1-2" data-name="Layer 1"><path class="cls-1" d="M52.21561,0H7.03219A6.90483,6.90483,0,0,0,0,6.75325v31.4935A6.90483,6.90483,0,0,0,7.03219,45H52.21561a6.90469,6.90469,0,0,0,7.032-6.75325V6.75325A6.90469,6.90469,0,0,0,52.21561,0Zm0,39.038H7.03219c-.57,0-1.06985-.36964-1.06985-.79122v-27.329L26.39759,28.17029a2.32791,2.32791,0,0,0,1.50027.54857l3.45128.00016a2.3294,2.3294,0,0,0,1.50043-.54873L53.28577,10.91714V38.24707C53.28546,38.66834,52.78542,39.038,52.21561,39.038ZM29.6239,22.799,9.74806,5.962H49.49973Z"/></g></g></svg>