<svg xmlns="http://www.w3.org/2000/svg" viewBox="0 0 63.50721 55.56887"><defs><style>.cls-1{fill:#272729;}</style></defs><title>Person</title><g id="Layer_2" data-name="Layer 2"><g id="Layer_1-2" data-name="Layer 1"><path class="cls-1" d="M63.50721,55.56887V55.5685C58.79378,45.64562,53.80127,43.661,51.59961,43.661h-3.9692c-4.384,0-7.9384-2.17041-7.9384-7.9384V33.172a20.06723,20.06723,0,0,0,3.79865-7.16515c.08137-.44.504-.657.78689-.95931a4.90795,4.90795,0,0,0,.67836-5.90927c-.155-.2771-.43413-.51748-.41863-.86057,0-2.32769.01166-4.65923-.00385-6.98493a11.6502,11.6502,0,0,0-2.83351-7.80853A11.07839,11.07839,0,0,0,35.67629.37552a19.99508,19.99508,0,0,0-8.64.20156A10.46522,10.46522,0,0,0,20.881,4.744a12.03357,12.03357,0,0,0-1.89939,6.28722c-.03486,2.36837-.00781,4.74245-.0155,7.11665.05433.47482-.34892.79657-.531,1.19a4.91965,4.91965,0,0,0,1.12415,6.0178,2.3268,2.3268,0,0,1,.67836,1.32757,19.198,19.198,0,0,0,3.57774,6.40344v2.6358c0,5.76812-3.55442,7.9384-7.9384,7.9384H11.9076C9.985,43.6609,4.71343,45.6455,0,55.5685v.00037Z"/></g></g></svg>