<svg xmlns="http://www.w3.org/2000/svg" viewBox="0 0 46.02318 45.95983"><defs><style>.cls-1{fill:#272729;}</style></defs><title>Pin</title><g id="Layer_2" data-name="Layer 2"><g id="Layer_1-2" data-name="Layer 1"><path class="cls-1" d="M45.8294,1.27219a1.89267,1.89267,0,0,1-.45819,2.28605l-16.095,16.095V43.86875a1.9409,1.9409,0,0,1-1.26732,1.92535,2.35707,2.35707,0,0,1-.81888.16573,1.93737,1.93737,0,0,1-1.46717-.62391l-8.35943-8.35456a2.00433,2.00433,0,0,1-.619-1.472V19.6532L.64947,3.55825A1.89143,1.89143,0,0,1,.19615,1.27219,1.95334,1.95334,0,0,1,2.12151,0H43.89917A1.95535,1.95535,0,0,1,45.8294,1.27219"/></g></g></svg>