<svg xmlns="http://www.w3.org/2000/svg" viewBox="0 0 35.36849 45"><defs><style>.cls-1{fill:#272729;}</style></defs><title>Pinterest</title><g id="Layer_2" data-name="Layer 2"><g id="Layer_1-2" data-name="Layer 1"><g id="_Group_" data-name="&lt;Group&gt;"><path id="_Path_" data-name="&lt;Path&gt;" class="cls-1" d="M30.78153,4.61134A17.25672,17.25672,0,0,0,18.71124,0C11.553,0,7.15039,2.93426,4.71758,5.39567A15.94339,15.94339,0,0,0,0,16.44636c0,5.00916,2.09522,8.85388,5.60394,10.28422a1.85565,1.85565,0,0,0,.70494.14514,1.568,1.568,0,0,0,1.5299-1.26125c.11843-.44572.39289-1.54529.51219-2.02265a1.89763,1.89763,0,0,0-.508-2.05255,6.53987,6.53987,0,0,1-1.48738-4.46852A11.24839,11.24839,0,0,1,18.01777,5.74835c6.01047,0,9.74416,3.41612,9.74416,8.91513a18.52432,18.52432,0,0,1-2.10509,9.04938c-.9434,1.64369-2.60233,3.60306-5.14908,3.60306A3.41345,3.41345,0,0,1,17.793,26.07484a3.12226,3.12226,0,0,1-.54688-2.71249c.26792-1.13411.63324-2.31713.9868-3.46083A21.41674,21.41674,0,0,0,19.4873,14.2658c0-2.69232-1.65516-4.50132-4.1183-4.50132-3.13035,0-5.58275,3.1794-5.58275,7.2382a10.76323,10.76323,0,0,0,.76851,4.0511c-.39434,1.67083-2.738,11.60425-3.1826,13.47741-.257,1.09347-1.80552,9.72993.75748,10.41861,2.87969.77373,5.45372-7.63762,5.7157-8.58813.21234-.773.9553-3.69595,1.4106-5.49276a8.70606,8.70606,0,0,0,5.80641,2.24427A12.95029,12.95029,0,0,0,31.45962,27.911a20.88342,20.88342,0,0,0,3.90887-12.769A14.72449,14.72449,0,0,0,30.78153,4.61134Z"/></g></g></g></svg>