<?xml version="1.0" encoding="UTF-8" standalone="no"?>
<svg width="68px" height="68px" viewBox="0 0 68 68" version="1.1" xmlns="http://www.w3.org/2000/svg" xmlns:xlink="http://www.w3.org/1999/xlink">
    <!-- Generator: Sketch 48.2 (47327) - http://www.bohemiancoding.com/sketch -->
    <title>empty-state-spaceship</title>
    <desc>Created with Sketch.</desc>
    <defs></defs>
    <g id="Page-1" stroke="none" stroke-width="1" fill="none" fill-rule="evenodd">
        <g id="empty-state-spaceship" fill="#272729" fill-rule="nonzero">
            <path d="M16,60 L19,57 L16,60 Z" id="Fill-1"></path>
            <path d="M0.0539379776,25.7683677 C0.211655636,26.5041561 0.661150964,27.23228 1.41819573,27.6768188 L11.7171589,34 L27,16.203119 C23.8219892,15.1684166 20.3443148,14.7315423 16.8587545,15.1684166 C10.5027329,15.7585802 4.74603833,18.7017337 0.661150964,23.5610026 C0.0539379776,24.1435017 -0.0958937984,25.0249149 0.0539379776,25.7683677" id="Fill-10"></path>
            <path d="M49.5,15 C47.0177936,15 45,16.792 45,18.9964444 C45,21.208 47.0177936,23 49.5,23 C51.9822064,23 54,21.208 54,18.9964444 C54,16.792 51.9822064,15 49.5,15" id="Fill-13"></path>
            <path d="M49.7614431,27.480642 C45.2288756,27.480642 41.5471313,23.7871322 41.5471313,19.257356 C41.5471313,14.7198367 45.2288756,11.0263269 49.7614431,11.0263269 C54.2940107,11.0263269 57.975755,14.7198367 57.975755,19.257356 C57.975755,23.7871322 54.2940107,27.480642 49.7614431,27.480642 M67.110503,0.890468816 C66.5149267,0.29424187 65.6254296,0 64.7359326,0 C52.7006508,1.18471069 41.4156404,6.54301 32.8068559,15.1611995 L32.6598955,15.3160636 L13.6555977,38.0501197 C12.7583659,39.2425736 12.7583659,40.8763903 13.8025581,41.91398 L17.8091622,45.9327045 L21.9627267,50.0985499 L25.9770655,54.101788 C26.5649071,54.7057581 27.3151785,55 28.0499804,55 C28.8002518,55 29.3880933,54.7057581 29.9836696,54.2566521 L52.8476112,35.3864564 L53.0023063,35.2315923 C61.4641304,26.6134028 66.8088474,15.3160636 68,3.26763339 C68,2.37716458 67.6983445,1.48669576 67.110503,0.890468816" id="Fill-15"></path>
            <path d="M12.9640832,64.0334104 C11.6786389,62.7474259 11.6786389,60.8058416 12.9640832,59.5198571 L16.5095568,55.9644883 C17.8034026,54.6785039 19.7441714,54.6785039 21.0296156,55.9644883 C22.3234614,57.2504728 22.3234614,59.1920572 21.0296156,60.4780416 L17.484142,64.0334104 C16.8372191,64.6806052 16.0306658,65 15.2241126,65 C14.4175593,65 13.6110061,64.6806052 12.9640832,64.0334104" id="Fill-2"></path>
            <path d="M7,52.954 L9.954,50" id="Fill-4"></path>
            <path d="M5.97038437,56.0334104 C4.67653854,54.7474259 4.67653854,52.8058416 5.97038437,51.511452 L9.515858,47.9644883 C10.8097038,46.6785039 12.742071,46.6785039 14.0359168,47.9644883 C15.3213611,49.2504728 15.3213611,51.1920572 14.0359168,52.4780416 L10.4904432,56.0334104 C9.83511866,56.6806052 9.03696701,57 8.23041377,57 C7.42386052,57 6.61730729,56.6806052 5.97038437,56.0334104" id="Fill-6"></path>
            <path d="M34,56.2366123 L40.109707,66.6405704 C40.539238,67.4027939 41.3908941,68 42.2425502,68 L42.3832586,68 C43.2423205,68 43.9532682,67.701397 44.5161018,66.9470314 C51.2034539,58.3504075 53.4770055,48.99156 51.0627455,41 L34,56.2366123 Z" id="Fill-8"></path>
        </g>
    </g>
</svg>