<svg xmlns="http://www.w3.org/2000/svg" viewBox="0 0 50.39997 45"><defs><style>.cls-1{fill:#272729;}</style></defs><title>Share arrow</title><g id="Layer_2" data-name="Layer 2"><g id="Layer_1-2" data-name="Layer 1"><path class="cls-1" d="M49.866,14.93439,35.46578.53451a1.76546,1.76546,0,0,0-2.5311,0A1.731,1.731,0,0,0,32.4,1.80035V9.00029H26.1q-20.05392,0-24.60987,11.33447A25.61179,25.61179,0,0,0,0,29.70043q0,4.66845,3.57185,12.68424.08423.19726.29513.67469.21115.47772.37965.84373a3.19639,3.19639,0,0,0,.366.61824A.96153.96153,0,0,0,5.40008,45a.82151.82151,0,0,0,.6611-.28115A1.04871,1.04871,0,0,0,6.3,44.01629a5.72616,5.72616,0,0,0-.07043-.74562,5.818,5.818,0,0,1-.07043-.6608q-.14082-1.91177-.14077-3.45905a23.93961,23.93961,0,0,1,.49215-5.09046A15.28512,15.28512,0,0,1,7.87483,30.165a9.78393,9.78393,0,0,1,2.25-2.84051,13.20326,13.20326,0,0,1,2.9669-1.95462,16.08672,16.08672,0,0,1,3.74079-1.19541,35.66394,35.66394,0,0,1,4.33125-.60485q2.18-.16889,4.9362-.16855h6.3V30.6012a1.79009,1.79009,0,0,0,3.0658,1.26555L49.86566,17.46638a1.76731,1.76731,0,0,0,.0003-2.532Z"/></g></g></svg>