<svg xmlns="http://www.w3.org/2000/svg" viewBox="0 0 48.20618 45"><defs><style>.cls-1{fill:#272729;}</style></defs><title>Snapchat</title><g id="Layer_2" data-name="Layer 2"><g id="Layer_1-2" data-name="Layer 1"><path class="cls-1" d="M47.11825,33.73753c-6.07464-1.00109-8.84236-7.14474-9.138-7.84211-.00565-.01365-.0289-.0627-.03531-.07711a1.83371,1.83371,0,0,1-.221-1.49114c.319-.75442,1.67031-1.18186,2.53555-1.45574.24347-.07871.4716-.151.65321-.22332,1.74987-.691,2.628-1.5739,2.60945-2.62631A2.25221,2.25221,0,0,0,41.8808,18.0775a2.96633,2.96633,0,0,0-1.11916-.21607,2.51281,2.51281,0,0,0-1.04525.21532,5.31515,5.31515,0,0,1-1.89768.55435,1.819,1.819,0,0,1-.511-.08681c.01525-.26268.033-.5327.0498-.80828l.00885-.14057c.20647-3.27707.46275-7.35526-.62826-9.7992A13.02767,13.02767,0,0,0,24.642,0l-.94319.00885A13.00561,13.00561,0,0,0,11.62267,7.80031c-1.09345,2.44959-.83473,6.52608-.62741,9.8024.02005.32218.0402.63626.05781.94244a1.87511,1.87511,0,0,1-.60821.08916,5.05,5.05,0,0,1-2.0648-.55755c-1.14166-.53505-3.22887.17992-3.51094,1.66146-.15346.80178.16956,1.95794,2.5781,2.91.18717.07391.42264.14942.71187.241.80743.25627,2.15876.68447,2.47849,1.43729a1.9187,1.9187,0,0,1-.25063,1.5546c-.11891.27718-2.97984,6.79046-9.2987,7.83081A1.29583,1.29583,0,0,0,.00205,35.06325a1.6596,1.6596,0,0,0,.13172.5552c.5311,1.24212,2.55325,2.10415,6.35982,2.70831a7.98685,7.98685,0,0,1,.23622.91674c.08031.36718.16467.74633.27962,1.13921a1.40732,1.40732,0,0,0,1.45414,1.06455A6.465,6.465,0,0,0,9.61323,41.289a12.23,12.23,0,0,1,2.47369-.282,10.92726,10.92726,0,0,1,1.77237.151,8.439,8.439,0,0,1,3.29562,1.71371A9.64224,9.64224,0,0,0,23.51228,45c.08191,0,.16307-.00245.24262-.008.11486.00565.23057.008.34788.008a12.05415,12.05415,0,0,0,7.10774-2.13061,8.54371,8.54371,0,0,1,3.28912-1.71127,10.97066,10.97066,0,0,1,1.77472-.151,12.35678,12.35678,0,0,1,2.48414.26513,6.13208,6.13208,0,0,0,1.19307.139A1.38119,1.38119,0,0,0,41.352,40.3636c.11251-.38724.19687-.75517.27878-1.13121a8.19885,8.19885,0,0,1,.23622-.90949c3.752-.59691,5.6681-1.42524,6.19835-2.66415a1.637,1.637,0,0,0,.139-.568A1.29975,1.29975,0,0,0,47.11825,33.73753Z"/></g></g></svg>