<svg xmlns="http://www.w3.org/2000/svg" viewBox="0 0 45 45"><defs><style>.cls-1{fill:#272729;}</style></defs><title>Spotify</title><g id="Layer_2" data-name="Layer 2"><g id="Layer_1-2" data-name="Layer 1"><path class="cls-1" d="M22.5,0A22.5,22.5,0,1,0,45,22.5,22.501,22.501,0,0,0,22.5,0ZM32.89216,35.6878a1.535,1.535,0,0,1-1.35278.80156,1.55211,1.55211,0,0,1-.74528-.1884,24.6148,24.6148,0,0,0-19.09686-1.94063A1.54116,1.54116,0,0,1,9.765,33.3394c-.25309-.8128.20247-2.53972,1.02093-2.79564A27.71154,27.71154,0,0,1,32.2875,32.72907C33.0356,33.13684,33.30842,34.94252,32.89216,35.6878Zm2.86033-8.47409c-.32061.62157-.95058,1.62277-1.60029,1.62277a1.71821,1.71821,0,0,1-.8297-.2053A31.24262,31.24262,0,0,0,10.7409,26.24056a1.80111,1.80111,0,0,1-2.21628-1.26561c-.25875-.96465.30654-2.60441,1.26845-2.86591A34.83961,34.83961,0,0,1,34.979,24.78655,1.79713,1.79713,0,0,1,35.75249,27.21371Zm1.19526-6.78655a2.06881,2.06881,0,0,1-.91687-.21654,37.88911,37.88911,0,0,0-17.05783-4.00214,38.6114,38.6114,0,0,0-9.25034,1.125A2.06068,2.06068,0,0,1,7.2252,15.82876a2.29214,2.29214,0,0,1,1.50472-2.71122,42.49421,42.49421,0,0,1,10.24031-1.24871,42.01417,42.01417,0,0,1,18.9,4.43531,2.06047,2.06047,0,0,1,.92811,2.76467A2.30389,2.30389,0,0,1,36.94775,20.42716Z"/></g></g></svg>