<svg xmlns="http://www.w3.org/2000/svg" viewBox="0 0 28.27806 45"><defs><style>.cls-1{fill:#272729;}</style></defs><title>Tumblr</title><g id="Layer_2" data-name="Layer 2"><g id="Layer_1-2" data-name="Layer 1"><g id="_Group_" data-name="&lt;Group&gt;"><path id="_Path_" data-name="&lt;Path&gt;" class="cls-1" d="M27.897,34.39266a.72539.72539,0,0,0-.74308.03208A11.23879,11.23879,0,0,1,20.97632,36.458a5.5406,5.5406,0,0,1-2.93747-.76892,2.597,2.597,0,0,1-1.18147-1.34375,16.50173,16.50173,0,0,1-.35274-4.60726V19.29449h9.605a.72579.72579,0,0,0,.7258-.7258V11.73161a.7257.7257,0,0,0-.7258-.7258h-9.605V.7258A.7257.7257,0,0,0,15.77884,0h-6.196a.72563.72563,0,0,0-.72014.63668,16.254,16.254,0,0,1-1.45306,5.313A11.23062,11.23062,0,0,1,4.64892,9.46492,12.0418,12.0418,0,0,1,.50269,11.71361.72592.72592,0,0,0,0,12.40428v6.1644a.72579.72579,0,0,0,.7258.7258H4.81469V33.845a13.3897,13.3897,0,0,0,.67587,4.822,8.527,8.527,0,0,0,2.44785,3.25422,12.17956,12.17956,0,0,0,4.16176,2.28744A17.64414,17.64414,0,0,0,17.605,45a22.30219,22.30219,0,0,0,5.05885-.54755,26.67156,26.67156,0,0,0,5.19836-1.89653.72561.72561,0,0,0,.41589-.65627V35.03152A.72426.72426,0,0,0,27.897,34.39266Z"/></g></g></g></svg>