<svg xmlns="http://www.w3.org/2000/svg" viewBox="0 0 55.39912 45"><defs><style>.cls-1{fill:#272729;}</style></defs><title>Twitter</title><g id="Layer_2" data-name="Layer 2"><g id="Layer_1-2" data-name="Layer 1"><path class="cls-1" d="M55.39912,5.32421A22.69506,22.69506,0,0,1,48.8736,7.114,11.41181,11.41181,0,0,0,53.86894.83081a22.911,22.911,0,0,1-7.22136,2.7591A11.37341,11.37341,0,0,0,27.2823,13.9511,32.26474,32.26474,0,0,1,3.85984,2.077,11.37782,11.37782,0,0,0,7.37706,17.24663a11.36554,11.36554,0,0,1-5.14769-1.42626v.14194a11.37593,11.37593,0,0,0,9.11489,11.14357A11.51122,11.51122,0,0,1,8.3498,27.504a10.908,10.908,0,0,1-2.13939-.21119,11.37059,11.37059,0,0,0,10.61393,7.89294A22.80133,22.80133,0,0,1,2.71058,40.04268,24.15229,24.15229,0,0,1,0,39.88689,32.124,32.124,0,0,0,17.41979,45C38.32557,45,49.753,27.684,49.753,12.66678l-.03811-1.47125A22.69408,22.69408,0,0,0,55.39912,5.32421Z"/></g></g></svg>