<svg xmlns="http://www.w3.org/2000/svg" viewBox="0 0 63.94213 45"><defs><style>.cls-1{fill:#272729;}</style></defs><title>Youtube</title><g id="Layer_2" data-name="Layer 2"><g id="Layer_1-2" data-name="Layer 1"><g id="_Group_" data-name="&lt;Group&gt;"><path id="_Compound_Path_" data-name="&lt;Compound Path&gt;" class="cls-1" d="M61.44983,3.86293C59.14173,1.11919,54.88029,0,46.7419,0H17.19961C8.875,0,4.54134,1.19139,2.24189,4.11251,0,6.96062,0,11.15708,0,16.96509v11.07C0,39.28708,2.66,45,17.19961,45h29.5425c7.05756,0,10.96834-.9876,13.49839-3.40894,2.5946-2.483,3.70163-6.53715,3.70163-13.55594v-11.07C63.94213,10.84,63.76866,6.61884,61.44983,3.86293ZM41.05105,24.02842,27.636,31.03957a2.06259,2.06259,0,0,1-3.01807-1.82813V15.23411a2.06265,2.06265,0,0,1,3.01332-1.8304l13.41506,6.966a2.06263,2.06263,0,0,1,.00475,3.65873Z"/></g></g></g></svg>