<svg xmlns="http://www.w3.org/2000/svg" viewBox="0 0 32 32"><defs><style>.cls-1{fill:#fbb316;}</style></defs><title>download</title><g id="Layer_2" data-name="Layer 2"><g id="Слой_1" data-name="Слой 1"><g id="Download"><path class="cls-1" d="M31,22a1.00036,1.00036,0,0,0-1,1v7H2V23a1,1,0,0,0-2,0v8a1.00036,1.00036,0,0,0,1,1H31a1.00036,1.00036,0,0,0,1-1V23A1.00036,1.00036,0,0,0,31,22Z"/><path class="cls-1" d="M15.27,23.707a1.02456,1.02456,0,0,0,1.429,0l6.999-6.9a.99263.99263,0,0,0,0-1.414,1.01584,1.01584,0,0,0-1.428,0l-5.275,5.2V1a1.01005,1.01005,0,0,0-2.02,0V20.593L9.7,15.393a1.01584,1.01584,0,0,0-1.428,0,.99175.99175,0,0,0,0,1.414Z"/></g></g></g></svg>