<svg xmlns="http://www.w3.org/2000/svg" viewBox="0 0 72.277 50.85"><defs><style>.cls-1{fill:#fbb316;stroke:#fff;stroke-miterlimit:10;}</style></defs><title>Asset 1</title><g id="Layer_2" data-name="Layer 2"><g id="Layer_1-2" data-name="Layer 1"><g id="Layer_6" data-name="Layer 6"><polygon class="cls-1" points="67.881 5.393 36.112 23.924 4.961 5.402 1.485 10.025 36.038 30.57 71.316 10.043 67.881 5.393"/><path class="cls-1" d="M65.44,50.35H6.837C3.344,50.35.5,47.241.5,43.418V7.432C.5,3.611,3.344.5,6.837.5H65.44c3.494,0,6.337,3.11,6.337,6.932V43.418C71.777,47.24,68.934,50.35,65.44,50.35ZM6.837,6.651a1.11492,1.11492,0,0,0-1.169.78V43.417a1.11492,1.11492,0,0,0,1.169.78H65.44a1.11492,1.11492,0,0,0,1.169-.78V7.432a1.11492,1.11492,0,0,0-1.169-.78H6.837Z"/></g></g></g></svg>