<svg version="1.1" id="Layer_1" xmlns="http://www.w3.org/2000/svg" xmlns:xlink="http://www.w3.org/1999/xlink" x="0px" y="0px"
viewBox="0 0 249.6 264.3" style="enable-background:new 0 0 249.6 264.3;" xml:space="preserve">
  <title>gx_logo_goldblack</title>
  <path d="M31.7,220.7c0.5,1.3,1.3,2.5,2.4,3.5c25.2,22,64.4,40.1,90.8,40.1s65.6-18.2,90.8-40.1c1.1-0.9,1.9-2.1,2.4-3.5
c18.5-50.9,29-104.4,31.1-158.6c0.3-7.9,0.5-14.9,0.5-21.5c0-5.9-0.1-12-0.4-19.4c-0.1-2.2-1-4.2-2.5-5.8c-5.1-4.9-10.4-9.5-16-13.8
c-1.9-1.5-4.4-2-6.8-1.6c-8.8,1.7-56.9,8.8-99.1,8.8s-90.3-7-99.1-8.8c-2.4-0.5-4.8,0.1-6.8,1.6C13.3,6,8,10.6,2.9,15.5
c-1.6,1.5-2.5,3.6-2.5,5.8C0.1,28.6,0,34.8,0,40.6c0,6.5,0.2,13.6,0.5,21.5C2.6,116.3,13.1,169.8,31.7,220.7z M35.1,136.2
c5.9-18.6,34.9-11,48.2-7.7c18.9,4.6,33.2,15.7,23.1,36c0.4-0.7,0.5-0.9-0.4,0.7s-0.8,1.4-0.4,0.8c-9.9,17.6-25.9,19.8-43.9,12.7
C44.7,172,28.9,156.8,35.1,136.2z M188.5,178.7c-18,7.1-34,4.9-43.9-12.7c0.3,0.6,0.4,0.8-0.4-0.8s-0.7-1.4-0.4-0.7
c-10.1-20.3,4.3-31.3,23.1-36c13.3-3.3,42.3-10.9,48.2,7.7C221.5,156.8,205.6,172,188.5,178.7L188.5,178.7z"/>
</svg>