<svg xmlns="http://www.w3.org/2000/svg" xmlns:xlink="http://www.w3.org/1999/xlink" viewBox="0 0 92.98 81.58"><defs><clipPath id="clip-path" transform="translate(0 0)"><rect width="92.98" height="81.58" fill="none"/></clipPath></defs><title>Asset 1</title><g id="Layer_2" data-name="Layer 2"><g id="Layer_1-2" data-name="Layer 1"><g clip-path="url(#clip-path)"><path d="M31.15,47.84l-.83,1.26a4,4,0,0,1-2.38-2.18,1.17,1.17,0,0,1,.23-1.43,1.21,1.21,0,0,1,1.31,0,1.6,1.6,0,0,1,.34.31,1.26,1.26,0,0,1,1.77-.73.88.88,0,0,1,.32.48,3,3,0,0,1-.76,2.3M47.63,62.43a16.44,16.44,0,0,1-14.37-9.52c2.93-3.76,3.85-8.1,2.59-11.45-.94-2.5-7-2.85-12.12,1.54l-.23.06.75,28.6,7.56,0L30.3,60.24A24,24,0,0,0,46.38,71.63,24.31,24.31,0,0,0,72,59.24L61.92,53.63a16.44,16.44,0,0,1-14.29,8.8" transform="translate(0 0)" fill="#54baff"/></g><polygon points="45.83 59.39 45.13 33.12 37.88 37.09 40.05 57.33 45.83 59.39" fill="#54baff"/><g clip-path="url(#clip-path)"><path d="M53.56,42.59a1.13,1.13,0,0,1,1.14.71l.06.14.07-.11a1.6,1.6,0,0,1,.63-.59.77.77,0,0,1,.82.09,1.11,1.11,0,0,1,.26.87,9.83,9.83,0,0,1-2.4,5.55c-.48-1.67-1.41-3.24-1.49-5,0-.69.22-1.55.9-1.67M60.36,39c-.75-6-6.13-8.58-11.89-7.14q.49,13.46,1,26.91C58.21,57.19,61.23,45.91,60.36,39" transform="translate(0 0)" fill="#54baff"/><path d="M65.59,36.5a.82.82,0,0,1-.13-1,1.21,1.21,0,0,1,1.13-.4,1.46,1.46,0,0,1,.62.27,1.22,1.22,0,0,1,.23-.67,1.1,1.1,0,0,1,.69-.47.75.75,0,0,1,.76.34,1.17,1.17,0,0,1,.08.78,4,4,0,0,1-1.12,2.1,2.88,2.88,0,0,1-2.26-1M81,30.63l-7.25-.71c3.52,16-5.34,17.49-7.47,12.93l6.42-5.46c-1.14-5.5-3.87-9.27-5.93-9.13-2.61.17-4.54,6.51-4.5,11.51.05,5.66,2.67,14,7.61,14.66,4.66.6,13-6.33,11.12-23.81" transform="translate(0 0)" fill="#54baff"/></g><polygon points="19.73 55.08 3.25 53.49 2.6 61.32 19.06 58.19 19.73 55.08" fill="#fff"/><polygon points="0 65.22 2.96 73.22 19.04 64.62 18.53 61.49 0 65.22" fill="#fff"/><polygon points="8.34 74.52 11.47 80.73 20.61 70.03 20.04 67.97 8.34 74.52" fill="#fff"/><polygon points="69.76 24.09 71.79 6.86 77.72 7.43 72.58 24.61 69.76 24.09" fill="#fff"/><polygon points="75.51 25.07 83.14 4.13 89.77 8.18 78.73 25.78 75.51 25.07" fill="#fff"/><polygon points="80.83 27 83.17 28.59 92.98 20.28 89.58 15.97 80.83 27" fill="#fff"/><g clip-path="url(#clip-path)"><path d="M56.92,17.94a8,8,0,0,1,1.51-3.65,2.46,2.46,0,0,1,1.46-1,1.12,1.12,0,0,1,1.14.49c.23.51-.1,1.18-.31,1.65a21.61,21.61,0,0,1-1,2,22.15,22.15,0,0,1-3.05,4.13,14.63,14.63,0,0,1,.25-3.6M49.6,21.12a37.31,37.31,0,0,1-1.7,4A16.56,16.56,0,0,1,47,26.66c-.11.17-.23.34-.35.5l-.14.17a1.67,1.67,0,0,1-.56.45c-1.36.62-1.91-1-2.17-2a9.26,9.26,0,0,1-.08-4.29A6.84,6.84,0,0,1,45.41,18a2.39,2.39,0,0,1,2.36-.71c.74.28,1,1.23,1,2a.93.93,0,0,0,1.06.84h0l0,.16-.28.79m1.68-7.51a44.11,44.11,0,0,1,.53-6.47,14.76,14.76,0,0,1,1.29-4.56c.07-.12.14-.24.22-.36l.05-.09.06-.06.15-.14.1-.07.06.25s0,.06,0,.09c0,.22,0,.43,0,.65a20.78,20.78,0,0,1-.27,3.44C53.29,7.87,53,9.45,52.6,11s-.82,3.34-1.31,5q0-1.2,0-2.4M53.94,1.69l-.07,0h0l.08,0M25.3,23.36c-.38-.24-.3-1.11-.28-1.47a8.25,8.25,0,0,1,.91-3.5A8.14,8.14,0,0,1,26.8,17h0s0,.07,0,.08a35.33,35.33,0,0,1-.49,3.83q-.19,1.22-.43,2.43a.71.71,0,0,1-.58,0m1.46-6.77h0M67.12,14c-.08-1.12-1.84-1.13-1.76,0a13.8,13.8,0,0,1-1.55,7.31,10.46,10.46,0,0,1-3.34,4.07l-.37.2H60l-.13,0-.11,0h-.14a2.4,2.4,0,0,1-.87-.2,3.35,3.35,0,0,1-1.69-1.89l.37-.36a24.16,24.16,0,0,0,3-3.73,17,17,0,0,0,2.19-4.29,2.7,2.7,0,0,0-1.93-3.6c-3.46-.73-5.2,3.65-5.61,6.33a15.12,15.12,0,0,0,0,5.09l-.72.61c-.33.26-1,1-1.46.79s-.56-.75-.67-1.1a18.29,18.29,0,0,1-.58-2.78c.72-2,1.32-4.08,1.88-6.14a50.59,50.59,0,0,0,2-10.67A5.51,5.51,0,0,0,55.1.71,1.65,1.65,0,0,0,52.54.51c-1.27,1-1.74,2.88-2.08,4.36a39.61,39.61,0,0,0-.9,7.3c-.06,1.44-.07,2.89,0,4.34a2.94,2.94,0,0,0-.63-.54,3.6,3.6,0,0,0-3.24-.17c-3,1.21-4,5.16-3.94,8.07a1,1,0,0,0-.07.14,38.49,38.49,0,0,1-2.32,5.57,3.61,3.61,0,0,1-.69,1.1c-.17.13,0,.14-.2,0a1.34,1.34,0,0,1-.28-.39,5.58,5.58,0,0,1-.52-2,28.81,28.81,0,0,1-.14-4.43c0-.66,0-1.32.11-2q.28-1.4.51-2.81c.18-1.11-1.51-1.58-1.7-.47l-.08.48a.94.94,0,0,0-.09.22,18.89,18.89,0,0,0-.47,2.86,39.93,39.93,0,0,1-2.48,8.46c-.31.71-.75,2-1.53,2.3s-.52-2.06-.51-2.38a30.93,30.93,0,0,1,.35-4c.19-1.23.61-2.46.71-3.69a2.09,2.09,0,0,0-1.23-2.33,3.24,3.24,0,0,0-2.78,1l-.41.38c0-.29.1-.58.14-.87q.16-1.07.3-2.14a13.86,13.86,0,0,0,.21-2c0-1.18-1-2.44-2.27-1.76A4,4,0,0,0,25,16.49a10,10,0,0,0-1,1.93c-.74,1.81-1.73,6.62,1.43,6.75h.09a72.49,72.49,0,0,1-5.74,16.4c-.5,1,1,1.91,1.52.89a74.43,74.43,0,0,0,5.94-17l.19-.93a9.25,9.25,0,0,0,1.2-.86c.35-.29.64-.64,1-.93a2.56,2.56,0,0,1,.45-.3l.3-.15.2-.07a1.76,1.76,0,0,1,0,.89c-.14.74-.34,1.46-.48,2.2a34.34,34.34,0,0,0-.52,4.55c-.06,1.24-.26,2.85.43,3.95a2.1,2.1,0,0,0,3.3.18,9,9,0,0,0,1.93-3.35c.27-.67.51-1.34.73-2a5.92,5.92,0,0,0,1.06,3,1.88,1.88,0,0,0,2.25.73,3.85,3.85,0,0,0,1.58-1.83,28.16,28.16,0,0,0,1.54-3.35,5.29,5.29,0,0,0,.77,1.37,3,3,0,0,0,4.13.44,9.52,9.52,0,0,0,2.39-3.53q.44-.91.83-1.83c.49,1.61,1.37,3,3.1,2.52a5.8,5.8,0,0,0,2.11-1.32h0a4.86,4.86,0,0,0,2,2.1,3.5,3.5,0,0,0,3.24.19,7.25,7.25,0,0,0,2.1-1.67,15.79,15.79,0,0,0,3.65-7A14.85,14.85,0,0,0,67.12,14" transform="translate(0 0)" fill="#ff5297"/><path d="M19.78,21.16a29.68,29.68,0,0,1-2.51,9.27,17.43,17.43,0,0,1-2.85,4.23,8.43,8.43,0,0,1-3.73,2.61,5.76,5.76,0,0,1-.93.17A77,77,0,0,1,8.6,29.6a78,78,0,0,1-.3-10.52A38.37,38.37,0,0,1,9.55,9.47c.64-2.1,2.5-6.06,5.32-4.92s3.8,4.51,4.45,7.07a26.41,26.41,0,0,1,.47,9.55m1.77-7c-.41-3.28-1.33-7-3.62-9.49a5.83,5.83,0,0,0-3.73-2.05,4.93,4.93,0,0,0-4.14,2.08c-2.13,2.61-2.8,6-3.15,9.3A78.81,78.81,0,0,0,8,37.41,5.81,5.81,0,0,1,3.83,35c-.6-1-2,.05-1.44,1A7.73,7.73,0,0,0,8.33,39.2,78.66,78.66,0,0,0,10.79,48q.46,1.35,1,2.68A.88.88,0,0,0,13.42,50a77.52,77.52,0,0,1-3.29-10.86C13,38.78,15.3,36.62,17,34.33A24.93,24.93,0,0,0,20.9,25a31.72,31.72,0,0,0,.65-10.82" transform="translate(0 0)" fill="#ff5297"/><path d="M37.62,15.48a8.23,8.23,0,0,0,2.23-1.88,2.68,2.68,0,0,0,.71-1.45,1.17,1.17,0,0,0-.81-1.26,1.65,1.65,0,0,0-1.43.72A4.52,4.52,0,0,0,38,12c0-.21-.1-.43-.16-.64-.16-.56-.43-1.18-1-1.33a1.17,1.17,0,0,0-1.28.67,2.28,2.28,0,0,0-.07,1.54,7,7,0,0,0,2.12,3.23" transform="translate(0 0)" fill="#ff5297"/><path d="M23.38,75.16A1.26,1.26,0,0,0,22,76.43v2.89a1.26,1.26,0,0,0,1.36,1.27.92.92,0,0,0,.82-.4s.2.4.3.4h.16c.07,0,.08-.11.08-.14V78c0-.18-.15-.22-.73-.22s-.67,0-.67.13v.46c0,.06,0,.08.12.08s.11,0,.11.11v.7s0,.22-.19.22-.19-.25-.19-.47V76.75c0-.22,0-.47.19-.47s.19.18.19.22V77c0,.1.16.08.51.08.58,0,.65,0,.65-.11v-.5a1.23,1.23,0,0,0-1.36-1.27" transform="translate(0 0)" fill="#ff5297"/><path d="M26.91,76.75v.32c0,.09,0,.26-.19.26s-.16,0-.16-.09v-.86c0-.1,0-.09.16-.09s.19.25.19.47m.59,1.09a.77.77,0,0,0,.57-.78v-.62a1.23,1.23,0,0,0-1.36-1.28H25.62c-.23,0-.23,0-.23.23v5c0,.24.08.23.54.23s.63,0,.63-.17v-2c0-.1,0-.09.19-.09s.2.25.2.47v1.6c0,.16,0,.15.57.15s.59,0,.59-.12v-2a.62.62,0,0,0-.61-.65" transform="translate(0 0)" fill="#ff5297"/><path d="M29.37,75.17c-.55,0-.56,0-.56.14v5.17c0,.11,0,.12.56.12s.61,0,.61-.13V75.31c0-.14,0-.15-.61-.15" transform="translate(0 0)" fill="#ff5297"/><path d="M33.14,75.17c-.55,0-.56,0-.56.14v1.92c0,.12,0,.32-.06.32s-.08-.13-.11-.21c-.23-.69-.54-1.72-.62-2,0-.14-.07-.15-.51-.15s-.53,0-.53.14v5.17c0,.11,0,.12.53.12s.61,0,.61-.13v-2c0-.16,0-.39.06-.39s.12.21.16.34c.29,1,.35,1.26.64,2.08,0,.13.12.12.4.12.6,0,.57,0,.57-.13V75.31c0-.14,0-.15-.57-.15" transform="translate(0 0)" fill="#ff5297"/><path d="M35.85,79.47c-.2,0-.19,0-.19-.09v-3c0-.1,0-.09.19-.09s.19.25.19.47V79c0,.22,0,.47-.19.47m0-4.31H34.73c-.22,0-.23,0-.23.23v5c0,.24,0,.23.23.23h1.13a1.23,1.23,0,0,0,1.36-1.27V76.43a1.23,1.23,0,0,0-1.36-1.27" transform="translate(0 0)" fill="#ff5297"/><path d="M39.4,76.75v.32c0,.09,0,.26-.2.26s-.16,0-.16-.09v-.86c0-.1,0-.09.16-.09s.2.25.2.47M40,77.84a.77.77,0,0,0,.57-.78v-.62a1.23,1.23,0,0,0-1.36-1.28H38.11c-.23,0-.23,0-.23.23v5c0,.24.08.23.54.23s.63,0,.63-.17v-2c0-.1,0-.09.19-.09s.19.25.19.47v1.6c0,.16,0,.15.58.15s.59,0,.59-.12v-2a.62.62,0,0,0-.61-.65" transform="translate(0 0)" fill="#ff5297"/><path d="M43.46,75.16H41.53c-.08,0-.13,0-.18.06a.2.2,0,0,0-.06.17v5.06c0,.16,0,.15.51.15s.66,0,.66-.15V78.65c0-.1,0-.18.05-.23a.62.62,0,0,1,.19,0h.35c.1,0,.09,0,.09-.53s0-.55-.09-.55h-.38a.27.27,0,0,1-.17,0c-.06,0,0-.13,0-.2v-.66c0-.1,0-.09,0-.15s.12,0,.18,0h.78c.1,0,.1,0,.1-.59s0-.5-.09-.5" transform="translate(0 0)" fill="#ff5297"/><path d="M45.53,79c0,.22,0,.47-.19.47s-.19-.25-.19-.47V76.75c0-.22,0-.47.19-.47s.19.25.19.47c0,.88,0,1.37,0,2.25m-.19-3.85A1.26,1.26,0,0,0,44,76.43v2.89a1.26,1.26,0,0,0,1.36,1.27,1.23,1.23,0,0,0,1.36-1.27V76.43a1.23,1.23,0,0,0-1.36-1.27" transform="translate(0 0)" fill="#ff5297"/><path d="M48.88,76.75v.32c0,.09,0,.26-.2.26s-.16,0-.16-.09v-.86c0-.1,0-.09.16-.09s.2.25.2.47m.59,1.09a.77.77,0,0,0,.57-.78v-.62a1.23,1.23,0,0,0-1.36-1.28H47.59c-.23,0-.23,0-.23.23v5c0,.24.08.23.54.23s.63,0,.63-.17v-2c0-.1,0-.09.19-.09s.19.25.19.47v1.6c0,.16,0,.15.58.15s.59,0,.59-.12v-2a.62.62,0,0,0-.61-.65" transform="translate(0 0)" fill="#ff5297"/><path d="M52.95,79.51h-.74a.63.63,0,0,1-.23,0s0-.17,0-.27v-.64c0-.1,0-.18.05-.22a.58.58,0,0,1,.19,0h.35c.1,0,.09,0,.09-.53s0-.55-.09-.55h-.38a.26.26,0,0,1-.17,0c-.06,0,0-.13,0-.2v-.57c0-.1,0-.09,0-.15s.12,0,.18,0h.78c.1,0,.1,0,.1-.59s0-.5-.09-.5H51c-.08,0-.13,0-.18.06a.2.2,0,0,0-.05.17V80.3c0,.09,0,.21,0,.26s.19,0,.31,0H53c.08,0,.09,0,.09-.57s0-.52-.1-.52" transform="translate(0 0)" fill="#ff5297"/><path d="M55.09,79c0,.22,0,.47-.19.47s-.19-.25-.19-.47V76.75c0-.22,0-.47.19-.47s.19.25.19.47c0,.88,0,1.37,0,2.25m-.19-3.85a1.26,1.26,0,0,0-1.36,1.27v2.89a1.18,1.18,0,0,0,.62,1.1.24.24,0,0,1,.16.23c0,.85.78.93,1.36.93H56c.1,0,.09-.17.09-.36s0-.39-.12-.39c-.4,0-.45,0-.45-.27,0-.05.06-.09.13-.12a1.17,1.17,0,0,0,.65-1.12V76.43a1.23,1.23,0,0,0-1.36-1.27" transform="translate(0 0)" fill="#ff5297"/><path d="M58.93,75.16c-.51,0-.54,0-.54.16,0,.88,0,2.81,0,3.69,0,.22,0,.47-.19.47S58,79.22,58,79V75.31c0-.16-.08-.16-.54-.16-.61,0-.63,0-.63.16v4A1.26,1.26,0,0,0,58.2,80.6a1.23,1.23,0,0,0,1.36-1.27v-4c0-.12,0-.16-.63-.16" transform="translate(0 0)" fill="#ff5297"/><path d="M61.4,78.65c-.13,0-.15,0-.15-.06,0-.47.05-.71.08-1.27,0,0,0-.37.07-.37s.08.3.08.33c0,.61.06.85.08,1.31,0,.08-.06.05-.17.05m0-3.5c-.17,0-.58,0-.59.12-.29,2-.49,3.22-.82,5.26,0,.07.44.07.56.07s.52,0,.53-.08c0-.45.06-.64.11-1.07,0-.08.09-.06.23-.06s.19,0,.2.06c.06.43.08.62.15,1.06,0,.11.27.09.5.09s.63,0,.61-.08c-.37-2-.58-3.24-.91-5.23,0-.13-.37-.14-.57-.14" transform="translate(0 0)" fill="#ff5297"/><path d="M65.6,79.51h-.74a.63.63,0,0,1-.23,0s0-.17,0-.27V75.31c0-.13,0-.15-.62-.15s-.54,0-.54.15v5c0,.09,0,.21,0,.26s.19,0,.31,0h1.83c.08,0,.09,0,.09-.57s0-.52-.1-.52" transform="translate(0 0)" fill="#ff5297"/><path d="M66.89,75.17c-.55,0-.56,0-.56.14v5.17c0,.11,0,.12.56.12s.61,0,.61-.13V75.31c0-.14,0-.15-.61-.15" transform="translate(0 0)" fill="#ff5297"/><path d="M70.74,75.16H68.23c-.09,0-.11,0-.11.54s0,.55.14.55h.29a1.43,1.43,0,0,1,.29,0c.07.05.06.19.06.29v4c0,.08,0,.08.55.08s.62,0,.62-.08v-4c0-.1,0-.23.05-.29a1.49,1.49,0,0,1,.29,0h.33c.08,0,.09,0,.09-.59s0-.5-.1-.5" transform="translate(0 0)" fill="#ff5297"/><path d="M73.7,75.17c-.2,0-.57,0-.58.12-.09.7-.14,1.16-.24,1.85,0,0,0,.08,0,.08s0,0,0-.07c-.09-.63-.18-1.18-.27-1.86,0-.12-.39-.12-.63-.12s-.54,0-.52.11c.24.91.48,1.69.74,2.59,0,.17.11.36.12.46a2.8,2.8,0,0,1,0,.38c0,.69,0,1.17,0,1.8,0,.09.46.09.58.09s.58,0,.58-.06V78.69a2.26,2.26,0,0,1,0-.45c0-.12.06-.3.11-.45.28-.91.45-1.59.68-2.51,0-.1-.32-.11-.53-.11" transform="translate(0 0)" fill="#ff5297"/></g></g></g></svg>