<svg xmlns="http://www.w3.org/2000/svg" xmlns:xlink="http://www.w3.org/1999/xlink" viewBox="0 0 295.27 230.91"><defs><linearGradient id="linear-gradient" x1="218.06" y1="166.51" x2="218.06" y2="95.51" gradientUnits="userSpaceOnUse"><stop offset="0" stop-color="#ffe6d6"/><stop offset="0.41" stop-color="#ffd4b7"/><stop offset="0.76" stop-color="#ffc8a4"/><stop offset="1" stop-color="#ffc49d"/></linearGradient><radialGradient id="New_Gradient_Swatch_copy_2" cx="178.64" cy="97.26" r="10.89" gradientUnits="userSpaceOnUse"><stop offset="0" stop-color="#ffe6d6"/><stop offset="0.27" stop-color="#ffe0cc"/><stop offset="0.74" stop-color="#ffcfb0"/><stop offset="1" stop-color="#ffc49d"/></radialGradient><radialGradient id="New_Gradient_Swatch_copy_2-2" cx="220.27" cy="81.43" r="48.86" xlink:href="#New_Gradient_Swatch_copy_2"/><linearGradient id="linear-gradient-2" x1="244.2" y1="74.84" x2="244.2" y2="57.46" gradientUnits="userSpaceOnUse"><stop offset="0" stop-color="#ffc49d" stop-opacity="0"/><stop offset="0.05" stop-color="#fec29b" stop-opacity="0.06"/><stop offset="0.32" stop-color="#fab58f" stop-opacity="0.39"/><stop offset="0.56" stop-color="#f7ab86" stop-opacity="0.65"/><stop offset="0.76" stop-color="#f4a47f" stop-opacity="0.84"/><stop offset="0.91" stop-color="#f3a07b" stop-opacity="0.96"/><stop offset="1" stop-color="#f29e79"/></linearGradient><radialGradient id="radial-gradient" cx="215.24" cy="181.28" r="66.58" gradientUnits="userSpaceOnUse"><stop offset="0" stop-color="#006ed3"/><stop offset="0.07" stop-color="#0976d6" stop-opacity="0.92"/><stop offset="0.53" stop-color="#43a9ec" stop-opacity="0.43"/><stop offset="0.85" stop-color="#68c9fa" stop-opacity="0.12"/><stop offset="1" stop-color="#76d5ff" stop-opacity="0"/></radialGradient><linearGradient id="linear-gradient-3" x1="180.2" y1="164.64" x2="229.47" y2="164.64" gradientUnits="userSpaceOnUse"><stop offset="0" stop-color="#9fffcd"/><stop offset="0.17" stop-color="#9ff6d9" stop-opacity="0.76"/><stop offset="0.46" stop-color="#9fe7ed" stop-opacity="0.36"/><stop offset="0.67" stop-color="#9fdefa" stop-opacity="0.1"/><stop offset="0.76" stop-color="#9fdaff" stop-opacity="0"/></linearGradient><linearGradient id="linear-gradient-4" x1="202.26" y1="136.33" x2="202.26" y2="37.42" xlink:href="#linear-gradient-2"/><radialGradient id="radial-gradient-2" cx="234.33" cy="105.08" r="12.22" gradientTransform="matrix(0.94, -0.35, 0.12, 0.32, 2.01, 152.26)" gradientUnits="userSpaceOnUse"><stop offset="0.66" stop-color="#fff"/><stop offset="0.87" stop-color="#ccc"/></radialGradient><linearGradient id="linear-gradient-5" x1="179.4" y1="88.98" x2="149.5" y2="66.01" gradientUnits="userSpaceOnUse"><stop offset="0" stop-color="#240600"/><stop offset="0.5" stop-color="#260801" stop-opacity="0.94"/><stop offset="0.72" stop-color="#2c0d03" stop-opacity="0.74"/><stop offset="0.89" stop-color="#361607" stop-opacity="0.39"/><stop offset="1" stop-color="#42210b" stop-opacity="0"/></linearGradient><linearGradient id="linear-gradient-6" x1="234.08" y1="65.65" x2="167.94" y2="14.85" xlink:href="#linear-gradient-5"/><linearGradient id="linear-gradient-7" x1="249.92" y1="230.91" x2="249.92" y2="156.04" gradientUnits="userSpaceOnUse"><stop offset="0" stop-color="#fff"/><stop offset="1" stop-color="#e6e6e6"/></linearGradient><linearGradient id="linear-gradient-8" x1="205.82" y1="82.59" x2="205.82" y2="73.41" xlink:href="#linear-gradient-7"/><radialGradient id="New_Gradient_Swatch_copy" cx="235.18" cy="89.09" r="5.11" gradientUnits="userSpaceOnUse"><stop offset="0" stop-color="#fff"/><stop offset="0.16" stop-color="#fff" stop-opacity="0.76"/><stop offset="0.45" stop-color="#fff" stop-opacity="0.36"/><stop offset="0.65" stop-color="#fff" stop-opacity="0.1"/><stop offset="0.75" stop-color="#fff" stop-opacity="0"/></radialGradient><linearGradient id="linear-gradient-9" x1="185.72" y1="78.08" x2="218.14" y2="78.08" xlink:href="#New_Gradient_Swatch_copy"/><linearGradient id="linear-gradient-10" x1="234" y1="64.99" x2="263.89" y2="64.99" xlink:href="#New_Gradient_Swatch_copy"/><linearGradient id="linear-gradient-11" x1="140.26" y1="188.81" x2="180.2" y2="188.81" xlink:href="#New_Gradient_Swatch_copy"/><linearGradient id="linear-gradient-12" x1="238.19" y1="162.16" x2="238.19" y2="134.26" xlink:href="#New_Gradient_Swatch_copy"/><radialGradient id="radial-gradient-3" cx="111.76" cy="115.67" r="86.21" gradientTransform="translate(22.37 218.8) rotate(-84.11) scale(1 0.68)" gradientUnits="userSpaceOnUse"><stop offset="0.1" stop-color="#ed3d95"/><stop offset="0.24" stop-color="#f04ba4" stop-opacity="0.82"/><stop offset="0.62" stop-color="#f66dc7" stop-opacity="0.38"/><stop offset="0.88" stop-color="#f983dd" stop-opacity="0.11"/><stop offset="1" stop-color="#fb8be6" stop-opacity="0"/></radialGradient><linearGradient id="linear-gradient-13" x1="94.69" y1="199.07" x2="94.69" y2="72.13" gradientUnits="userSpaceOnUse"><stop offset="0" stop-color="#ffe6d6"/><stop offset="0.15" stop-color="#ffdec8"/><stop offset="0.52" stop-color="#ffcbaa"/><stop offset="0.74" stop-color="#ffc49e"/><stop offset="1" stop-color="#ffc49d"/></linearGradient><clipPath id="clip-path"><path d="M18.71,58.31s-4.26,25.23-4.26,34c0,0,8.21,7,6.38,15.81s4.26,38,32.22,48.94c0,0,35-16.11,47.42-30.4,0,0,4-20.06,1.82-36.17l-17-24.93L81,48h-7.6l1.22-8.82S43.33,30.65,18.71,58.31Z" fill="none"/></clipPath><linearGradient id="linear-gradient-14" y1="201.15" x2="188.62" y2="201.15" gradientUnits="userSpaceOnUse"><stop offset="0" stop-color="#ffdaae"/><stop offset="0.13" stop-color="#ffd1b7" stop-opacity="0.76"/><stop offset="0.37" stop-color="#ffc3c5" stop-opacity="0.36"/><stop offset="0.54" stop-color="#ffbace" stop-opacity="0.1"/><stop offset="0.62" stop-color="#ffb6d2" stop-opacity="0"/></linearGradient><radialGradient id="radial-gradient-4" cx="76.67" cy="98.74" r="7.21" gradientTransform="translate(42.97 -21.64) rotate(22.19)" gradientUnits="userSpaceOnUse"><stop offset="0" stop-color="#ff6388" stop-opacity="0.6"/><stop offset="0.16" stop-color="#ff678b" stop-opacity="0.58"/><stop offset="0.33" stop-color="#ff7394" stop-opacity="0.54"/><stop offset="0.49" stop-color="#ff87a4" stop-opacity="0.46"/><stop offset="0.65" stop-color="#ffa4ba" stop-opacity="0.35"/><stop offset="0.81" stop-color="#ffc9d5" stop-opacity="0.21"/><stop offset="0.97" stop-color="#fff5f7" stop-opacity="0.04"/><stop offset="1" stop-color="#fff" stop-opacity="0"/></radialGradient><linearGradient id="linear-gradient-15" x1="64.32" y1="97.52" x2="64.32" y2="82.16" gradientUnits="userSpaceOnUse"><stop offset="0.11" stop-color="#ffc49d" stop-opacity="0"/><stop offset="0.15" stop-color="#fec29b" stop-opacity="0.06"/><stop offset="0.39" stop-color="#fab58f" stop-opacity="0.39"/><stop offset="0.6" stop-color="#f7ab86" stop-opacity="0.65"/><stop offset="0.78" stop-color="#f4a47f" stop-opacity="0.84"/><stop offset="0.92" stop-color="#f3a07b" stop-opacity="0.96"/><stop offset="1" stop-color="#f29e79"/></linearGradient><linearGradient id="linear-gradient-16" x1="25.48" y1="107.11" x2="25.48" y2="91.29" xlink:href="#linear-gradient-15"/><radialGradient id="radial-gradient-5" cx="25.64" cy="108.32" r="4.59" gradientTransform="matrix(1, 0, 0, 1, 0, 0)" xlink:href="#radial-gradient-4"/><linearGradient id="linear-gradient-17" x1="26.78" y1="101.2" x2="26.78" y2="95.76" xlink:href="#linear-gradient-7"/><linearGradient id="linear-gradient-18" x1="69.41" y1="80.5" x2="69.41" y2="11.97" gradientUnits="userSpaceOnUse"><stop offset="0" stop-color="#ed3d95" stop-opacity="0"/><stop offset="0.13" stop-color="#ed3d95" stop-opacity="0.11"/><stop offset="0.42" stop-color="#ed3d95" stop-opacity="0.38"/><stop offset="0.84" stop-color="#ed3d95" stop-opacity="0.82"/><stop offset="1" stop-color="#ed3d95"/></linearGradient><linearGradient id="linear-gradient-19" x1="107.34" y1="72.13" x2="107.34" y2="19.57" xlink:href="#New_Gradient_Swatch_copy"/><linearGradient id="linear-gradient-20" x1="146.06" y1="133.31" x2="146.06" y2="81.43" gradientUnits="userSpaceOnUse"><stop offset="0.25" stop-color="#fff" stop-opacity="0"/><stop offset="0.35" stop-color="#fff" stop-opacity="0.1"/><stop offset="0.55" stop-color="#fff" stop-opacity="0.36"/><stop offset="0.84" stop-color="#fff" stop-opacity="0.76"/><stop offset="1" stop-color="#fff"/></linearGradient><linearGradient id="linear-gradient-21" x1="83.96" y1="99.2" x2="83.96" y2="52" xlink:href="#linear-gradient-15"/><linearGradient id="linear-gradient-22" x1="117.45" y1="72.14" x2="117.45" y2="72.14" xlink:href="#linear-gradient-15"/><radialGradient id="New_Gradient_Swatch_copy-2" cx="33.8" cy="111.14" r="4.03" gradientTransform="translate(0 32.52) scale(1 0.71)" xlink:href="#New_Gradient_Swatch_copy"/><linearGradient id="linear-gradient-23" x1="25.83" y1="86.3" x2="25.83" y2="56.24" gradientUnits="userSpaceOnUse"><stop offset="0.25" stop-color="#fff" stop-opacity="0"/><stop offset="0.43" stop-color="#fff" stop-opacity="0.1"/><stop offset="0.8" stop-color="#fff" stop-opacity="0.35"/><stop offset="1" stop-color="#fff" stop-opacity="0.5"/></linearGradient><linearGradient id="linear-gradient-24" x1="117.85" y1="187.23" x2="117.85" y2="123.21" gradientUnits="userSpaceOnUse"><stop offset="0.25" stop-color="#fff" stop-opacity="0"/><stop offset="0.37" stop-color="#fff" stop-opacity="0.1"/><stop offset="0.61" stop-color="#fff" stop-opacity="0.36"/><stop offset="0.97" stop-color="#fff" stop-opacity="0.76"/><stop offset="1" stop-color="#fff" stop-opacity="0.8"/></linearGradient><linearGradient id="linear-gradient-25" x1="27.45" y1="230.91" x2="27.45" y2="181.97" xlink:href="#linear-gradient-24"/><radialGradient id="New_Gradient_Swatch_copy_2-3" cx="176.05" cy="155.78" r="41.76" gradientTransform="translate(94.23 314.51) rotate(-72.39) scale(1 0.19)" xlink:href="#New_Gradient_Swatch_copy_2"/><radialGradient id="New_Gradient_Swatch_copy_2-4" cx="720.63" cy="89.49" r="12.87" gradientTransform="matrix(0.4, -0.9, 0.26, 0.13, -121.52, 836.53)" xlink:href="#New_Gradient_Swatch_copy_2"/><radialGradient id="New_Gradient_Swatch_copy_2-5" cx="711.07" cy="85.21" r="12.87" gradientTransform="matrix(0.43, -0.89, 0.35, 0.19, -155.12, 804.02)" xlink:href="#New_Gradient_Swatch_copy_2"/><radialGradient id="New_Gradient_Swatch_copy_2-6" cx="678.5" cy="91.94" r="21.18" gradientTransform="matrix(-0.04, 1, -0.37, -0.02, 209.3, -490.57)" xlink:href="#New_Gradient_Swatch_copy_2"/></defs><title>Asset 2</title><g id="Layer_2" data-name="Layer 2"><g id="Layer_2-2" data-name="Layer 2"><path d="M182.26,87.16,196,113.85l-7.41,15.37s-12.45,3.8-13-3.88c0,0-6.22.33-3.7-6.2,0,0-10.67-1.45-8.15-7.39,0,0-18.67-8.31-3.85-20.17C159.82,91.58,175.65,81,182.26,87.16Z" fill="#42210b"/><path d="M255.33,37.42s11.1,3.4,6.85,23c0,0,6.61,5.63-2.24,9.19,0,0,3.46,11.7-4.62,11.78l-12.23-25Z" fill="#42210b"/><path d="M192.87,101.36s-2.22,26.08-4.3,31.12c0,0,8.3,31.12,33.19,33.49S247,162.12,247,162.12s-3.7-43.86-5.19-45.64,5.78-.89,5.78-.89S216,82.39,192.87,101.36Z" stroke="#f29e79" stroke-miterlimit="10" stroke-width="0.89" fill="url(#linear-gradient)"/><path d="M188.57,106.1s-8,10.08-17.19-7.11,8.12-13.87,10.88-11.83Z" fill="url(#New_Gradient_Swatch_copy_2)"/><path d="M249.62,45.64l3.56,20.45s11.26,28.75,8.59,40.6c0,0-6.52,19.86-8.3,21.64s-22.82,8.59-27.56,8-26.67-4.74-37.34-30.23L180.86,83s-7.41-36.75,3.26-40C184.12,43,234.51,4.15,249.62,45.64Z" stroke="#f29e79" stroke-miterlimit="10" stroke-width="0.89" fill="url(#New_Gradient_Swatch_copy_2-2)"/><path d="M234,64s8.07-10,17.52-5.23l1.64,7.36,1.94,5.41-18.39,3.33S231.37,69.14,234,64Z" fill="url(#linear-gradient-2)"/><path d="M229.47,166.51l-16.54,29.26S182,145.2,185.06,131.65l-4.86,7.05s-45.19,29.79-45,92.21h160s-13-55.16-16.6-61.68l-32.81-19.46,1.1,12.35S241.62,168.53,229.47,166.51Z" fill="#b6ecff"/><path d="M229.47,166.51l-16.54,29.26S182,145.2,185.06,131.65l-4.86,7.05s-45.19,29.79-45,92.21h160s-13-55.16-16.6-61.68l-32.81-19.46,1.1,12.35S241.62,168.53,229.47,166.51Z" fill="url(#radial-gradient)"/><path d="M188.57,129.22s7.41,27.16,40.9,37.29l-19,33.54s-35.57-41.3-29.64-65.5Z" fill="#76d5ff"/><path d="M188.57,129.22s7.41,27.16,40.9,37.29l-19,33.54s-35.57-41.3-29.64-65.5Z" fill="url(#linear-gradient-3)"/><path d="M192.47,37.42a21.94,21.94,0,0,0-13.82,18.15s-3.26,70.39,47.27,80.76L190.65,96.8l-5.33-19.44,8.89-14.23Z" fill="url(#linear-gradient-4)"/><path d="M192,110.66a70.6,70.6,0,0,0,33.94,25.68l18.2-4.68,1.74,18.12S203.24,147.41,192,110.66Z" fill="#f29e79"/><path d="M185.31,102.84s-6.67-6.82-4-11c0,0-6.7-6.7-9.48-2.67,0,0,6.67-.15,6.74,3.7,0,0-.67,6.52,3.48,9,0,0-4.3,2.37-6.22-.74C175.83,101.21,177,107.44,185.31,102.84Z" fill="#f29e79"/><path d="M217.61,105.49s7.69-.4,9.31-1.58,6.59-1.71,6.59-1.71a12.36,12.36,0,0,1,10.68-2.93,5.7,5.7,0,0,0,3.36-2.19S242.91,113.15,217.61,105.49Z" fill="#1a1a1a"/><path d="M224,104.8,223.8,107s13.26,3.84,20.84-5.1l-.45-2.61s-5.21-2.18-10.68,2.93A24.18,24.18,0,0,0,224,104.8Z" fill="url(#radial-gradient-2)"/><path d="M223.8,110.66s13.69,6,22.05-4.85C245.86,105.81,238.88,120,223.8,110.66Z" fill="#f29e79"/><path d="M169.39,94.44s5.92,5.09,10.81,1.78c0,0,.44,6,3.78,2.59l2.67,2.1L185.31,89.8s1.6-6.62.8-9.53c0,0,1.65,5.09,3.42,3.75,0,0,3.1,1.48,2.44,2.85,0,0,3.11-1.07,0-3.74,0,0,1.41-4.45-3.4-7.56,0,0,3.84-14.72-2.15-20.67,0,0,4.89,1.78,3.78-6.89,0,0,2.22,9.34,5.33,10.45,0,0-2.12,10.67,6.72,4,0,0-5.39,1.11-2.5-4.22,0,0,4.89-5.11-3.56-6.89,0,0,8.33-1.78,6.06-9.11,0,0,5.95,3.56,5.28,7.11,0,0-2.89,5.33,1.11,6.22,0,0,7.78-1.33,5.56,4.22,0,0,5.34-3.56-1.33-8.89,0,0,9.13-5.06,3.36-13.49,0,0,5.38-4.07,9.68-2.07s-4.82,8.89,5,11.11,5.56,5.78,5.56,5.78,8.24-4.46-.67-8.89,2.67-9.78,2.67-9.78-1.78,6.67,4.89,7.78c0,0,6.65,6.3,7.79,12.89l2.06,11.86,2.7,7.52s3-5.82,1-9.82c0,0-2.89-5.11-1.56-6.22,0,0,1.11,4.22,4,3.56,0,0-2.22-3.78,0-6.45S256.22,46,256.22,46s5.56-3.63-.89-8.6c0,0,8.89-4.52,2-7.85s.44-6.45-8.67-6,6.67-17.12-7.78-12.23.52-16.67-17.08-5.56-5.15-17.56-24.71,2.67c0,0-3.56-10.89-12.23-2.22s-5.56-7.78-12.45,4.22c0,0-9.17.22-5,11.11,0,0-26.31.22-16.31,25.34,0,0-7.78,11.11,0,13.78,0,0-18.89,14.45-6,23.56,0,0-.67,12.45,12.89,10.23,0,0-5,10.21,6.22,11.34,0,0,3.8,3.48,6.89,1.75,0,0,5.78-.54,4,4.19,0,0,3.78-.39,3.11-3.17C180.2,108.58,171.83,103.31,169.39,94.44Z" fill="#42210b"/><path d="M177.09,70.42a3.21,3.21,0,0,1,2.75-.83,5.5,5.5,0,0,1,2.77,1.68,14.85,14.85,0,0,1,2.23,3A13.94,13.94,0,0,0,183,70.76a6.49,6.49,0,0,0-2.95-2.39,4.15,4.15,0,0,0-3.68.61,8.12,8.12,0,0,0-1.49,1.31l-.43.5a8.3,8.3,0,0,0-1.82.2,7.22,7.22,0,0,0-2,.78,4.92,4.92,0,0,0-1-2.68A3.18,3.18,0,0,0,167.06,68a6.21,6.21,0,0,0-1.49.26l-.48.16a6.37,6.37,0,0,0-1.27-.6,5.37,5.37,0,0,0-3.06-.12,7.3,7.3,0,0,0-2.93,1.66l-.62.57q-.31-.14-.64-.26c0-.12,0-.23,0-.35a4.79,4.79,0,0,0-.5-2.29,5.46,5.46,0,0,0-1.53-1.85,5.67,5.67,0,0,0-2-1,2.66,2.66,0,0,0-1.08-.1.7.7,0,0,0-.51.3.79.79,0,0,0,0,.7l.34-.11c0-.14-.06-.24,0-.3a.41.41,0,0,1,.29-.13,2.33,2.33,0,0,1,.9.13,5.43,5.43,0,0,1,1.76,1,4.64,4.64,0,0,1,1.26,1.61,3.88,3.88,0,0,1,.35,1.9c0,.1,0,.2-.05.3l-.31-.08a12.33,12.33,0,0,0-2.75-.24,8.42,8.42,0,0,0-2.09.3,6.15,6.15,0,0,0-.57-.29,3.88,3.88,0,0,0-2.31-.34,1.83,1.83,0,0,0-.58.24,1.32,1.32,0,0,0-.26.24,1.1,1.1,0,0,0-.18.32,2.51,2.51,0,0,0-.16,1.27,4.08,4.08,0,0,0,.32,1.1,7.69,7.69,0,0,0-1.21,2.57s0,.09,0,.14a2.54,2.54,0,0,0-.77,1.91,4.62,4.62,0,0,0,0,.63,5,5,0,0,0,.15.65,3.92,3.92,0,0,0,.67,1.26,4.37,4.37,0,0,0,1,.9,5,5,0,0,0,1.14.5,5.94,5.94,0,0,0,2.2.23,6.49,6.49,0,0,0,2-.46,3.55,3.55,0,0,1-.1.48,1.78,1.78,0,0,1-1,1.25,3,3,0,0,1-1.79.12,8.2,8.2,0,0,1-2-.63,7.69,7.69,0,0,0,1.94,1,3.59,3.59,0,0,0,2.09.14,2.3,2.3,0,0,0,1.46-1.45,4.49,4.49,0,0,0,.25-1.06c0-.12,0-.24,0-.36l.29-.23a4.49,4.49,0,0,0,.67,1.59,2.53,2.53,0,0,0,.62.6,1.82,1.82,0,0,0,.45.2,1.52,1.52,0,0,0,.51.05,3.48,3.48,0,0,0,1.71-.5,6.46,6.46,0,0,0,2.38-2.66A8.14,8.14,0,0,0,160.4,77q.06.39.16.77a5.06,5.06,0,0,0,1,2l-.36.22a10.89,10.89,0,0,0-2.84,2.6,8.68,8.68,0,0,0-1.65,3.92,9.9,9.9,0,0,0,.33,4.34,10.27,10.27,0,0,0,1.89,3.62,4.82,4.82,0,0,0,1.49,1.27,1.27,1.27,0,0,0,1.06.09,1.43,1.43,0,0,0,.7-1.06l-.63-.19c-.07.25-.17.42-.3.46a.73.73,0,0,1-.56-.12,4.22,4.22,0,0,1-1.18-1.14A9.84,9.84,0,0,1,158,90.47a8.41,8.41,0,0,1-.18-3.69,7,7,0,0,1,1.47-3.18,10.44,10.44,0,0,1,3.82-2.82,3.7,3.7,0,0,0,2.46-.24,5,5,0,0,0,.7-.36,16.81,16.81,0,0,0,0,5.29,12.27,12.27,0,0,0,1.51,4.16,7,7,0,0,0,3.05,2.91,3.3,3.3,0,0,0,1.11.25,2.38,2.38,0,0,0,.64-.08,2,2,0,0,0,.6-.29,4.55,4.55,0,0,0,1.56-1.72,8.47,8.47,0,0,0,.85-4.6,10.67,10.67,0,0,0-.5-2.52c.22.26.45.51.7.75a5.77,5.77,0,0,0,3.66,1.76A4.39,4.39,0,0,0,183.19,84a8.36,8.36,0,0,0,.6-1,9,9,0,0,0,.46-1.13,7.11,7.11,0,0,0,.32-2.56,7.93,7.93,0,0,0-.6-2.43A9,9,0,0,0,182.82,75a10.75,10.75,0,0,0-3-2.64A11.72,11.72,0,0,0,176.45,71,6.43,6.43,0,0,1,177.09,70.42Zm-8-.63a4.21,4.21,0,0,1,1.14,2.2V72a6.73,6.73,0,0,0-1.08.89,6.94,6.94,0,0,0-.47.57A8.61,8.61,0,0,0,168,71.6a9,9,0,0,0-1.66-2.23,4.91,4.91,0,0,1,.66-.14A2.46,2.46,0,0,1,169.08,69.78Zm-15.85,7.86a3.05,3.05,0,0,1-.34.47,5.39,5.39,0,0,0-.69-1.44,6.21,6.21,0,0,0-1.49-1.5,3.92,3.92,0,0,0,1.14.09,3.79,3.79,0,0,0,1.51-.43l0,.09a5,5,0,0,1,.18.74A9.21,9.21,0,0,0,153.24,77.65ZM150,70.74l.35-.11a5.63,5.63,0,0,1,1,.78,8,8,0,0,1,1.6,2.44,3.08,3.08,0,0,1-1.36.39,4,4,0,0,1-3.2-1.62A3.79,3.79,0,0,1,148,72,5.32,5.32,0,0,1,150,70.74Zm5-.07.39.11a8.22,8.22,0,0,1-1,1.76,5.76,5.76,0,0,1-.57.64,9.37,9.37,0,0,0-1.8-2.61l-.22-.2A10.89,10.89,0,0,1,155.08,70.67Zm-7.3-.4a.22.22,0,0,1,.05-.09l.08-.07a1,1,0,0,1,.29-.11,2.33,2.33,0,0,1,.95.06,6.73,6.73,0,0,0-1.44,1.07s0-.09,0-.13A1.39,1.39,0,0,1,147.79,70.27Zm-.08,3a5.88,5.88,0,0,0,1,1l-.55-.12a3.72,3.72,0,0,0-1.53.08,6.55,6.55,0,0,1,.72-1.4A5.54,5.54,0,0,0,147.7,73.26Zm2.16,6.21a4.75,4.75,0,0,1-1.76-.18,3.45,3.45,0,0,1-.78-.33l-.12-.14,0,0a2.69,2.69,0,0,1-.49-.44,2.4,2.4,0,0,1-.5-1.53,1.34,1.34,0,0,1,.57-1.22,2.28,2.28,0,0,1,1.5-.25A4.6,4.6,0,0,1,150,76a4.83,4.83,0,0,1,1.43,1.25,4,4,0,0,1,.69,1.51A5.08,5.08,0,0,1,149.86,79.48Zm8.67-1.18a4.55,4.55,0,0,1-1.67,1.85,1.92,1.92,0,0,1-1,.27.3.3,0,0,1-.15,0l-.13-.06a1.39,1.39,0,0,1-.29-.31,4,4,0,0,1-.52-2.23,7.48,7.48,0,0,1,.57-2.59,11,11,0,0,1,2.22-3.38,4.26,4.26,0,0,1,1.25,1.51A5.6,5.6,0,0,1,158.52,78.3Zm.09-7.48.1-.09a5.3,5.3,0,0,1,2.15-1.22,3.86,3.86,0,0,1,2.17.1,7.46,7.46,0,0,0-1.45,1.67A8.6,8.6,0,0,0,160.5,74,5.43,5.43,0,0,0,160,72.5,5.24,5.24,0,0,0,158.62,70.82Zm4.68,8A3.16,3.16,0,0,1,162.15,77,6.36,6.36,0,0,1,162,74.5a6.69,6.69,0,0,1,.8-2.5,5.47,5.47,0,0,1,1.56-1.71,7.06,7.06,0,0,1,2.09,2.44,6.57,6.57,0,0,1,.74,2.33,4.87,4.87,0,0,1,0,1.21c0,.06,0,.12,0,.19s-.09.23-.12.34-.09.31-.14.47l0,.1a3.08,3.08,0,0,1-.37.53,10.8,10.8,0,0,0-2,.5c-.36.12-.71.27-1.05.43Zm9.94,10.71a2.51,2.51,0,0,1-.91,1,.39.39,0,0,1-.17.08.92.92,0,0,1-.19,0,1.82,1.82,0,0,1-.53-.14,5.16,5.16,0,0,1-2.1-2.14A9.8,9.8,0,0,1,168.2,85a14.43,14.43,0,0,1,.18-5.29,5.56,5.56,0,0,1,2.42.84,7.33,7.33,0,0,1,3,5.74A6,6,0,0,1,173.23,89.48Zm-1.69-10.68a6.84,6.84,0,0,0-2.67-.95l.05-.17a6.94,6.94,0,0,1,1.57-2.82A5,5,0,0,1,173,73.5a9.77,9.77,0,0,0-.49,2.85,11.27,11.27,0,0,0,.64,3.77A7.1,7.1,0,0,0,171.54,78.81Zm9.75-2a6.37,6.37,0,0,1,.82,1.35,5,5,0,0,1,.37,1.45,4.36,4.36,0,0,1-.87,2.79,2.42,2.42,0,0,1-2.12,1.2A4.13,4.13,0,0,1,177,82.37a8.32,8.32,0,0,1-1.89-2.69,8.77,8.77,0,0,1-.81-3.34,7.16,7.16,0,0,1,.58-3,9.22,9.22,0,0,1,4,1.3A8.59,8.59,0,0,1,181.29,76.77Z" opacity="0.73" fill="url(#linear-gradient-5)"/><path d="M258.64,30.2a.7.7,0,0,0-.44-.4.79.79,0,0,0-.67.23l.21.29c.12-.09.21-.12.29-.1s.15.12.21.24a2.33,2.33,0,0,1,.14.9,5.43,5.43,0,0,1-.43,2A4.64,4.64,0,0,1,256.79,35a3.88,3.88,0,0,1-1.71.9,6.54,6.54,0,0,1-3.62-.34,5.75,5.75,0,0,1-.78-.35,9.37,9.37,0,0,0,2-2.49,6.77,6.77,0,0,0,.74-2.33,3.88,3.88,0,0,0-.36-2.3,1.83,1.83,0,0,0-.4-.48,1.32,1.32,0,0,0-.31-.18,1.1,1.1,0,0,0-.36-.08,2.51,2.51,0,0,0-1.26.23,4.67,4.67,0,0,0-1.92,1.73,5.88,5.88,0,0,0-.63,1.27c0-.19,0-.38-.05-.56a3.65,3.65,0,0,0-.57-1.51,5.16,5.16,0,0,0,0-.81,2.66,2.66,0,0,0-.23-1.06.7.7,0,0,0-.44-.4.79.79,0,0,0-.67.23l.21.29c.12-.09.21-.12.29-.1s.15.12.21.24a2.33,2.33,0,0,1,.14.9c0,.07,0,.14,0,.2a2.44,2.44,0,0,0-2.33-.35,4.62,4.62,0,0,0-.59.23,5,5,0,0,0-.58.34,3.92,3.92,0,0,0-1,1A4.37,4.37,0,0,0,242,30.5a5,5,0,0,0-.14,1.23,5.57,5.57,0,0,0,.05.71,7.81,7.81,0,0,1-1.25-.27c0-.26,0-.51.06-.78-.08.24-.13.49-.18.74l-.39-.12a5.75,5.75,0,0,1-.78-.35,9.37,9.37,0,0,0,2-2.49,6.77,6.77,0,0,0,.74-2.33,3.88,3.88,0,0,0-.36-2.3,1.83,1.83,0,0,0-.4-.48,1.32,1.32,0,0,0-.31-.18,1.1,1.1,0,0,0-.36-.08,2.3,2.3,0,0,0-.57,0,6.8,6.8,0,0,0,.69-.57,7.55,7.55,0,0,0,1.82-2.78,7.84,7.84,0,0,0,.54-3.07,3.68,3.68,0,0,0-.32-1.47,1,1,0,0,0-.6-.55,1.09,1.09,0,0,0-.92.31l.29.41c.16-.12.3-.17.4-.14s.21.17.29.34a3.23,3.23,0,0,1,.19,1.24,7.51,7.51,0,0,1-.59,2.73,6.42,6.42,0,0,1-1.61,2.32,5.37,5.37,0,0,1-2.37,1.24,9,9,0,0,1-5-.47,8,8,0,0,1-1.06-.48,13,13,0,0,0,2.7-3.45,9.37,9.37,0,0,0,1-3.22A5.37,5.37,0,0,0,235,13a2.53,2.53,0,0,0-.56-.67,1.82,1.82,0,0,0-.43-.25,1.52,1.52,0,0,0-.5-.11,3.48,3.48,0,0,0-1.75.32,6.46,6.46,0,0,0-2.66,2.39,8.14,8.14,0,0,0-.87,1.76c0-.26,0-.52-.07-.78a4.42,4.42,0,0,0-1.4-2.77,3.37,3.37,0,0,0-3.25-.5,6.4,6.4,0,0,0-.82.31,6.87,6.87,0,0,0-.8.47,5.43,5.43,0,0,0-1.39,1.4,6,6,0,0,0-.77,1.75,6.85,6.85,0,0,0-.2,1.71,8.23,8.23,0,0,0,.6,3,9.6,9.6,0,0,0,.82,1.59,5.79,5.79,0,0,0-1.09.75,2.22,2.22,0,0,1-1.05-.65,4.21,4.21,0,0,1-.89-2.31,11.35,11.35,0,0,1,0-2.85,10.64,10.64,0,0,0-.51,3,5,5,0,0,0,.68,2.82,2.81,2.81,0,0,0,.94.86,7.64,7.64,0,0,0-.47.64,8.14,8.14,0,0,0-.87,1.76c0-.26,0-.52-.07-.78a4.42,4.42,0,0,0-1.4-2.77,3.37,3.37,0,0,0-3.25-.5,6.4,6.4,0,0,0-.82.31,6.86,6.86,0,0,0-.8.47A5.36,5.36,0,0,0,210,24.69a19.33,19.33,0,0,0,1.8-6.52,11.1,11.1,0,0,0-1.24-6.55,5.22,5.22,0,0,0-1.19-1.34,3.76,3.76,0,0,0-.9-.48,3.13,3.13,0,0,0-1-.19,7.19,7.19,0,0,0-3.59.77,13.38,13.38,0,0,0-5.33,5.12,16.91,16.91,0,0,0-1.68,3.67c0-.53-.11-1.06-.2-1.58A9.12,9.12,0,0,0,193.59,12a7,7,0,0,0-6.74-.81,13.23,13.23,0,0,0-1.67.7l-.93.55a1.5,1.5,0,0,0-.16-.16,1.32,1.32,0,0,0-.31-.18,1.1,1.1,0,0,0-.36-.08,2.51,2.51,0,0,0-1.26.23A4.67,4.67,0,0,0,180.25,14a5.88,5.88,0,0,0-.63,1.27c0-.19,0-.38-.05-.56a3.19,3.19,0,0,0-1-2,2.43,2.43,0,0,0-2.35-.36,4.62,4.62,0,0,0-.59.23,5,5,0,0,0-.58.34,3.92,3.92,0,0,0-1,1,4.37,4.37,0,0,0-.56,1.26,5,5,0,0,0-.14,1.23,5.94,5.94,0,0,0,.43,2.17,6.49,6.49,0,0,0,1,1.73,3.55,3.55,0,0,1-.49,0,1.78,1.78,0,0,1-1.49-.56,3,3,0,0,1-.65-1.67,8.2,8.2,0,0,1,0-2.06,7.69,7.69,0,0,0-.37,2.14,3.59,3.59,0,0,0,.49,2,2.3,2.3,0,0,0,1.82,1,4.49,4.49,0,0,0,1.09-.07l.35-.08a4.6,4.6,0,0,0,.87.53,3.88,3.88,0,0,0,2.19.32,3.82,3.82,0,0,0,.39-.09,10.9,10.9,0,0,0,0,1.29,17,17,0,0,0,1.43,6.16,18.53,18.53,0,0,0,3.07,4.85,10.16,10.16,0,0,1-1.38.18,5.07,5.07,0,0,1-4.3-1.46,5.41,5.41,0,0,1-.62-.78,8.8,8.8,0,0,0-.62-1.5q-.17-.31-.35-.6a13.12,13.12,0,0,1-.41-1.78,2.39,2.39,0,0,1,1.89.57,4.21,4.21,0,0,1,1.14,2.2,11.35,11.35,0,0,1,.28,2.83,10.64,10.64,0,0,0,.19-3,5,5,0,0,0-1-2.74,3.18,3.18,0,0,0-2.65-1.06h0a24.29,24.29,0,0,1,0-4.73A22.6,22.6,0,0,0,174.9,27c-.22,0-.45.09-.66.16l-.48.16a6.37,6.37,0,0,0-1.27-.6,5.37,5.37,0,0,0-3.06-.12,7.3,7.3,0,0,0-2.93,1.66l-.62.57a8.17,8.17,0,0,0-1.69-.55,12.33,12.33,0,0,0-2.75-.24,8.33,8.33,0,0,0-2.89.56,6.63,6.63,0,0,0-2.64,1.9,7.55,7.55,0,0,0-1.51,3,7.84,7.84,0,0,0-.21,3.11,3.68,3.68,0,0,0,.47,1.42,1,1,0,0,0,.66.48,1.09,1.09,0,0,0,.88-.41l-.33-.37c-.15.13-.28.2-.38.18s-.23-.15-.32-.3a3.23,3.23,0,0,1-.32-1.21,7.52,7.52,0,0,1,.3-2.78,6.42,6.42,0,0,1,1.35-2.48,5.37,5.37,0,0,1,2.22-1.49,9,9,0,0,1,5-.07,8,8,0,0,1,1.1.36,13,13,0,0,0-2.31,3.72,9.37,9.37,0,0,0-.67,3.31,5.37,5.37,0,0,0,.84,3.11,2.53,2.53,0,0,0,.62.6,1.82,1.82,0,0,0,.45.2,1.52,1.52,0,0,0,.51.05,3.48,3.48,0,0,0,1.71-.5,6.46,6.46,0,0,0,2.38-2.66,8.14,8.14,0,0,0,.68-1.85q.06.39.16.77a4.42,4.42,0,0,0,1.69,2.61,3.37,3.37,0,0,0,3.28.15,6.39,6.39,0,0,0,.78-.4,6.86,6.86,0,0,0,.75-.55A5.43,5.43,0,0,0,176.94,37a6,6,0,0,0,.55-1.7,6.92,6.92,0,0,0,4.24,1.48h.19l-.11,0a6.4,6.4,0,0,0-.82.31,6.87,6.87,0,0,0-.8.47,5,5,0,0,0-1,.95,1,1,0,0,0-.31.05,1.4,1.4,0,0,0-.77,1l.34.13a6.28,6.28,0,0,0-.39,1,6.85,6.85,0,0,0-.2,1.71,8.23,8.23,0,0,0,.6,3,9,9,0,0,0,1.41,2.39,4.92,4.92,0,0,1-.67.06,2.46,2.46,0,0,1-2.06-.78,4.21,4.21,0,0,1-.89-2.31,11.35,11.35,0,0,1,0-2.85,10.65,10.65,0,0,0-.51,3,5,5,0,0,0,.68,2.82,3.18,3.18,0,0,0,2.52,1.34,6.21,6.21,0,0,0,1.51-.1l.5-.1.31.22a6.61,6.61,0,0,1-1.13,1.61,11.6,11.6,0,0,1-5.72,3,10.22,10.22,0,0,1-1.47.23,16.73,16.73,0,0,0,.47-5.61,12,12,0,0,0-1.16-4.19,6.89,6.89,0,0,0-2.77-3.08,3.24,3.24,0,0,0-1.06-.33,2.33,2.33,0,0,0-.63,0,2,2,0,0,0-.61.23,4.46,4.46,0,0,0-1.66,1.57A8.31,8.31,0,0,0,164.33,47a10.48,10.48,0,0,0,.3,2.51q-.29-.41-.62-.79a5.66,5.66,0,0,0-3.45-2,4.32,4.32,0,0,0-3.84,1.74,8.21,8.21,0,0,0-.66.91,8.83,8.83,0,0,0-.54,1.07A7,7,0,0,0,155,53a7.78,7.78,0,0,0,.4,2.42,8.8,8.8,0,0,0,1,2,10.56,10.56,0,0,0,2.74,2.81,11.51,11.51,0,0,0,3.19,1.59,6.31,6.31,0,0,1-.67.54,3.15,3.15,0,0,1-2.75.61A5.4,5.4,0,0,1,156.33,61a14.58,14.58,0,0,1-2-3.08,13.68,13.68,0,0,0,1.53,3.55,6.37,6.37,0,0,0,2.71,2.56,4.08,4.08,0,0,0,3.65-.33,8,8,0,0,0,1.55-1.17l.46-.46a8.15,8.15,0,0,0,1.8-.06,7,7,0,0,0,2.9-1.15,7.49,7.49,0,0,0-.25,1.64,3.59,3.59,0,0,0,.49,2,2.3,2.3,0,0,0,1.82,1,4.49,4.49,0,0,0,1.09-.07l.35-.08a4.6,4.6,0,0,0,.87.53,3.88,3.88,0,0,0,2.19.32,5.28,5.28,0,0,0,2.24-1c.17-.12.33-.25.49-.38a5.89,5.89,0,0,0,1.17.55,8.91,8.91,0,0,0,2,.39,6,6,0,0,0,2.12-.18,4.79,4.79,0,0,0,2-1.16,5.46,5.46,0,0,0,1.31-2,5.67,5.67,0,0,0,.39-2.22,2.66,2.66,0,0,0-.23-1.06.7.7,0,0,0-.44-.4.79.79,0,0,0-.67.23l.21.29c.12-.09.21-.12.29-.1s.15.12.21.24a2.33,2.33,0,0,1,.14.9,5.43,5.43,0,0,1-.43,2A4.64,4.64,0,0,1,185.18,64a3.88,3.88,0,0,1-1.71.9,6.54,6.54,0,0,1-3.62-.34,5.76,5.76,0,0,1-.78-.35,9.37,9.37,0,0,0,2-2.49,6.77,6.77,0,0,0,.74-2.33,3.88,3.88,0,0,0-.36-2.3,1.83,1.83,0,0,0-.4-.48,1.32,1.32,0,0,0-.31-.18,1.1,1.1,0,0,0-.36-.08,2.51,2.51,0,0,0-1.26.23,4.67,4.67,0,0,0-1.92,1.73,5.88,5.88,0,0,0-.63,1.27c0-.19,0-.38-.05-.56a3.19,3.19,0,0,0-1-2,2.43,2.43,0,0,0-2.35-.36,4.62,4.62,0,0,0-.59.23,5,5,0,0,0-.58.34c-.07,0-.12.11-.18.15.09-.2.19-.4.27-.6s.26-.68.38-1a10.46,10.46,0,0,0,2.26-.35,15.81,15.81,0,0,0,3.29-1.33,10.69,10.69,0,0,0,3-2.33,8.2,8.2,0,0,0,1.35-2.1,5.35,5.35,0,0,0,2.91.4,7.3,7.3,0,0,0,3.1-1.34l.68-.5a8.17,8.17,0,0,0,1.62.73,12.33,12.33,0,0,0,2.71.53,8.33,8.33,0,0,0,2.93-.25,6.63,6.63,0,0,0,2.83-1.6,7.55,7.55,0,0,0,1.82-2.78,7.84,7.84,0,0,0,.54-3.07,3.68,3.68,0,0,0-.32-1.47,1,1,0,0,0-.6-.55,1.09,1.09,0,0,0-.92.31l.29.41c.16-.12.3-.17.4-.14s.21.17.29.34a3.23,3.23,0,0,1,.19,1.24,7.52,7.52,0,0,1-.59,2.73A6.42,6.42,0,0,1,198.52,47a5.37,5.37,0,0,1-2.37,1.24,9,9,0,0,1-5-.47,8,8,0,0,1-1.06-.48,13,13,0,0,0,2.7-3.45,9.37,9.37,0,0,0,1-3.22,6.28,6.28,0,0,0-.11-2.12c.33,0,.66-.07,1-.13a15.11,15.11,0,0,0,6.31-3q.69-.52,1.38-1.09a16.84,16.84,0,0,0,3.4,1.4,25.45,25.45,0,0,0,5.63.91,17.21,17.21,0,0,0,6-.72,13.08,13.08,0,0,0,3.31-1.55,8.58,8.58,0,0,0,1,.41,12.33,12.33,0,0,0,2.71.53,8.33,8.33,0,0,0,2.93-.25,6.62,6.62,0,0,0,2.83-1.6,6.71,6.71,0,0,0,.5-.54,2.56,2.56,0,0,0,.59.11,4.49,4.49,0,0,0,1.09-.07l.35-.08a4.6,4.6,0,0,0,.87.53,3.88,3.88,0,0,0,2.19.32,5.28,5.28,0,0,0,2.24-1c.17-.12.33-.25.49-.38a5.88,5.88,0,0,0,1.17.55c.21.07.43.12.65.17,0,.16,0,.32,0,.48a3.59,3.59,0,0,0,.49,2,2.3,2.3,0,0,0,1.82,1,4.49,4.49,0,0,0,1.09-.07l.35-.08a4.6,4.6,0,0,0,.87.53,3.88,3.88,0,0,0,2.19.32,5.28,5.28,0,0,0,2.24-1c.17-.12.33-.25.49-.38a5.89,5.89,0,0,0,1.17.55,8.91,8.91,0,0,0,2,.39,6,6,0,0,0,2.12-.18,4.79,4.79,0,0,0,2-1.16,5.46,5.46,0,0,0,1.31-2,5.67,5.67,0,0,0,.39-2.22A2.66,2.66,0,0,0,258.64,30.2Zm-91.46,7a4.55,4.55,0,0,1-1.67,1.85,1.92,1.92,0,0,1-1,.27.3.3,0,0,1-.15,0l-.13-.06A1.39,1.39,0,0,1,164,39a4,4,0,0,1-.52-2.23,7.48,7.48,0,0,1,.57-2.59,11,11,0,0,1,2.22-3.38,4.26,4.26,0,0,1,1.25,1.51A5.6,5.6,0,0,1,167.18,37.23Zm3.06-7a8.6,8.6,0,0,0-1.08,2.72,5.43,5.43,0,0,0-.51-1.49,5.24,5.24,0,0,0-1.37-1.68l.1-.09a5.3,5.3,0,0,1,2.15-1.22,3.86,3.86,0,0,1,2.17.1A7.46,7.46,0,0,0,170.24,30.21Zm5.59,5a3.8,3.8,0,0,1-.34,1.09,3.32,3.32,0,0,1-1.68,1.47,1.86,1.86,0,0,1-1.86-.06,3.16,3.16,0,0,1-1.14-1.76,6.36,6.36,0,0,1-.17-2.51,6.69,6.69,0,0,1,.8-2.5A5.47,5.47,0,0,1,173,29.22a7.06,7.06,0,0,1,2.09,2.44,6.57,6.57,0,0,1,.74,2.33A4.87,4.87,0,0,1,175.83,35.2Zm-9,8.72a2.46,2.46,0,0,1,1-.88A.39.39,0,0,1,168,43a.91.91,0,0,1,.19,0,1.79,1.79,0,0,1,.51.18,5.07,5.07,0,0,1,1.89,2.25,9.62,9.62,0,0,1,.85,3.3,14.17,14.17,0,0,1-.58,5.16,5.46,5.46,0,0,1-2.3-1A7.2,7.2,0,0,1,166,47,5.85,5.85,0,0,1,166.88,43.92ZM158,55.75a6.26,6.26,0,0,1-.7-1.39,4.89,4.89,0,0,1-.25-1.45,4.28,4.28,0,0,1,1.06-2.66,2.38,2.38,0,0,1,2.17-1,4.05,4.05,0,0,1,2.33,1.35,8.17,8.17,0,0,1,1.65,2.77,8.61,8.61,0,0,1,.54,3.33,7,7,0,0,1-.79,2.87A9,9,0,0,1,160.24,58,8.43,8.43,0,0,1,158,55.75Zm7.9,3.83a9.6,9.6,0,0,0,.69-2.75,11.06,11.06,0,0,0-.34-3.74,7,7,0,0,0,1.45,1.41,6.72,6.72,0,0,0,2.54,1.13l-.06.16a6.82,6.82,0,0,1-1.75,2.65A5,5,0,0,1,165.93,59.58Zm12-.73a3.29,3.29,0,0,1,1.35-1.2,1.39,1.39,0,0,1,.72-.12.22.22,0,0,1,.1,0l.09.06a1,1,0,0,1,.19.24,2.85,2.85,0,0,1,.2,1.64,5.41,5.41,0,0,1-.61,1.82,8,8,0,0,1-1.86,2.25,3.08,3.08,0,0,1-.78-1.18A4,4,0,0,1,178,58.85Zm-1.75,2.94a3.92,3.92,0,0,0,.25,1.11,3.79,3.79,0,0,0,.85,1.31l-.08.06a3.83,3.83,0,0,1-1.64.71,2.79,2.79,0,0,1-1.55-.24,5.39,5.39,0,0,0,1.17-1.08A6.21,6.21,0,0,0,176.21,61.79Zm-3-3.84a1.34,1.34,0,0,1,1.33.19,2.28,2.28,0,0,1,.68,1.36,4.6,4.6,0,0,1-.07,1.81,4.83,4.83,0,0,1-.77,1.74,4,4,0,0,1-1.24,1.1,5.08,5.08,0,0,1-1.32-1.91,4.75,4.75,0,0,1-.35-1.73,3.52,3.52,0,0,1,.1-.87,2.75,2.75,0,0,1,.33-.76A2.4,2.4,0,0,1,173.24,58Zm-2.57,5a6.49,6.49,0,0,0,1,1.73,3.56,3.56,0,0,1-.49,0,1.78,1.78,0,0,1-1.49-.56,3,3,0,0,1-.65-1.67,8,8,0,0,1,0-1.62,6.54,6.54,0,0,0,.57-.43,7,7,0,0,0,.72-.74,4.73,4.73,0,0,0-.12,1.08A5.94,5.94,0,0,0,170.66,62.93Zm69.76-38,.09.06a1,1,0,0,1,.19.24,2.85,2.85,0,0,1,.2,1.64,5.41,5.41,0,0,1-.61,1.82A8,8,0,0,1,238.43,31a3.08,3.08,0,0,1-.78-1.18,4,4,0,0,1,.6-3.54,3.29,3.29,0,0,1,1.35-1.2,1.39,1.39,0,0,1,.72-.12A.22.22,0,0,1,240.42,25Zm-2.51-.11.4-.13a5.23,5.23,0,0,0-.88,1,5.89,5.89,0,0,0-.63,1.27c0-.19,0-.38-.05-.56a3.81,3.81,0,0,0-.47-1.34A8.17,8.17,0,0,0,237.91,24.86Zm-4.46,6.7a5,5,0,0,1-1.18-1.63,7.59,7.59,0,0,0,.31-2.37,3.81,3.81,0,0,0-.28-1.38,2.42,2.42,0,0,1,1.23-.82,1.34,1.34,0,0,1,1.33.19,2.28,2.28,0,0,1,.68,1.36,4.6,4.6,0,0,1-.07,1.81,4.83,4.83,0,0,1-.77,1.74A4,4,0,0,1,233.46,31.56Zm-1.67-3.64a3.38,3.38,0,0,1,.09-.81,4.57,4.57,0,0,1,0,.6,6.49,6.49,0,0,1-.07.82A4.2,4.2,0,0,1,231.78,27.92Zm-1.55-12.51a4.55,4.55,0,0,1,1.86-1.66,1.92,1.92,0,0,1,1-.16.3.3,0,0,1,.14,0l.12.08a1.39,1.39,0,0,1,.26.34,4,4,0,0,1,.28,2.27,7.48,7.48,0,0,1-.85,2.51,11,11,0,0,1-2.58,3.12,4.26,4.26,0,0,1-1.08-1.63A5.6,5.6,0,0,1,230.23,15.41Zm-.9,7.42-.11.08a5.72,5.72,0,0,1-1.82.88,15.27,15.27,0,0,0,.23-3.7V20c.07-.17.13-.34.18-.51a5.43,5.43,0,0,0,.35,1.54A5.24,5.24,0,0,0,229.33,22.83Zm-3.47,1a4.14,4.14,0,0,1-1-.32,7.29,7.29,0,0,0,1.31-1.14Q226,23.15,225.86,23.88ZM225,26.37c0-.25,0-.51,0-.76l.33.07c-.05.15-.09.3-.15.45s-.2.47-.31.7C224.92,26.68,225,26.53,225,26.37Zm-3.55-9.88a3.8,3.8,0,0,1,.45-1.05,3.32,3.32,0,0,1,1.82-1.28,1.86,1.86,0,0,1,1.85.26,3.16,3.16,0,0,1,.95,1.88c0,.09,0,.18,0,.28a1.61,1.61,0,0,0-.92-.58,2.26,2.26,0,0,0-1.88.71l.63.82c.33-.26.6-.38.81-.31s.45.34.61.68a5.44,5.44,0,0,1,.41,1.64,6.57,6.57,0,0,1-.86,1.69,5.57,5.57,0,0,1-1.38,1.33l0,0a1.82,1.82,0,0,0-.43-.25,1.52,1.52,0,0,0-.48-.11,7.45,7.45,0,0,1-1.24-2.07,6.57,6.57,0,0,1-.49-2.4A4.87,4.87,0,0,1,221.42,16.49Zm-1.71,9.08a5.22,5.22,0,0,1,.75-.89l.17,0a6.21,6.21,0,0,0,1.51-.1l.5-.1a6.43,6.43,0,0,0,.71.47,4.69,4.69,0,0,1,0,1.5,7.48,7.48,0,0,1-.85,2.51A11,11,0,0,1,220,32.1a4.26,4.26,0,0,1-1.08-1.63A5.6,5.6,0,0,1,219.71,25.57Zm-2.42,4.07a5.43,5.43,0,0,0,.35,1.54A5.24,5.24,0,0,0,218.81,33l-.11.08a7.25,7.25,0,0,1-.7.43c-.26.09-.52.19-.79.26a13.59,13.59,0,0,1-1.5.31,4,4,0,0,1-1.42-.36,7.46,7.46,0,0,0,1.63-1.5A8.6,8.6,0,0,0,217.29,29.64Zm-6.39-3a3.8,3.8,0,0,1,.45-1.05,3.32,3.32,0,0,1,1.82-1.28,1.86,1.86,0,0,1,1.85.26,3.16,3.16,0,0,1,.95,1.88,6.36,6.36,0,0,1-.1,2.51,6.69,6.69,0,0,1-1.06,2.4,5.47,5.47,0,0,1-1.74,1.53,7.06,7.06,0,0,1-1.82-2.65,6.57,6.57,0,0,1-.49-2.4A4.87,4.87,0,0,1,210.9,26.66Zm-1.45-.81a6.45,6.45,0,0,0-.23.66,6.85,6.85,0,0,0-.2,1.71,8.22,8.22,0,0,0,.6,3A9,9,0,0,0,211,33.61a4.92,4.92,0,0,1-.67.06,2.46,2.46,0,0,1-2.06-.78,4.21,4.21,0,0,1-.89-2.31,10.45,10.45,0,0,1-.07-1.47A25.44,25.44,0,0,0,209.45,25.85Zm-8.52-9a9.42,9.42,0,0,1,3.74-3.55,4,4,0,0,1,2.06-.4.62.62,0,0,1,.3.05,1.46,1.46,0,0,1,.26.15,2.88,2.88,0,0,1,.55.67,8.16,8.16,0,0,1,.72,4.68A15.49,15.49,0,0,1,207,23.74a22.81,22.81,0,0,1-5.11,6.63,8.79,8.79,0,0,1-2.34-3.3C198.31,24,198.92,20,200.93,16.89Zm-13.58-2.13a5,5,0,0,1,2-.3,1.07,1.07,0,0,0-.35.2l.21.29c.12-.09.21-.12.29-.1s.15.12.21.24a2.33,2.33,0,0,1,.14.9,5.43,5.43,0,0,1-.43,2,4.64,4.64,0,0,1-1.16,1.68,3.88,3.88,0,0,1-1.71.9,6.54,6.54,0,0,1-3.62-.34l-.21-.09c0-.13,0-.25.06-.38.07-.28.16-.54.25-.81a8.75,8.75,0,0,0,1.08-1.57,7.17,7.17,0,0,0,.37-.85A7.09,7.09,0,0,1,187.35,14.76Zm-6.28-.3a3.29,3.29,0,0,1,1.35-1.2,1.39,1.39,0,0,1,.72-.12h.08a11.6,11.6,0,0,0-2.43,2.72q-.27.45-.5.92A4.44,4.44,0,0,1,181.07,14.46Zm-6.37.78a2.75,2.75,0,0,1,.33-.76,2.4,2.4,0,0,1,1.32-.93,1.34,1.34,0,0,1,1.33.19,2.28,2.28,0,0,1,.68,1.36,4.6,4.6,0,0,1-.07,1.81,4.83,4.83,0,0,1-.77,1.74,4,4,0,0,1-1.24,1.1A5.08,5.08,0,0,1,175,17.85a4.75,4.75,0,0,1-.35-1.73A3.52,3.52,0,0,1,174.7,15.24Zm4,5.35a2.79,2.79,0,0,1-1.55-.24,5.39,5.39,0,0,0,1.17-1.08,6.21,6.21,0,0,0,1-1.87,3.92,3.92,0,0,0,.25,1.11l0,0c-.1.33-.2.66-.27,1s-.11.63-.16.94A3,3,0,0,1,178.7,20.59Zm3.91.51a9,9,0,0,0,1.89.37,6,6,0,0,0,2.12-.18,4.79,4.79,0,0,0,2-1.16,5.46,5.46,0,0,0,1.31-2,5.67,5.67,0,0,0,.39-2.22,2.66,2.66,0,0,0-.23-1.06.91.91,0,0,0-.27-.3,3.13,3.13,0,0,1,1.31.64A6.52,6.52,0,0,1,193.26,19a13.16,13.16,0,0,1,0,5.19,13.86,13.86,0,0,1-2,5,11.32,11.32,0,0,1-3.48,3.29,14.57,14.57,0,0,1-3.93-5.35,13.58,13.58,0,0,1-1.17-4.92A7.55,7.55,0,0,1,182.61,21.1Zm2.23,15.36,1-.25a13.13,13.13,0,0,0,2.52,1.42l.18.07a7.26,7.26,0,0,0-1.16,1.38,8.14,8.14,0,0,0-.87,1.76c0-.26,0-.52-.07-.78a4.42,4.42,0,0,0-1.4-2.77,2.75,2.75,0,0,0-1.38-.64C184.07,36.61,184.45,36.55,184.84,36.47ZM182,38.55a1.86,1.86,0,0,1,1.85.26,3.16,3.16,0,0,1,.95,1.88,6.36,6.36,0,0,1-.1,2.51,6.69,6.69,0,0,1-1.06,2.4,5.79,5.79,0,0,1-.58.66,10.19,10.19,0,0,0-.22-2.47,10.08,10.08,0,0,0-1.57-3.68,6.59,6.59,0,0,0-.64-.77A3.43,3.43,0,0,1,182,38.55Zm-2.28,2.34a3.87,3.87,0,0,1,.36-.88,5.6,5.6,0,0,1,.55.73,9.66,9.66,0,0,1,1.28,3.36,8.5,8.5,0,0,1,0,3l0,0a7.06,7.06,0,0,1-1.82-2.65,6.57,6.57,0,0,1-.49-2.4A4.87,4.87,0,0,1,179.72,40.88Zm5.54,7.4a3.86,3.86,0,0,1-2.14-.34,7.46,7.46,0,0,0,1.63-1.5,8.6,8.6,0,0,0,1.37-2.58,5.43,5.43,0,0,0,.35,1.54,5.24,5.24,0,0,0,1.18,1.82l-.11.08A5.3,5.3,0,0,1,185.26,48.28Zm6.94-7.59a7.48,7.48,0,0,1-.85,2.51,11,11,0,0,1-2.58,3.12,4.26,4.26,0,0,1-1.08-1.63,5.6,5.6,0,0,1,.83-4.9,4.65,4.65,0,0,1,1.7-1.57,11.14,11.14,0,0,0,1.72.26A4,4,0,0,1,192.2,40.7Zm2.53-6a8,8,0,0,1-4.42-.53,15.54,15.54,0,0,0,3.22-3.22,17.87,17.87,0,0,0,2.66-5.39,11.2,11.2,0,0,0,.82,3.11,10.82,10.82,0,0,0,2.56,3.68l-.22.17A11,11,0,0,1,194.73,34.65Zm9.88-2.42a30,30,0,0,0,2.42-2.7,9.91,9.91,0,0,0-.11,1.18,5.15,5.15,0,0,0,.57,2.63l-.67-.19A16.45,16.45,0,0,1,204.61,32.23Zm25.09.54A5.37,5.37,0,0,1,227.33,34a9,9,0,0,1-5-.47L222,33.4a14.09,14.09,0,0,0,1.15-1,15.65,15.65,0,0,0,3.57-5.88c.09-.27.16-.55.24-.82a7.37,7.37,0,0,0,3-1.32l.68-.5a8.17,8.17,0,0,0,1.62.73l.06,0-.11.07a3.8,3.8,0,0,0-.9.89,1.38,1.38,0,0,0-.58.31l.22.31a4.53,4.53,0,0,0-.29.78,5,5,0,0,0-.14,1.23,5.94,5.94,0,0,0,.43,2.17c.06.14.14.28.2.42a6.73,6.73,0,0,1-.69,1.15,1.57,1.57,0,0,1-.46-.35,3,3,0,0,1-.65-1.67,8.2,8.2,0,0,1,0-2.06A7.69,7.69,0,0,0,229,30a3.59,3.59,0,0,0,.49,2,2,2,0,0,0,.47.48C229.87,32.58,229.79,32.68,229.7,32.76Zm1.6-.65c.12-.18.22-.37.31-.55a5.77,5.77,0,0,0,.36.51,3.56,3.56,0,0,1-.49,0Zm4.59.29a2.79,2.79,0,0,1-1.55-.24,5.39,5.39,0,0,0,1.17-1.08,6.21,6.21,0,0,0,1-1.87,3.92,3.92,0,0,0,.25,1.11,3.79,3.79,0,0,0,.85,1.31l-.08.06A3.83,3.83,0,0,1,235.88,32.4Zm13.69-2.57a3.29,3.29,0,0,1,1.35-1.2,1.39,1.39,0,0,1,.72-.12.22.22,0,0,1,.1,0l.09.06a1,1,0,0,1,.19.24,2.85,2.85,0,0,1,.2,1.64,5.41,5.41,0,0,1-.61,1.82,8,8,0,0,1-1.86,2.25,3.08,3.08,0,0,1-.78-1.18A4,4,0,0,1,249.57,29.82Zm-2.78,2.46A4.83,4.83,0,0,1,246,34a4,4,0,0,1-1.24,1.1,5.08,5.08,0,0,1-1.32-1.91v0l.35-.08a4.79,4.79,0,0,0,2-1.16,5.27,5.27,0,0,0,1-1.39A4.59,4.59,0,0,1,246.79,32.28Zm-3.59-1.67a2.75,2.75,0,0,1,.33-.76,2.4,2.4,0,0,1,1.32-.93,1.34,1.34,0,0,1,1.33.19,1.76,1.76,0,0,1,.46.63v0a4.64,4.64,0,0,1-1.16,1.68,3.88,3.88,0,0,1-1.71.9,4.69,4.69,0,0,1-.53.07,4.36,4.36,0,0,1-.11-.95A3.52,3.52,0,0,1,243.2,30.61Zm-1.88,4.51a3,3,0,0,1-.65-1.67c0-.1,0-.21,0-.32.33.06.67.11,1,.15l.39,0c.06.21.12.41.2.61a6.49,6.49,0,0,0,1,1.73,3.56,3.56,0,0,1-.49,0A1.78,1.78,0,0,1,241.32,35.12Zm5.88.84a2.79,2.79,0,0,1-1.55-.24,5.39,5.39,0,0,0,1.17-1.08,6.21,6.21,0,0,0,1-1.87,3.92,3.92,0,0,0,.25,1.11,3.79,3.79,0,0,0,.85,1.31l-.08.06A3.83,3.83,0,0,1,247.21,36Z" opacity="0.73" fill="url(#linear-gradient-6)"/><path d="M218.06,162l11.41,4.53L225.24,174l9,56.91h47.56S252,163.13,245.86,156C245.86,156,245.25,165.69,218.06,162Z" fill="url(#linear-gradient-7)"/><path d="M245.86,142.82l-.55,1.21.55,12,5.4,9.15,22.3-3S255.17,146.82,245.86,142.82Z" fill="#76d5ff"/><path d="M215.6,78a11.71,11.71,0,0,0-2.89-3.77c-2.78-1.89-15.23-.67-16.67,5.45,0,0,3.33,6.56,18.34,0Z" fill="url(#linear-gradient-8)"/><path d="M196,79.67a9.19,9.19,0,0,1,7.06-5.53s4.72,2.89,1.05,8.6C204.16,82.75,198.38,83.68,196,79.67Z" fill="#3972cb"/><path d="M196,79.67s5.56-7.56,16.67-5.45L215.6,78l-3-6.22S196.27,69.23,196,79.67Z" fill="#f29e79"/><path d="M195.92,79.6a11.64,11.64,0,0,1,3.31-3.31,15.62,15.62,0,0,1,4.23-2,19.93,19.93,0,0,1,4.64-.74c.78-.05,1.57,0,2.35,0s1.55.18,2.33.26h0l.2,0,.08.13,2.54,4-3.24-3.5.28.17h0c-.75-.08-1.5-.18-2.25-.25s-1.51-.1-2.26-.06a19.14,19.14,0,0,0-4.46.62,16.25,16.25,0,0,0-4.13,1.78,12.52,12.52,0,0,0-3.36,3Z" fill="#42210b"/><ellipse cx="204.45" cy="76.91" rx="2.41" ry="1.18" fill="#fff"/><path d="M236.54,73.41s8.05-7.25,15-5.5l-.89-2.22s-5.56-1.78-14.11,6.34C236.54,72,234.31,74,236.54,73.41Z" fill="#42210b"/><path d="M212.13,66.32s-17.62-2.88-22.22,10.3c0,0-2.53-2.33.88-7.1,0,0,6.37-8,19.71-7.43C210.5,62.09,213.17,64.17,212.13,66.32Z" fill="#42210b"/><path d="M234,64s8.62-11.25,20-3.65c0,0,0-3.07-5.16-4.92a17.62,17.62,0,0,0-16.61,4.53S232,62.88,234,64Z" fill="#42210b"/><path d="M228.29,94.69a16.07,16.07,0,0,0,13.78-3S237,92.47,228.29,94.69Z" fill="#f29e79"/><ellipse cx="235.18" cy="89.09" rx="5.63" ry="4.52" fill="url(#New_Gradient_Swatch_copy)"/><path d="M264.94,59.61c-16.56-4.89-31.7,6.39-32.34,6.87l-.39.3.07.48a22.72,22.72,0,0,0,1.78,6.09c-.86-.34-5.53-1.78-13.93,3.27v.12a24.75,24.75,0,0,0-1.69-8.45l-.19-.49-.52-.07c-.85-.11-21-2.56-33.81,11l-.5.53.42.59c1.33,1.87,8.18,11.23,12,11.39H196c3.42,0,21.48-4,22.85-6.76A17.59,17.59,0,0,0,220,79.95v0s9.17-7.6,15.32-4.31a17.44,17.44,0,0,0,4,4.7c2.36,1.55,18.78-3.62,21.54-5.2l.12-.07c3-1.91,4.3-12.53,4.52-14.64l.07-.67ZM217.28,83.75C216.15,85.32,200,89.68,196,89.51c-2.21-.09-7.26-6-10.23-10,11.09-11.2,28.06-10.3,31.25-10A21.1,21.1,0,0,1,217.28,83.75Zm42.85-10c-3.21,2-18.23,6-19.85,5.29A19.08,19.08,0,0,1,234,67.49c2.45-1.7,15.74-10.27,29.81-6.5C263.26,65.61,261.87,72.63,260.12,73.73Z" fill="#4d4d4d"/><path d="M260.06,87.92a52.4,52.4,0,0,1-2.54,10.77l-10-6.11-13,2.93-19.34,5-8.62,7.42-20.13-20-4.24-.76c9.72,40.28,43.66,49.17,43.66,49.17,4.15,0,27.56-8,27.56-8l8.3-21.64C263.26,102.29,260.06,87.92,260.06,87.92Zm-22.88,29.74c-10.37,2.07-25.49-4.74-25.49-4.74l4.74-8.39,1.18,1,6.42-.69s6.68-3.09,9.49-2.6c0,0,5.1-4.9,10.68-2.93,0,0,3-.35,3.36-2.19l7,7.91C247.63,116.89,237.18,117.66,237.18,117.66Z" fill="#42210b" opacity="0.23"/><path d="M185.72,79.46s10.64-11.65,31.25-10a27.72,27.72,0,0,1,1.17,4.71s-20,5.5-26.16,12.73C192,86.88,187.47,82,185.72,79.46Z" fill="url(#linear-gradient-9)"/><path d="M234,67.49a8.08,8.08,0,0,0,.66,2.75s15.41-8.05,28-2.75c0,0,1.57-4.85,1.1-6.5C263.8,61,252.67,55.52,234,67.49Z" fill="url(#linear-gradient-10)"/><polygon points="273.56 162.16 251.25 165.19 281.78 230.91 254.88 166.51 273.56 162.16" fill="#2ea6ee"/><polygon points="229.47 166.51 210.5 200.06 225.91 178.29 234.22 230.91 229.47 166.51" fill="#2ea6ee"/><path d="M218.06,162s25.66,4.29,27.8-5.94c0,0,2.71,8.67-11,15.12l3.83,59.75h-4.44l-4.75-64.4Z" fill="#ccc"/><polygon points="161.75 165.19 184.87 179.38 190.42 230.91 198.87 230.91 187.31 177.38 161.75 165.19" fill="#76d5ff"/><path d="M140.26,230.91s2.82-60.2,39.94-84.2c0,0-30.16,52.23-18.45,84.2Z" fill="url(#linear-gradient-11)"/><path d="M243.1,158.56l-1-24.3-3.7,2.07-5.08,25.82S243.22,161.26,243.1,158.56Z" fill="url(#linear-gradient-12)"/><path d="M144.41,60.35s-.16,4.84,5.88,2.77L146.74,67S142.41,65.91,144.41,60.35Z" fill="#42210b"/><path d="M210.87,3s8,5.78,7.89-3c0,0,3.56,5.89-3.94,8.56C214.82,8.56,209.76,9.45,210.87,3Z" fill="#42210b"/><path d="M157,107s6.11,6.47.78,5.91c0,0,3.35,2.47,3.45,0a40.1,40.1,0,0,1,.89-5.91Z" fill="#42210b"/><path d="M255.33,37.42s6.85-.63,10.26,4.26c0,0,1.15,2.78,0,3.56s1.3,4.67,5,0c0,0-2.22,7-6.67,2.26,0,0,.66-4.88-3.12-4.24Z" fill="#42210b"/><path d="M253.25,25.34s.92,6.12,5.13,6c0,0,5.4-1.14,2.73-4.88C261.11,26.48,260.36,32.65,253.25,25.34Z" fill="#42210b"/><g id="Layer_3" data-name="Layer 3"><path d="M123.21,75.71S162.66,111.86,169,125s-59.65,24.81-59.65,24.81S92,77.73,123.21,75.71Z" fill="#ff7db8"/><path d="M123.21,75.71S162.66,111.86,169,125s-59.65,24.81-59.65,24.81S92,77.73,123.21,75.71Z" fill="url(#radial-gradient-3)"/><path d="M57.59,154.92s4.3,11.61,1.1,21.33c0,0-1.68,22.19,21.72,22.8s42.86-12.77,51.37-27.66c0,0-25.23-26.14-17.63-63.53,0,0,11.55-8.51,8.82-27.36s-15.5,0-15.5,0l-5.17,10Z" stroke="#f29e79" stroke-miterlimit="10" stroke-width="1.46" fill="url(#linear-gradient-13)"/><g clip-path="url(#clip-path)"><rect x="14.45" y="30.65" width="89.97" height="126.45" fill="#ffc49d"/><circle cx="58.69" cy="97.52" r="52.48" fill="#ffc49d"/><circle cx="58.69" cy="97.52" r="51.56" fill="#ffc59e"/><circle cx="58.69" cy="97.52" r="50.64" fill="#ffc6a0"/><circle cx="58.69" cy="97.52" r="49.71" fill="#ffc6a1"/><circle cx="58.69" cy="97.52" r="48.79" fill="#ffc7a2"/><circle cx="58.69" cy="97.52" r="47.87" fill="#ffc8a4"/><circle cx="58.69" cy="97.52" r="46.95" fill="#ffc9a5"/><circle cx="58.69" cy="97.52" r="46.03" fill="#ffc9a6"/><circle cx="58.69" cy="97.52" r="45.11" fill="#ffcaa7"/><circle cx="58.69" cy="97.52" r="44.19" fill="#ffcba9"/><circle cx="58.69" cy="97.52" r="43.27" fill="#fca"/><circle cx="58.69" cy="97.52" r="42.35" fill="#ffccab"/><circle cx="58.69" cy="97.52" r="41.43" fill="#ffcdac"/><circle cx="58.69" cy="97.52" r="40.51" fill="#ffceae"/><circle cx="58.69" cy="97.52" r="39.59" fill="#ffcfaf"/><circle cx="58.69" cy="97.52" r="38.67" fill="#ffcfb0"/><circle cx="58.69" cy="97.52" r="37.75" fill="#ffd0b1"/><circle cx="58.69" cy="97.52" r="36.83" fill="#ffd1b2"/><circle cx="58.69" cy="97.52" r="35.91" fill="#ffd1b4"/><circle cx="58.69" cy="97.52" r="34.98" fill="#ffd2b5"/><circle cx="58.69" cy="97.52" r="34.06" fill="#ffd3b6"/><circle cx="58.69" cy="97.52" r="33.14" fill="#ffd4b7"/><circle cx="58.69" cy="97.52" r="32.22" fill="#ffd4b8"/><circle cx="58.69" cy="97.52" r="31.3" fill="#ffd5b9"/><circle cx="58.69" cy="97.52" r="30.38" fill="#ffd6ba"/><circle cx="58.69" cy="97.52" r="29.46" fill="#ffd6bc"/><circle cx="58.69" cy="97.52" r="28.54" fill="#ffd7bd"/><circle cx="58.69" cy="97.52" r="27.62" fill="#ffd8be"/><circle cx="58.69" cy="97.52" r="26.7" fill="#ffd8bf"/><circle cx="58.69" cy="97.52" r="25.78" fill="#ffd9c0"/><circle cx="58.69" cy="97.52" r="24.86" fill="#ffd9c1"/><circle cx="58.69" cy="97.52" r="23.94" fill="#ffdac2"/><circle cx="58.69" cy="97.52" r="23.02" fill="#ffdbc3"/><circle cx="58.69" cy="97.52" r="22.1" fill="#ffdbc4"/><circle cx="58.69" cy="97.52" r="21.17" fill="#ffdcc5"/><circle cx="58.69" cy="97.52" r="20.25" fill="#ffdcc6"/><circle cx="58.69" cy="97.52" r="19.33" fill="#ffddc7"/><circle cx="58.69" cy="97.52" r="18.41" fill="#ffdec8"/><circle cx="58.69" cy="97.52" r="17.49" fill="#ffdec9"/><circle cx="58.69" cy="97.52" r="16.57" fill="#ffdfca"/><circle cx="58.69" cy="97.52" r="15.65" fill="#ffdfcb"/><circle cx="58.69" cy="97.52" r="14.73" fill="#ffe0cc"/><circle cx="58.69" cy="97.52" r="13.81" fill="#ffe0cd"/><circle cx="58.69" cy="97.52" r="12.89" fill="#ffe1cd"/><circle cx="58.69" cy="97.52" r="11.97" fill="#ffe1ce"/><circle cx="58.69" cy="97.52" r="11.05" fill="#ffe2cf"/><circle cx="58.69" cy="97.52" r="10.13" fill="#ffe2d0"/><circle cx="58.69" cy="97.52" r="9.21" fill="#ffe3d1"/><circle cx="58.69" cy="97.52" r="8.29" fill="#ffe3d1"/><circle cx="58.69" cy="97.52" r="7.37" fill="#ffe4d2"/><circle cx="58.69" cy="97.52" r="6.44" fill="#ffe4d3"/><circle cx="58.69" cy="97.52" r="5.52" fill="#ffe5d4"/><circle cx="58.69" cy="97.52" r="4.6" fill="#ffe5d4"/><circle cx="58.69" cy="97.52" r="3.68" fill="#ffe5d5"/><circle cx="58.69" cy="97.52" r="2.76" fill="#ffe6d5"/><circle cx="58.69" cy="97.52" r="1.84" fill="#ffe6d6"/><circle cx="58.69" cy="97.52" r="0.92" fill="#ffe6d6"/></g><path d="M53.08,157.9l-.29-.11c-27.92-10.93-34.68-40-32.67-49.77,1.72-8.3-6.06-15-6.14-15.1l-.26-.22v-.34c0-8.78,4.09-33.13,4.27-34.17L18,58l.14-.16C42.8,30.15,74.51,38.37,74.83,38.46l.62.17-1.19,8.62h7.34L86,65.31l17,25,0,.17c2.12,16-1.79,36.21-1.83,36.41l0,.19-.13.15c-12.42,14.24-46.23,29.92-47.67,30.58ZM15.18,92c1.44,1.32,8.09,7.95,6.37,16.28-1.94,9.36,4.61,37.3,31.48,48,3.33-1.56,35-16.64,46.76-29.93.39-2.08,3.73-20.63,1.8-35.57l-17-25L80.44,48.71H72.58l1.24-9c-4.49-1-32.32-5.76-54.43,18.92C19,61,15.28,83.53,15.18,92Z" fill="#f29e79"/><path d="M23,125s2.9,19.7,30.09,32.13c0,0,35.54-16.24,47.42-30.4,0,0,4.13-22.51,1.82-36.17l-4.39-6.42S78.29,128.7,51.47,134.24C51.47,134.24,36.65,143.32,23,125Z" fill="#736357" opacity="0.14"/><path d="M39.31,118.06l1.76,1.09v-2.3l20.64-3,10.36,4.22-7.25,1.09-17.67,8.45s-10.79.81-13.3,3.15l-1.06.52-2.66,1.3V126Z" fill="#998675"/><path d="M74.64,39.16,73.42,48H81l4.26,17.63,17,24.93s9.64-17.94,15.15-18.39c0,0-4.21-24.46-12.11-33C105.34,39.16,85.28,34.91,74.64,39.16Z" fill="#c4b3a5"/><path d="M58.69,176.25s-43.33,11-51.84,32.83S.16,230.91.16,230.91H188.62s-1.82-30.34-30.7-44.93-26.14-14.59-26.14-14.59-20.67,28-46.51,27.36S58.69,176.25,58.69,176.25Z" fill="#ff7db8"/><path d="M58.69,176.25s-43.33,11-51.84,32.83S.16,230.91.16,230.91H188.62s-1.82-30.34-30.7-44.93-26.14-14.59-26.14-14.59-20.67,28-46.51,27.36S58.69,176.25,58.69,176.25Z" fill="url(#linear-gradient-14)"/><path d="M57.59,154.92s26.05-13.49,42.88-28.21c0,0,2.91-22,1.82-36.17,0,0,6.25,26.74.63,45.06,0,0-13.79,23.51-43.23,35.79C59.7,171.39,60.78,161,57.59,154.92Z" fill="#f29e79"/><path d="M108.89,100.28s3-5.24-1.1-9c0,0,3.71-11.34,9.66-15.36,0,0,2.78-1.71,2.54,6.34,0,0-.56-5.73-2.54-3.78s-6.12,9-5.88,12.8,2.93,3.78-1.1,9a8.47,8.47,0,0,0,6.34-4.75s.73,5-6.95,8.9C109.87,104.43,107.19,105.16,108.89,100.28Z" fill="#f29e79"/><path d="M111.22,105.76s-.56,4.8,3.25,4.16,1.14-4.14,1.14-4.14l.91-1.31s2.61,3.05,1.76,5.51c-1.29,3.74-5.93,2.57-5.93,2.57s-4.7-2-2.33-7.71C110,104.84,111.19,104.2,111.22,105.76Z" fill="gray"/><path d="M34.64,116.86l12.19-2.44S23.92,110,34.64,116.86Z" fill="#f29e79"/><path d="M33.86,130.76s17.68,1.15,31-11.6c0,0-16.53,7.74-17.67,8.45C47.15,127.61,36.14,128.78,33.86,130.76Z" fill="#f29e79"/><path d="M41.08,134.12A32.31,32.31,0,0,0,58,129.55S48.86,139.21,41.08,134.12Z" fill="#f29e79"/><path d="M43.91,82.48s-.47,5.85,5.62,6.58c0,0,12.67-6.83,21.69-6.58s8.29,1.71,8.29,1.71-3.66-9.08-10-8.44S51.71,78.09,43.91,82.48Z" fill="#211610"/><ellipse cx="76.67" cy="98.74" rx="8.3" ry="5.91" transform="translate(-31.61 36.27) rotate(-22.19)" fill="url(#radial-gradient-4)"/><path d="M38.77,122.29a4.79,4.79,0,0,1-5-4.56,4.27,4.27,0,0,1,.78-2.45.61.61,0,0,1,.86-.15.63.63,0,0,1,.15.87,3,3,0,0,0-.55,1.73A3.56,3.56,0,0,0,38.77,121a3.56,3.56,0,0,0,3.76-3.31A3.23,3.23,0,0,0,40.9,115a.63.63,0,0,1-.21-.85.61.61,0,0,1,.84-.21,4.46,4.46,0,0,1,2.22,3.8A4.79,4.79,0,0,1,38.77,122.29Z" fill="gray"/><path d="M79.51,84.19s-9.67-6.95-30,4.88c0,0-1.53,6.35.87,8.45,0,0,21.14-7.83,25.58-7C76,90.53,80.24,87.79,79.51,84.19Z" fill="url(#linear-gradient-15)"/><path d="M33.85,116" fill="none" stroke="#ffb6d2" stroke-miterlimit="10" stroke-width="1.46"/><path d="M14.45,92.36s14.34-3.29,19.34,1.71c0,0,5.49,6.83.85,13a5.27,5.27,0,0,0-.79-5.91c-2.5-2.87-12.76,4.68-12.76,4.68S20.71,97,14.45,92.36Z" fill="url(#linear-gradient-16)"/><path d="M14.17,87l-.3,5.35s11.44-1.57,17.49.13c0,0-.51-5.62-3-7.2A47.72,47.72,0,0,0,14.17,87Z" fill="#211610"/><path d="M21.09,105.88s6.72-3.59,9,0c2.68,4.16-4.52,6.35-4.52,6.35a5.85,5.85,0,0,1-5.06-1.34Z" fill="url(#radial-gradient-5)"/><path d="M34.77,99.2s-1-2.7-3-3.19c0,0-9.33-1.2-13,1.59a13.07,13.07,0,0,0,4.11,3.59S31.72,100.44,34.77,99.2Z" fill="url(#linear-gradient-17)"/><path d="M32.8,96.48s-9.49-1.43-14,1.13l-1.06-1.52S29.11,90.86,32.8,96.48Z" fill="#f29e79"/><path d="M28.79,96.13a7.82,7.82,0,0,0,1.94,4.07s3.18-.19,4-1c0,0-1.44-2.8-2.38-3.46,0,0-9.94-2.53-16.34,3.08a11.69,11.69,0,0,1,2.74-1.21S22.09,96.18,28.79,96.13Z" fill="#211610"/><path d="M131.78,171.39s37.49,21.79,40.2,24.66c0,0,15.3,14.92,16.64,34.86H160.2s8.42-32.77-32.28-54.92Z" fill="#f451a3"/><path d="M28.79,96.13s3-.68,4,.36a15.83,15.83,0,0,1,2,2.72s-1.06,1-4,1C30.73,100.2,28.37,98.43,28.79,96.13Z" fill="#3972cb"/><path d="M53.46,95.74S64.11,84.38,76,88.88v1.66s-11-3.27-20.13,4.64Z" fill="#211610"/><path d="M16.05,63.9S64,32.54,117.45,72.14c0,0,5.15,1,5.52,8.36,0,0,4.17-42.39-22.24-59.47C72.07,2.5,9.83,10.32,16.05,63.9Z" fill="#ff7db8"/><path d="M16.05,63.9S64,32.54,117.45,72.14c0,0,5.15,1,5.52,8.36,0,0,4.17-42.39-22.24-59.47C72.07,2.5,9.83,10.32,16.05,63.9Z" fill="url(#linear-gradient-18)"/><path d="M22.9,52l.27,8.15S38.89,53.07,63,51.68c0,0,1.42-6.75-1.27-9.92C61.71,41.76,37.25,42.49,22.9,52Z" fill="#f451a3"/><path d="M22.9,52s10.77-9.75,38.81-10.24c0,0-2-14.06-19.4-13.41S22.9,52,22.9,52Z" fill="#736357"/><path d="M22.9,52s-20.43-6.1,2.36-30c0,0-2.89,5.27-2.36,9.58,0,0,2.21-16.17,21-12,0,0-7.25,2-7.4,7.07,0,0,11.8-12.92,23.5-.73,0,0-15.49,3.49,1.71,15.85C61.71,41.76,37.74,41.52,22.9,52Z" fill="#efeeda"/><path d="M43.9,19.57s-15.66.9-2.83,24.59a66.35,66.35,0,0,0-7.22,2.3S24.63,20.06,43.9,19.57Z" fill="#d3d2c5"/><path d="M27.33,48.59S18.08,34,25.27,22c0,0-10.84,13,0,27.46Z" fill="#d3d2c5"/><path d="M60,25.91s-14.55.43-6.54,16.55l-4.12.26S43.18,25.91,60,25.91Z" fill="#d3d2c5"/><path d="M94.69,19.57S119.53,31.78,120,72.13l-8.79-6.23S116.69,40.3,94.69,19.57Z" fill="url(#linear-gradient-19)"/><path d="M162.66,133.31a.73.73,0,0,1-.45-1.31c1.86-1.47,2.93-3,3.08-4.44a3.08,3.08,0,0,0-.51-2.12l-.13-.23c-3.55-10.37-38.7-42.18-39.06-42.5a.73.73,0,0,1,1-1.09c1.45,1.31,35.56,32.19,39.42,43a4.61,4.61,0,0,1,.74,3.09c-.2,1.87-1.42,3.69-3.63,5.44A.73.73,0,0,1,162.66,133.31Z" fill="url(#linear-gradient-20)"/><path d="M89,99.2l-9.51-15c.36-2.78-7.44-8.71-7.44-8.71L65.62,52a130.43,130.43,0,0,1,17.06,3l2.59,10.58,17,24.93-17-24.93L82.68,55" fill="url(#linear-gradient-21)"/><path d="M117.45,72.14" fill="url(#linear-gradient-22)"/><ellipse cx="29.19" cy="97.57" rx="1.8" ry="0.8" fill="#fff"/><path d="M42.79,83.54s1,5.65,6.74,5.53l-1.18.77s-5.22.08-6.77-6.3Z" fill="#211610"/><path d="M74.33,76.63s4.08,3.44,5.73,7.48a19.47,19.47,0,0,0-3.39-7S75.3,76,74.33,76.63Z" fill="#211610"/><path d="M31.91,113.74s-2.89-3.62.46-5.15c0,0,8.61.47,14.46,5.83C46.84,114.42,34.77,111.51,31.91,113.74Z" fill="url(#New_Gradient_Swatch_copy-2)"/><polyline points="33.86 130.76 34.77 123.04 32.8 131.27" fill="#736357"/><polygon points="36.5 129.19 39.31 128.71 38.77 122.29 36.5 129.19" fill="#736357"/><polygon points="47.15 127.61 43.76 121.25 49.34 126.43 47.15 127.61" fill="#736357"/><polygon points="49.05 119.16 53.8 124.43 56.23 123.21 49.05 119.16" fill="#736357"/><polygon points="54.76 118.69 58.69 122.37 60.12 121.37 54.76 118.69" fill="#736357"/><path d="M20.45,61.46,16.89,86.3a19.34,19.34,0,0,1,9-1s.93-22.83,8.85-29C34.77,56.24,24.84,59,20.45,61.46Z" fill="url(#linear-gradient-23)"/><path d="M110.48,123.21s-.9,39.23,17.45,52.79l-12.16,11.24S102.13,143.92,110.48,123.21Z" fill="url(#linear-gradient-24)"/><path d="M2.7,230.91S4.9,193.18,52.2,182c0,0-34.62,14.25-33.16,48.94Z" fill="url(#linear-gradient-25)"/><path d="M22.9,101.2s8.19-.31,11.86-2c0,0-5.17,3.27-8.8,3.58C26,102.78,23.36,102.84,22.9,101.2Z" fill="#f29e79"/><path d="M55.86,95.17S64.53,87,76,90.53c0,0-14.32,3.77-19,5.37l-3.5-.17Z" fill="#f29e79"/></g><path d="M191.43,181c-.25-12.65-9.48-5.75-9.48-5.75,20.8-57.18,6.13-45.9,2.34-37.45-3.59,8-8.73,30.27-11,33.48-1.59,2.23-1.79-.83-1.79-.83,15.88-57.5,1.77-45.91-1.64-37.33S162,169.91,162,169.91s-11.47,3.82-15.59,5.74,1.22,37.53,1.22,37.53l-3.65,17.72h33.5l3-7.39a21.46,21.46,0,0,1-8.16.23,39.23,39.23,0,0,0,7.16-.23,37.1,37.1,0,0,0,7.23-8.62,24.93,24.93,0,0,0,1.31-2.14h0c6.4-11,9.95-24.23,9.95-24.23C199.68,178.43,191.43,181,191.43,181Z" fill="url(#New_Gradient_Swatch_copy_2-3)"/><path d="M191.14,181.4a6.87,6.87,0,0,1-.24-1.26l0-.53,0-.46a13.59,13.59,0,0,0-.32-1.81,5,5,0,0,0-1.73-2.92,3.87,3.87,0,0,0-3.26-.35,10.63,10.63,0,0,0-3.25,1.58l-1.31.92.54-1.49c2.71-7.46,5.28-15,7.48-22.6a113.53,113.53,0,0,0,2.77-11.54,34.37,34.37,0,0,0,.61-5.83,8,8,0,0,0-.37-2.76,1.63,1.63,0,0,0-.65-.9,1.31,1.31,0,0,0-1,0,6.86,6.86,0,0,0-2.21,1.61,15.88,15.88,0,0,0-1.81,2.25,17.27,17.27,0,0,0-1.44,2.51c-.39.89-.77,1.8-1.1,2.73-1.36,3.7-2.49,7.52-3.61,11.32l-3.35,11.45c-.59,1.9-1.17,3.81-1.88,5.69a11.38,11.38,0,0,1-1.39,2.8,2.42,2.42,0,0,1-.7.63,1.06,1.06,0,0,1-.71.1,1.17,1.17,0,0,1-.35-.17,2.27,2.27,0,0,1-.22-.23,3.54,3.54,0,0,1-.5-1.68v-.07l0-.1c2.07-7.55,4-15.14,5.52-22.81a102.85,102.85,0,0,0,1.7-11.57,31.28,31.28,0,0,0,0-5.77,7.76,7.76,0,0,0-.67-2.66,2.06,2.06,0,0,0-.74-.88,1.41,1.41,0,0,0-1,0,5.41,5.41,0,0,0-2.17,1.52,15.6,15.6,0,0,0-1.75,2.23,17.16,17.16,0,0,0-1.36,2.51c-.37.87-.68,1.79-1,2.71-1.14,3.71-2,7.54-2.83,11.36-1.62,7.65-3,15.37-4.25,23.1l0,.3-.29.1c-4.31,1.45-8.62,2.94-12.84,4.59l-1.57.64-.77.34-.37.17a.85.85,0,0,0-.19.15,3.49,3.49,0,0,0-.58,1.34,12.75,12.75,0,0,0-.28,1.62,49,49,0,0,0-.17,6.75c.15,4.53.55,9.06,1,13.59s1.06,9,1.71,13.54h0v.1l0,.08L144,230.9h33.5l2.51-7.57h0l.58.67a22,22,0,0,1-8.35.24l.1-1q1.77.09,3.55,0a34.45,34.45,0,0,0,3.51-.26l-.24.11a31,31,0,0,0,4.64-4.94q1-1.35,2-2.78c.64-1,1.2-1.93,1.8-2.89l.81.57h0l-3,3.36,2.23-3.94c1.07-1.89,2.1-3.81,3-5.78s1.82-4,2.62-6a121.49,121.49,0,0,0,4.25-12.35v0l.19-1.53c0-.51,0-1,0-1.52a5.58,5.58,0,0,0-.81-2.74,3.43,3.43,0,0,0-2.32-1.38,6.42,6.42,0,0,0-1.46-.06c-.25,0-.49.05-.74.08l-.37.07-.18,0-.09,0A.74.74,0,0,1,191.14,181.4Zm.59-.81a.35.35,0,0,0-.33-.1l.1,0,.21,0,.41-.08c.28,0,.55-.08.84-.1a7.42,7.42,0,0,1,1.7.07,4.44,4.44,0,0,1,3,1.79,6.54,6.54,0,0,1,1,3.26c0,.55,0,1.11,0,1.65l-.2,1.62v0a122.38,122.38,0,0,1-4.28,12.47c-.81,2-1.71,4.05-2.65,6s-2,3.93-3.07,5.85l-.81-.58v0l.81.57c-.61,1-1.21,2-1.84,3s-1.31,1.92-2,2.84a32,32,0,0,1-4.79,5.1l-.11.09-.13,0a35.22,35.22,0,0,1-3.64.27q-1.81,0-3.62,0l.1-1a21.07,21.07,0,0,0,8-.22l1-.25-.44.92h0l-3.43,7.2h-33.5l3.16-17.81v.17h0q-1-6.78-1.72-13.58c-.48-4.54-.88-9.09-1-13.66a49.88,49.88,0,0,1,.18-6.9,13.72,13.72,0,0,1,.31-1.74,4.34,4.34,0,0,1,.8-1.76,1.81,1.81,0,0,1,.48-.38l.41-.19.79-.35,1.59-.65c4.26-1.66,8.57-3.15,12.89-4.61l-.34.4c1.26-7.75,2.63-15.47,4.26-23.15.83-3.84,1.69-7.67,2.86-11.45.3-.94.62-1.88,1-2.81a18.15,18.15,0,0,1,1.43-2.66,16.58,16.58,0,0,1,1.87-2.39,6.32,6.32,0,0,1,2.61-1.78,2.41,2.41,0,0,1,1.8.13,3,3,0,0,1,1.15,1.3,8.66,8.66,0,0,1,.77,3,32.2,32.2,0,0,1,0,6,103.79,103.79,0,0,1-1.72,11.68C176,155.4,174,163,172,170.57l0-.17a2.82,2.82,0,0,0,.31,1.15l0,0s0,0,0,0,0,0,0,0a1.61,1.61,0,0,0,.39-.37,10.76,10.76,0,0,0,1.23-2.52c.7-1.83,1.27-3.73,1.86-5.63l3.35-11.44c1.13-3.81,2.25-7.63,3.63-11.39.33-.94.73-1.87,1.13-2.8a18.26,18.26,0,0,1,1.52-2.66,16.86,16.86,0,0,1,1.93-2.38,7.73,7.73,0,0,1,2.58-1.85,2.28,2.28,0,0,1,1.85,0A2.58,2.58,0,0,1,192.9,132a8.88,8.88,0,0,1,.44,3.11,35.28,35.28,0,0,1-.63,6,114.47,114.47,0,0,1-2.79,11.64c-2.21,7.66-4.79,15.19-7.5,22.67l-.77-.57a11.57,11.57,0,0,1,3.59-1.74,4.86,4.86,0,0,1,4.09.49,6,6,0,0,1,2.13,3.49,14.57,14.57,0,0,1,.35,1.95l0,.49a3.31,3.31,0,0,1,0,.42A2.7,2.7,0,0,1,191.72,180.59Z" fill="#f29e79"/><path d="M189.73,182.94s9.13-7.39,9.48,5.75c0,0-7.14,18.94-11.71,21.82s-8.82,1.43-6.92-3.6S188.28,185.13,189.73,182.94Z" stroke="#f29e79" stroke-miterlimit="10" stroke-width="0.7" fill="url(#New_Gradient_Swatch_copy_2-4)"/><path d="M182.14,176s9.13-7.39,9.48,5.75c0,0-7.14,18.94-11.71,21.82S171.08,205,173,200,180.68,178.2,182.14,176Z" stroke="#f29e79" stroke-miterlimit="10" stroke-width="0.7" fill="url(#New_Gradient_Swatch_copy_2-5)"/><path d="M146.38,176.66,162,170.91s17.45,3.73,18.81,4.41.94,8.92-13.87,6c0,0-6.46,1.21-5.92,5.19.71,5.14,9,13.79,1.47,21.57-12.24,12.57-14.86,6.12-14.86,6.12S143,180.69,146.38,176.66Z" fill="url(#New_Gradient_Swatch_copy_2-6)"/><path d="M146.38,176.66l15.47-6.07.09,0,.11,0h0l9.23,2c3.08.71,6.14,1.36,9.21,2.25l.31.12.16.06.2.14a1.55,1.55,0,0,1,.38.67,3.24,3.24,0,0,1,.07,1.32,4.72,4.72,0,0,1-1,2.3,7.63,7.63,0,0,1-4.21,2.44,23.31,23.31,0,0,1-9.52-.24H167a12.63,12.63,0,0,0-2.88.93,5.88,5.88,0,0,0-2.34,1.79,3.18,3.18,0,0,0-.4,2.79,17.83,17.83,0,0,0,1,2.9c.83,1.9,1.76,3.78,2.43,5.77a13.83,13.83,0,0,1,.81,6.19,10.32,10.32,0,0,1-2.68,5.58,50.89,50.89,0,0,1-4.54,4.3,21.58,21.58,0,0,1-5.25,3.36,6.53,6.53,0,0,1-3,.56,3,3,0,0,1-2.5-1.64h0c-.83-6.25-1.52-12.53-2-18.81-.24-3.14-.42-6.3-.46-9.45,0-1.58,0-3.16.13-4.73a20.93,20.93,0,0,1,.3-2.35A5.25,5.25,0,0,1,146.38,176.66Zm0,0a5.25,5.25,0,0,0-.82,2.19,20.93,20.93,0,0,0-.3,2.35c-.12,1.57-.14,3.15-.13,4.73,0,3.15.22,6.3.46,9.45.49,6.29,1.18,12.56,2,18.81h0a3,3,0,0,0,2.5,1.62,6.51,6.51,0,0,0,3-.58,21.53,21.53,0,0,0,5.22-3.38,51,51,0,0,0,4.51-4.31,10.06,10.06,0,0,0,2.58-5.54,13.6,13.6,0,0,0-.89-6.08c-.69-2-1.63-3.81-2.51-5.71a18.2,18.2,0,0,1-1.13-2.95,4.5,4.5,0,0,1-.18-1.63,3.44,3.44,0,0,1,.57-1.57,6.43,6.43,0,0,1,2.51-2,13.24,13.24,0,0,1,3-1.06H167a22.67,22.67,0,0,0,9.22.24A6.94,6.94,0,0,0,180,179a4,4,0,0,0,.87-2,2.57,2.57,0,0,0,0-1,.91.91,0,0,0-.19-.36l0,0-.12,0-.24-.09c-3-.86-6.08-1.52-9.14-2.23l-9.22-2h.19Z" fill="#f29e79"/><path d="M166.91,181.31s-10.67,1.42-4.42,9.74c0,0,5.84,8.86,1.12,15.66a14.36,14.36,0,0,0,3.88-15.61s-4.38-5.87,6.21-9.19C173.69,181.91,169.07,182.13,166.91,181.31Z" fill="#f29e79"/></g></g></svg>