<svg xmlns="http://www.w3.org/2000/svg" viewBox="0 0 109.80912 51.32213"><defs><style>.cls-1{fill:#fec010;stroke:#231f20;stroke-miterlimit:10;stroke-width:1.3px;}.cls-2{fill:#3eb87e;}.cls-3{fill:#231f20;}</style></defs><title>Asset 3</title><g id="Layer_2" data-name="Layer 2"><g id="Layer_1-2" data-name="Layer 1"><path class="cls-1" d="M83.06078,1.1098c.2914-.61306.76864-.61306,1.06,0l6.92336,14.5635a2.53483,2.53483,0,0,0,1.75461,1.2749l15.99027,2.08367c.67357.08829.82112.54207.32783,1.00881L97.4051,31.1252a2.5368,2.5368,0,0,0-.66986,2.06268l2.95912,15.85136c.12471.668-.26115.9483-.85755.62356l-14.16158-7.713a2.536,2.536,0,0,0-2.16887,0l-14.161,7.713c-.59639.32475-.98226.04445-.85817-.62356l2.95913-15.85136a2.53471,2.53471,0,0,0-.66986-2.06268L58.06533,20.04067c-.49329-.46674-.34574-.92052.32721-1.00881l15.99027-2.08367a2.53355,2.53355,0,0,0,1.75461-1.2749Z" transform="translate(-0.24947)"/><path class="cls-2" d="M22.24947,8.82213a20.5,20.5,0,1,1-20.5,20.5A20.528,20.528,0,0,1,22.24947,8.82213Z" transform="translate(-0.24947)"/><path class="cls-3" d="M42.74947,29.32213a20.5,20.5,0,1,0-20.5,20.5A20.528,20.528,0,0,0,42.74947,29.32213Zm1.5,0a22,22,0,1,1-22-22A22.00034,22.00034,0,0,1,44.24947,29.32213Z" transform="translate(-0.24947)"/></g></g></svg>