<svg xmlns="http://www.w3.org/2000/svg" version="1.1" xmlns:xlink="http://www.w3.org/1999/xlink" viewBox="0 0 287.41376 113.53775">
	<defs> 
		<style>
			.cls-3 {
			fill:url(#pattern);
			stroke: #000;
			stroke-width: 1px;
			}
			.cls-2 {
			fill: red;
			}
		</style>
		<!-- Da gradient -->
		<linearGradient id="gradient" x1="0%" y1="0%" x2="100%" y2="0">
			<stop offset="9%" style="stop-color:#ff344b;"/>
			<stop offset="18%" style="stop-color:#ef3c4e;"/>
			<stop offset="27%" style="stop-color:#f16747;"/>
			<stop offset="36%" style="stop-color:#f48a38;"/>
			<stop offset="45%" style="stop-color:#f5982f;"/>
			<stop offset="54%" style="stop-color:#f8b019;"/>
			<stop offset="63%" style="stop-color:#f5982f;"/>
			<stop offset="72%" style="stop-color:#f48a38;"/>
			<stop offset="81%" style="stop-color:#f16747;"/>
			<stop offset="90%" style="stop-color:#ef3c4e;"/>
			<stop offset="100%" style="stop-color:#ff344b;"/>
		</linearGradient>

		<!-- Stitch 2 gradients together for seamless animation  -->
		<pattern id="pattern" x="0" y="0" width="300%" height="100%" patternUnits="userSpaceOnUse">
			<rect x="0" y="0" width="150%" height="100%" fill="url(#gradient)">
				<animate attributeType="XML"
						 attributeName="x"
						 from="0" to="150%"
						 dur="7s"
						 repeatCount="indefinite"/>
			</rect>
			<rect x="-150%" y="0" width="150%" height="100%" fill="url(#gradient)">
				<animate attributeType="XML"
						 attributeName="x"
						 from="-150%" to="0"
						 dur="7s"
						 repeatCount="indefinite"/>
			</rect>
		</pattern>
	</defs>

	<!-- Background -->
	<rect x="0" y="0" fill="#fff" width="100%" height="100%" />

	<!-- Text using the #pattern in defs as the fill -->
	<g id="Layer_2" data-name="Layer 2">
		<g id="INTO_" data-name="INTO?">
			<path class="cls-1" d="M44.4014,90.47372a4.07688,4.07688,0,0,1-3.99651-4.87921L54.97783,13.03531a4.07518,4.07518,0,0,1,3.99651-3.273h5.29817A4.07688,4.07688,0,0,1,68.269,14.64148L53.69608,87.20068a4.07518,4.07518,0,0,1-3.99651,3.273Z" />
			<path class="cls-1" d="M141.00236,11.256a4.0741,4.0741,0,0,0-3.15263-1.4937h-5.30015a4.06923,4.06923,0,0,0-3.10944,1.447,1.84274,1.84274,0,0,0-.39184.29044L118.91184,21.6199c-1.13423,1.13242-2.31921,2.08438-2.71716,3.704-.148.60244-.2451,1.22243-.367,1.83056l-4.12627,20.58-.01534.0765-15.129-35.56776A4.07836,4.07836,0,0,0,92.8054,9.76226H87.50525a4.06837,4.06837,0,0,0-3.39817,1.8411l-10.53082,10.514c-.8945.89307-1.91821,1.70857-2.18125,3.01853L57.25551,95.65662c-.3245,1.61842-1.017,3.31242-.21612,4.90176a3.92274,3.92274,0,0,0,3.492,2.13863H66.7888a2.70134,2.70134,0,0,0,2.07011-.9817c.02316-.02086.0495-.03625.07182-.05858L81.05414,89.53333a1.81747,1.81747,0,0,0,.431-.70259,4.0457,4.0457,0,0,0,.74374-1.63108L86.7953,64.43906q1.84842,4.40883,3.69694,8.81762c2.324,5.54284,9.58853,22.27088,10.66107,25.19571.75752,2.06576,1.65765,4.24461,4.21546,4.24461h6.25738a2.70134,2.70134,0,0,0,2.07011-.9817c.02316-.02086.0495-.03625.07182-.05858l12.12341-12.12341c.02165-.02165.03651-.04726.05685-.06974a4.0572,4.0572,0,0,0,1.323-2.26295l14.57492-72.55917A4.07453,4.07453,0,0,0,141.00236,11.256ZM107.02391,71.06329v0Z" />
			<path class="cls-1" d="M202.85477,11.254a4.07537,4.07537,0,0,0-3.15263-1.49171H153.33426a4.06627,4.06627,0,0,0-3.59114,2.17553s-10.80719,10.8027-11.38205,11.36529c-2.2138,2.1665-2.05907,4.24841-2.05907,7.16015a4.27723,4.27723,0,0,0,4.26473,4.26468H156.238c-.4176,2.08276-12.84379,62.72077-12.84379,64.09a3.88442,3.88442,0,0,0,3.90342,3.87916h6.25733a2.70134,2.70134,0,0,0,2.07011-.9817c.02316-.02086.0495-.03625.07182-.05858,0,0,12.33888-12.7982,12.72377-13.73014a4.07,4.07,0,0,0,.22095-.726l10.542-52.47275h7.82624c1.70677,0,2.0107-.28443,3.88042-2.494l10.23033-10.4868a4.06454,4.06454,0,0,0,1.06192-1.08857s.03521-.03609.02749-.03761a4.04783,4.04783,0,0,0,.57115-1.39684l.91749-4.58561A4.0724,4.0724,0,0,0,202.85477,11.254Z" />
			<path class="cls-1" d="M258.86991,32.49275c0-13.46334-9.94356-23.23571-23.64276-23.23571a31.77127,31.77127,0,0,0-22.347,9.14343,31.27407,31.27407,0,0,0-3.01342,3.46538q-3.51913,3.478-7.03832,6.95611-1.784,1.76313-3.568,3.52636c-3.90165,3.857-6.19792,9.58193-7.45878,14.989-.23357.89287-.41691,1.671-.53813,2.24156l-4.02657,21.1391a68.35062,68.35062,0,0,0-1.12122,10.51444c0,12.37633,10.46912,22.40929,23.38337,22.40929a24.42622,24.42622,0,0,0,5.05782-.53161c9.806-.41,19.8699-8.59784,26.3208-17.50571a16.38487,16.38487,0,0,1,1.33821-1.45536c.72763-.59869,1.438-1.21871,2.10563-1.8862a28.35509,28.35509,0,0,0,5.52459-7.55094c2.69858-5.27292,4.21455-12.16055,6.41052-23.75512C258.21708,40.22307,258.86991,36.0504,258.86991,32.49275ZM221.97975,78.45368c-3.74772,0-10.0908-2.254-10.0908-10.70086,0-2.82919.48566-6.12213,2.47993-16.7881A125.50016,125.50016,0,0,1,218.052,35.0723a17.81809,17.81809,0,0,1,5.07326-.59285c3.74777,0,9.97871,2.02525,9.97871,10.471,0,2.83023-.3,6.004-2.36335,16.57649a134.86907,134.86907,0,0,1-3.86425,16.27089A18.29982,18.29982,0,0,1,221.97975,78.45368Z" />
			<path class="cls-1" d="M67.42514,11.36178a4.07631,4.07631,0,0,0-3.15263-1.4927H58.97434A4.0723,4.0723,0,0,0,55.91351,11.255a1.85949,1.85949,0,0,0-.30275.243q-4.67224,4.65245-9.33221,9.31727a17.29033,17.29033,0,0,0-2.9228,3.256c-1.63054,2.7725-1.81313,7.30581-2.459,10.52924Q39.74708,40.339,38.59657,46.07733,35.70424,60.503,32.8046,74.92711c-1.40212,6.97079-2.79326,13.94409-4.22621,20.90863-.11471.55753-.22808,1.11542-.34822,1.67181-.55081,2.55087.83351,5.18946,3.69946,5.18946H38.187a2.70144,2.70144,0,0,0,2.07016-.9817c.02311-.02086.0495-.03625.07177-.05858L52.4523,89.53333a1.80189,1.80189,0,0,0,.15533-.19043,4.04808,4.04808,0,0,0,1.08847-2.03543L68.269,14.7483A4.07769,4.07769,0,0,0,67.42514,11.36178Z" />
			<path class="cls-1" d="M7.5454,113.53775a1.30048,1.30048,0,0,1-.92247-.38224L6.2254,112.758a22.16618,22.16618,0,0,1-4.68625-5.79857A15.39978,15.39978,0,0,1,0,99.53378V14.00524A15.38838,15.38838,0,0,1,1.53915,6.57961,22.1849,22.1849,0,0,1,6.2356.7683L6.62293.38224a1.30423,1.30423,0,0,1,1.84494,0l2.56865,2.56992a1.30423,1.30423,0,0,1,0,1.84494l-.57973.57463a14.576,14.576,0,0,0-3.13054,3.839,12.43312,12.43312,0,0,0-.97216,5.23413V99.09166a12.44265,12.44265,0,0,0,.97471,5.2405,14.5578,14.5578,0,0,0,3.13181,3.83768l.57591.57208a1.30423,1.30423,0,0,1,0,1.84494l-2.56865,2.56865A1.30048,1.30048,0,0,1,7.5454,113.53775Z" />
			<path class="cls-1" d="M279.86836,113.53775a1.30048,1.30048,0,0,1-.92247-.38224l-2.71645-2.71645a1.30423,1.30423,0,0,1,0-1.84494l.57591-.57208a14.58933,14.58933,0,0,0,3.13564-3.84278,11.86623,11.86623,0,0,0,.89954-5.0876V14.44482a11.87325,11.87325,0,0,0-.90081-5.09015,14.60786,14.60786,0,0,0-3.13818-3.8415l-.57208-.56826a1.30423,1.30423,0,0,1,0-1.84494L278.94589.38224a1.30423,1.30423,0,0,1,1.84494,0l.39243.39243a22.07459,22.07459,0,0,1,4.69007,5.80366,14.52838,14.52838,0,0,1,1.54042,7.42691V99.53378a14.55472,14.55472,0,0,1-1.55571,7.45366,22.0306,22.0306,0,0,1-4.66459,5.76544l-.40263.40263A1.30048,1.30048,0,0,1,279.86836,113.53775Z" />
			<path class="cls-2" d="M44.50823,90.45592a4.07688,4.07688,0,0,1-3.99651-4.87921L55.08466,13.0175a4.07518,4.07518,0,0,1,3.99651-3.273h5.29817a4.07688,4.07688,0,0,1,3.99651,4.87921L53.80291,87.18288a4.07518,4.07518,0,0,1-3.99651,3.273Zm78.87342,0a4.07518,4.07518,0,0,0,3.99651-3.273l14.57493-72.55921a4.078,4.078,0,0,0-3.99651-4.87921h-5.30016a4.07606,4.07606,0,0,0-3.99651,3.274L118.51338,63.5929,96.66392,12.22537a4.07839,4.07839,0,0,0-3.75171-2.4809H87.61206a4.07518,4.07518,0,0,0-3.99651,3.273L69.0426,85.57671a4.07688,4.07688,0,0,0,3.99651,4.87921h5.30016a4.07606,4.07606,0,0,0,3.99651-3.274l10.14653-50.5744L114.33177,87.975a4.07839,4.07839,0,0,0,3.75171,2.4809Zm41.37028,0a4.07518,4.07518,0,0,0,3.99651-3.273l12.99862-64.70052h17.1444a4.07522,4.07522,0,0,0,3.99651-3.276l.91753-4.58564A4.075,4.075,0,0,0,199.809,9.74446H153.44108a4.07522,4.07522,0,0,0-3.99651,3.276l-.91753,4.58564a4.075,4.075,0,0,0,3.99651,4.87622h15.60989L155.45725,85.57671a4.078,4.078,0,0,0,3.99651,4.87921Zm79.81881-8.5314c6.7272-6.7272,8.49259-13.48027,11.82833-31.0924,1.96044-10.73366,2.61326-14.90632,2.61326-18.464,0-13.46335-9.94352-23.2357-23.64272-23.2357a31.77113,31.77113,0,0,0-22.347,9.14342c-6.72919,6.73018-8.49458,13.48326-11.82833,31.0914-1.96044,10.73466-2.61326,14.90831-2.61326,18.465,0,13.46335,9.94352,23.23471,23.64272,23.23471A31.77021,31.77021,0,0,0,244.57073,81.92452Zm.98918-49.35336c0,2.8302-.48563,6.12314-2.47991,16.78814C240.07665,65.62,238.20179,69.731,235.13673,72.797a17.65484,17.65484,0,0,1-13.01454,5.532c-3.74773,0-10.0908-2.254-10.0908-10.70082,0-2.8292.48563-6.12215,2.47991-16.78814,3.00336-16.25972,4.87821-20.37167,7.94526-23.43772a17.65762,17.65762,0,0,1,13.01454-5.531C239.21883,21.87133,245.55991,24.12534,245.55991,32.57116Z" />
			<path class="cls-3" d="M44.50823,90.45592a4.07688,4.07688,0,0,1-3.99651-4.87921L55.08466,13.0175a4.07518,4.07518,0,0,1,3.99651-3.273h5.29817a4.07688,4.07688,0,0,1,3.99651,4.87921L53.80291,87.18288a4.07518,4.07518,0,0,1-3.99651,3.273Zm78.87342,0a4.07518,4.07518,0,0,0,3.99651-3.273l14.57493-72.55921a4.078,4.078,0,0,0-3.99651-4.87921h-5.30016a4.07606,4.07606,0,0,0-3.99651,3.274L118.51338,63.5929,96.66392,12.22537a4.07839,4.07839,0,0,0-3.75171-2.4809H87.61206a4.07518,4.07518,0,0,0-3.99651,3.273L69.0426,85.57671a4.07688,4.07688,0,0,0,3.99651,4.87921h5.30016a4.07606,4.07606,0,0,0,3.99651-3.274l10.14653-50.5744L114.33177,87.975a4.07839,4.07839,0,0,0,3.75171,2.4809Zm41.37028,0a4.07518,4.07518,0,0,0,3.99651-3.273l12.99862-64.70052h17.1444a4.07522,4.07522,0,0,0,3.99651-3.276l.91753-4.58564A4.075,4.075,0,0,0,199.809,9.74446H153.44108a4.07522,4.07522,0,0,0-3.99651,3.276l-.91753,4.58564a4.075,4.075,0,0,0,3.99651,4.87622h15.60989L155.45725,85.57671a4.078,4.078,0,0,0,3.99651,4.87921Zm79.81881-8.5314c6.7272-6.7272,8.49259-13.48027,11.82833-31.0924,1.96044-10.73366,2.61326-14.90632,2.61326-18.464,0-13.46335-9.94352-23.2357-23.64272-23.2357a31.77113,31.77113,0,0,0-22.347,9.14342c-6.72919,6.73018-8.49458,13.48326-11.82833,31.0914-1.96044,10.73466-2.61326,14.90831-2.61326,18.465,0,13.46335,9.94352,23.23471,23.64272,23.23471A31.77021,31.77021,0,0,0,244.57073,81.92452Zm.98918-49.35336c0,2.8302-.48563,6.12314-2.47991,16.78814C240.07665,65.62,238.20179,69.731,235.13673,72.797a17.65484,17.65484,0,0,1-13.01454,5.532c-3.74773,0-10.0908-2.254-10.0908-10.70082,0-2.8292.48563-6.12215,2.47991-16.78814,3.00336-16.25972,4.87821-20.37167,7.94526-23.43772a17.65762,17.65762,0,0,1,13.01454-5.531C239.21883,21.87133,245.55991,24.12534,245.55991,32.57116Z" />
		</g>
	</g>

</svg>