<svg xmlns="http://www.w3.org/2000/svg" viewBox="0 0 18.8 16.78"><defs><style>.cls-1{fill:#fff;}</style></defs><title>Asset 1</title><g id="Layer_2" data-name="Layer 2"><g id="Layer_1-2" data-name="Layer 1"><path class="cls-1" d="M18.6,5.56,13.23.19a.67.67,0,0,0-1.14.47V3.35H9.74Q2.26,3.35.56,7.58A9.55,9.55,0,0,0,0,11.07,12.59,12.59,0,0,0,1.34,15.8l.11.25.14.31a1.19,1.19,0,0,0,.14.23.36.36,0,0,0,.29.18.31.31,0,0,0,.25-.1.39.39,0,0,0,.09-.26,2.14,2.14,0,0,0,0-.28,2.17,2.17,0,0,1,0-.25q-.05-.71-.05-1.29a8.93,8.93,0,0,1,.18-1.9,5.7,5.7,0,0,1,.51-1.45,3.65,3.65,0,0,1,.84-1.06,4.92,4.92,0,0,1,1.11-.73A6,6,0,0,1,6.28,9,13.3,13.3,0,0,1,7.9,8.78q.81-.06,1.84-.06h2.35v2.69a.67.67,0,0,0,1.14.47L18.6,6.51a.66.66,0,0,0,0-.93h0Z"/></g></g></svg>