<svg xmlns="http://www.w3.org/2000/svg" viewBox="0 0 84.06 47.56"><defs><style>.cls-1{fill:none;}.cls-2{fill:#fff;}</style></defs><title>Asset 2</title><g id="Layer_2" data-name="Layer 2"><g id="Layer_1-2" data-name="Layer 1"><rect class="cls-1" x="82.67" y="2.89" width="0.59" height="0.59"/><circle class="cls-2" cx="82.96" cy="3.19" r="0.3"/><rect class="cls-1" x="81.25" y="1.47" width="0.59" height="0.59"/><circle class="cls-2" cx="81.54" cy="1.77" r="0.3"/><rect class="cls-1" x="79.83" y="0.05" width="0.59" height="0.59"/><circle class="cls-2" cx="80.12" cy="0.35" r="0.3"/><rect class="cls-1" x="77.84" width="0.59" height="0.59"/><circle class="cls-2" cx="78.13" cy="0.3" r="0.3"/><rect class="cls-1" x="75.83" width="0.59" height="0.59"/><circle class="cls-2" cx="76.13" cy="0.3" r="0.3"/><rect class="cls-1" x="73.82" width="0.59" height="0.59"/><circle class="cls-2" cx="74.12" cy="0.3" r="0.3"/><rect class="cls-1" x="71.81" width="0.59" height="0.59"/><circle class="cls-2" cx="72.11" cy="0.3" r="0.3"/><rect class="cls-1" x="69.8" width="0.59" height="0.59"/><circle class="cls-2" cx="70.1" cy="0.3" r="0.3"/><rect class="cls-1" x="67.8" width="0.59" height="0.59"/><circle class="cls-2" cx="68.09" cy="0.3" r="0.3"/><rect class="cls-1" x="65.79" width="0.59" height="0.59"/><circle class="cls-2" cx="66.08" cy="0.3" r="0.3"/><rect class="cls-1" x="63.78" width="0.59" height="0.59"/><circle class="cls-2" cx="64.07" cy="0.3" r="0.3"/><rect class="cls-1" x="61.77" width="0.59" height="0.59"/><circle class="cls-2" cx="62.06" cy="0.3" r="0.3"/><rect class="cls-1" x="59.76" width="0.59" height="0.59"/><circle class="cls-2" cx="60.06" cy="0.3" r="0.3"/><rect class="cls-1" x="57.75" width="0.59" height="0.59"/><circle class="cls-2" cx="58.05" cy="0.3" r="0.3"/><rect class="cls-1" x="55.74" width="0.59" height="0.59"/><circle class="cls-2" cx="56.04" cy="0.3" r="0.3"/><rect class="cls-1" x="53.73" width="0.59" height="0.59"/><circle class="cls-2" cx="54.03" cy="0.3" r="0.3"/><rect class="cls-1" x="51.73" width="0.59" height="0.59"/><circle class="cls-2" cx="52.02" cy="0.3" r="0.3"/><rect class="cls-1" x="49.72" width="0.59" height="0.59"/><circle class="cls-2" cx="50.01" cy="0.3" r="0.3"/><rect class="cls-1" x="47.71" width="0.59" height="0.59"/><circle class="cls-2" cx="48" cy="0.3" r="0.3"/><rect class="cls-1" x="45.7" width="0.59" height="0.59"/><circle class="cls-2" cx="45.99" cy="0.3" r="0.3"/><rect class="cls-1" x="43.69" width="0.59" height="0.59"/><circle class="cls-2" cx="43.99" cy="0.3" r="0.3"/><rect class="cls-1" x="41.68" width="0.59" height="0.59"/><circle class="cls-2" cx="41.98" cy="0.3" r="0.3"/><rect class="cls-1" x="39.67" width="0.59" height="0.59"/><circle class="cls-2" cx="39.97" cy="0.3" r="0.3"/><rect class="cls-1" x="37.66" width="0.59" height="0.59"/><circle class="cls-2" cx="37.96" cy="0.3" r="0.3"/><rect class="cls-1" x="35.66" width="0.59" height="0.59"/><circle class="cls-2" cx="35.95" cy="0.3" r="0.3"/><rect class="cls-1" x="33.65" width="0.59" height="0.59"/><circle class="cls-2" cx="33.94" cy="0.3" r="0.3"/><rect class="cls-1" x="31.64" width="0.59" height="0.59"/><circle class="cls-2" cx="31.93" cy="0.3" r="0.3"/><rect class="cls-1" x="29.63" width="0.59" height="0.59"/><circle class="cls-2" cx="29.92" cy="0.3" r="0.3"/><rect class="cls-1" x="27.62" width="0.59" height="0.59"/><circle class="cls-2" cx="27.92" cy="0.3" r="0.3"/><rect class="cls-1" x="25.61" width="0.59" height="0.59"/><circle class="cls-2" cx="25.91" cy="0.3" r="0.3"/><rect class="cls-1" x="23.6" width="0.59" height="0.59"/><circle class="cls-2" cx="23.9" cy="0.3" r="0.3"/><rect class="cls-1" x="21.59" width="0.59" height="0.59"/><circle class="cls-2" cx="21.89" cy="0.3" r="0.3"/><rect class="cls-1" x="19.59" width="0.59" height="0.59"/><circle class="cls-2" cx="19.88" cy="0.3" r="0.3"/><rect class="cls-1" x="17.58" width="0.59" height="0.59"/><circle class="cls-2" cx="17.87" cy="0.3" r="0.3"/><rect class="cls-1" x="15.57" width="0.59" height="0.59"/><circle class="cls-2" cx="15.86" cy="0.3" r="0.3"/><rect class="cls-1" x="13.56" width="0.59" height="0.59"/><circle class="cls-2" cx="13.85" cy="0.3" r="0.3"/><rect class="cls-1" x="11.55" width="0.59" height="0.59"/><circle class="cls-2" cx="11.85" cy="0.3" r="0.3"/><rect class="cls-1" x="9.54" width="0.59" height="0.59"/><circle class="cls-2" cx="9.84" cy="0.3" r="0.3"/><rect class="cls-1" x="7.53" width="0.59" height="0.59"/><circle class="cls-2" cx="7.83" cy="0.3" r="0.3"/><rect class="cls-1" x="5.52" width="0.59" height="0.59"/><circle class="cls-2" cx="5.82" cy="0.3" r="0.3"/><rect class="cls-1" x="3.57" y="0.13" width="0.59" height="0.59"/><circle class="cls-2" cx="3.86" cy="0.42" r="0.3"/><rect class="cls-1" x="2.15" y="1.55" width="0.59" height="0.59"/><circle class="cls-2" cx="2.44" cy="1.84" r="0.3"/><rect class="cls-1" x="0.73" y="2.97" width="0.59" height="0.59"/><circle class="cls-2" cx="1.02" cy="3.26" r="0.3"/><rect class="cls-1" y="4.67" width="0.59" height="0.59"/><circle class="cls-2" cx="0.3" cy="4.97" r="0.3"/><rect class="cls-1" y="6.68" width="0.59" height="0.59"/><circle class="cls-2" cx="0.3" cy="6.98" r="0.3"/><rect class="cls-1" y="8.69" width="0.59" height="0.59"/><circle class="cls-2" cx="0.3" cy="8.99" r="0.3"/><rect class="cls-1" y="10.7" width="0.59" height="0.59"/><circle class="cls-2" cx="0.3" cy="11" r="0.3"/><rect class="cls-1" y="12.71" width="0.59" height="0.59"/><circle class="cls-2" cx="0.3" cy="13.01" r="0.3"/><rect class="cls-1" y="14.72" width="0.59" height="0.59"/><circle class="cls-2" cx="0.3" cy="15.01" r="0.3"/><rect class="cls-1" y="16.73" width="0.59" height="0.59"/><circle class="cls-2" cx="0.3" cy="17.02" r="0.3"/><rect class="cls-1" y="18.74" width="0.59" height="0.59"/><circle class="cls-2" cx="0.3" cy="19.03" r="0.3"/><rect class="cls-1" y="20.74" width="0.59" height="0.59"/><circle class="cls-2" cx="0.3" cy="21.04" r="0.3"/><rect class="cls-1" y="22.75" width="0.59" height="0.59"/><circle class="cls-2" cx="0.3" cy="23.05" r="0.3"/><rect class="cls-1" y="24.76" width="0.59" height="0.59"/><circle class="cls-2" cx="0.3" cy="25.06" r="0.3"/><rect class="cls-1" y="26.77" width="0.59" height="0.59"/><circle class="cls-2" cx="0.3" cy="27.07" r="0.3"/><rect class="cls-1" y="28.78" width="0.59" height="0.59"/><circle class="cls-2" cx="0.3" cy="29.08" r="0.3"/><rect class="cls-1" y="30.79" width="0.59" height="0.59"/><circle class="cls-2" cx="0.3" cy="31.08" r="0.3"/><rect class="cls-1" y="32.8" width="0.59" height="0.59"/><circle class="cls-2" cx="0.3" cy="33.09" r="0.3"/><rect class="cls-1" y="34.81" width="0.59" height="0.59"/><circle class="cls-2" cx="0.3" cy="35.1" r="0.3"/><rect class="cls-1" y="36.81" width="0.59" height="0.59"/><circle class="cls-2" cx="0.3" cy="37.11" r="0.3"/><rect class="cls-1" y="38.82" width="0.59" height="0.59"/><circle class="cls-2" cx="0.3" cy="39.12" r="0.3"/><rect class="cls-1" y="40.83" width="0.59" height="0.59"/><circle class="cls-2" cx="0.3" cy="41.13" r="0.3"/><rect class="cls-1" y="42.84" width="0.59" height="0.59"/><circle class="cls-2" cx="0.3" cy="43.14" r="0.3"/><rect class="cls-1" x="1.11" y="44.39" width="0.59" height="0.59"/><circle class="cls-2" cx="1.41" cy="44.69" r="0.3"/><rect class="cls-1" x="2.53" y="45.81" width="0.59" height="0.59"/><circle class="cls-2" cx="2.83" cy="46.11" r="0.3"/><rect class="cls-1" x="4.06" y="46.97" width="0.59" height="0.59"/><circle class="cls-2" cx="4.35" cy="47.27" r="0.3"/><rect class="cls-1" x="6.07" y="46.97" width="0.59" height="0.59"/><circle class="cls-2" cx="6.36" cy="47.27" r="0.3"/><rect class="cls-1" x="8.08" y="46.97" width="0.59" height="0.59"/><circle class="cls-2" cx="8.37" cy="47.27" r="0.3"/><rect class="cls-1" x="10.08" y="46.97" width="0.59" height="0.59"/><circle class="cls-2" cx="10.38" cy="47.27" r="0.3"/><rect class="cls-1" x="12.09" y="46.97" width="0.59" height="0.59"/><circle class="cls-2" cx="12.39" cy="47.27" r="0.3"/><rect class="cls-1" x="14.1" y="46.97" width="0.59" height="0.59"/><circle class="cls-2" cx="14.4" cy="47.27" r="0.3"/><rect class="cls-1" x="16.11" y="46.97" width="0.59" height="0.59"/><circle class="cls-2" cx="16.41" cy="47.27" r="0.3"/><rect class="cls-1" x="18.12" y="46.97" width="0.59" height="0.59"/><circle class="cls-2" cx="18.41" cy="47.27" r="0.3"/><rect class="cls-1" x="20.13" y="46.97" width="0.59" height="0.59"/><circle class="cls-2" cx="20.42" cy="47.27" r="0.3"/><rect class="cls-1" x="22.14" y="46.97" width="0.59" height="0.59"/><circle class="cls-2" cx="22.43" cy="47.27" r="0.3"/><rect class="cls-1" x="24.15" y="46.97" width="0.59" height="0.59"/><circle class="cls-2" cx="24.44" cy="47.27" r="0.3"/><rect class="cls-1" x="26.15" y="46.97" width="0.59" height="0.59"/><circle class="cls-2" cx="26.45" cy="47.27" r="0.3"/><rect class="cls-1" x="28.16" y="46.97" width="0.59" height="0.59"/><circle class="cls-2" cx="28.46" cy="47.27" r="0.3"/><rect class="cls-1" x="30.17" y="46.97" width="0.59" height="0.59"/><circle class="cls-2" cx="30.47" cy="47.27" r="0.3"/><rect class="cls-1" x="32.18" y="46.97" width="0.59" height="0.59"/><circle class="cls-2" cx="32.48" cy="47.27" r="0.3"/><rect class="cls-1" x="34.19" y="46.97" width="0.59" height="0.59"/><circle class="cls-2" cx="34.48" cy="47.27" r="0.3"/><rect class="cls-1" x="36.2" y="46.97" width="0.59" height="0.59"/><circle class="cls-2" cx="36.49" cy="47.27" r="0.3"/><rect class="cls-1" x="38.21" y="46.97" width="0.59" height="0.59"/><circle class="cls-2" cx="38.5" cy="47.27" r="0.3"/><rect class="cls-1" x="40.22" y="46.97" width="0.59" height="0.59"/><circle class="cls-2" cx="40.51" cy="47.27" r="0.3"/><rect class="cls-1" x="42.22" y="46.97" width="0.59" height="0.59"/><circle class="cls-2" cx="42.52" cy="47.27" r="0.3"/><rect class="cls-1" x="44.23" y="46.97" width="0.59" height="0.59"/><circle class="cls-2" cx="44.53" cy="47.27" r="0.3"/><rect class="cls-1" x="46.24" y="46.97" width="0.59" height="0.59"/><circle class="cls-2" cx="46.54" cy="47.27" r="0.3"/><rect class="cls-1" x="48.25" y="46.97" width="0.59" height="0.59"/><circle class="cls-2" cx="48.55" cy="47.27" r="0.3"/><rect class="cls-1" x="50.26" y="46.97" width="0.59" height="0.59"/><circle class="cls-2" cx="50.55" cy="47.27" r="0.3"/><rect class="cls-1" x="52.27" y="46.97" width="0.59" height="0.59"/><circle class="cls-2" cx="52.56" cy="47.27" r="0.3"/><rect class="cls-1" x="54.28" y="46.97" width="0.59" height="0.59"/><circle class="cls-2" cx="54.57" cy="47.27" r="0.3"/><rect class="cls-1" x="56.29" y="46.97" width="0.59" height="0.59"/><circle class="cls-2" cx="56.58" cy="47.27" r="0.3"/><rect class="cls-1" x="58.29" y="46.97" width="0.59" height="0.59"/><circle class="cls-2" cx="58.59" cy="47.27" r="0.3"/><rect class="cls-1" x="60.3" y="46.97" width="0.59" height="0.59"/><circle class="cls-2" cx="60.6" cy="47.27" r="0.3"/><rect class="cls-1" x="62.31" y="46.97" width="0.59" height="0.59"/><circle class="cls-2" cx="62.61" cy="47.27" r="0.3"/><rect class="cls-1" x="64.32" y="46.97" width="0.59" height="0.59"/><circle class="cls-2" cx="64.62" cy="47.27" r="0.3"/><rect class="cls-1" x="66.33" y="46.97" width="0.59" height="0.59"/><circle class="cls-2" cx="66.62" cy="47.27" r="0.3"/><rect class="cls-1" x="68.34" y="46.97" width="0.59" height="0.59"/><circle class="cls-2" cx="68.63" cy="47.27" r="0.3"/><rect class="cls-1" x="70.35" y="46.97" width="0.59" height="0.59"/><circle class="cls-2" cx="70.64" cy="47.27" r="0.3"/><rect class="cls-1" x="72.36" y="46.97" width="0.59" height="0.59"/><circle class="cls-2" cx="72.65" cy="47.27" r="0.3"/><rect class="cls-1" x="74.36" y="46.97" width="0.59" height="0.59"/><circle class="cls-2" cx="74.66" cy="47.27" r="0.3"/><rect class="cls-1" x="76.37" y="46.97" width="0.59" height="0.59"/><circle class="cls-2" cx="76.67" cy="47.27" r="0.3"/><rect class="cls-1" x="78.38" y="46.97" width="0.59" height="0.59"/><circle class="cls-2" cx="78.68" cy="47.27" r="0.3"/><rect class="cls-1" x="80.21" y="46.54" width="0.59" height="0.59"/><circle class="cls-2" cx="80.51" cy="46.83" r="0.3"/><rect class="cls-1" x="81.63" y="45.12" width="0.59" height="0.59"/><circle class="cls-2" cx="81.93" cy="45.41" r="0.3"/><rect class="cls-1" x="83.05" y="43.7" width="0.59" height="0.59"/><circle class="cls-2" cx="83.35" cy="43.99" r="0.3"/><rect class="cls-1" x="83.47" y="41.86" width="0.59" height="0.59"/><circle class="cls-2" cx="83.76" cy="42.16" r="0.3"/><rect class="cls-1" x="83.47" y="39.85" width="0.59" height="0.59"/><circle class="cls-2" cx="83.76" cy="40.15" r="0.3"/><rect class="cls-1" x="83.47" y="37.84" width="0.59" height="0.59"/><circle class="cls-2" cx="83.76" cy="38.14" r="0.3"/><rect class="cls-1" x="83.47" y="35.83" width="0.59" height="0.59"/><circle class="cls-2" cx="83.76" cy="36.13" r="0.3"/><rect class="cls-1" x="83.47" y="33.82" width="0.59" height="0.59"/><circle class="cls-2" cx="83.76" cy="34.12" r="0.3"/><rect class="cls-1" x="83.47" y="31.82" width="0.59" height="0.59"/><circle class="cls-2" cx="83.76" cy="32.11" r="0.3"/><rect class="cls-1" x="83.47" y="29.81" width="0.59" height="0.59"/><circle class="cls-2" cx="83.76" cy="30.1" r="0.3"/><rect class="cls-1" x="83.47" y="27.8" width="0.59" height="0.59"/><circle class="cls-2" cx="83.76" cy="28.09" r="0.3"/><rect class="cls-1" x="83.47" y="25.79" width="0.59" height="0.59"/><circle class="cls-2" cx="83.76" cy="26.09" r="0.3"/><rect class="cls-1" x="83.47" y="23.78" width="0.59" height="0.59"/><circle class="cls-2" cx="83.76" cy="24.08" r="0.3"/><rect class="cls-1" x="83.47" y="21.77" width="0.59" height="0.59"/><circle class="cls-2" cx="83.76" cy="22.07" r="0.3"/><rect class="cls-1" x="83.47" y="19.76" width="0.59" height="0.59"/><circle class="cls-2" cx="83.76" cy="20.06" r="0.3"/><rect class="cls-1" x="83.47" y="17.75" width="0.59" height="0.59"/><circle class="cls-2" cx="83.76" cy="18.05" r="0.3"/><rect class="cls-1" x="83.47" y="15.75" width="0.59" height="0.59"/><circle class="cls-2" cx="83.76" cy="16.04" r="0.3"/><rect class="cls-1" x="83.47" y="13.74" width="0.59" height="0.59"/><circle class="cls-2" cx="83.76" cy="14.03" r="0.3"/><rect class="cls-1" x="83.47" y="11.73" width="0.59" height="0.59"/><circle class="cls-2" cx="83.76" cy="12.02" r="0.3"/><rect class="cls-1" x="83.47" y="9.72" width="0.59" height="0.59"/><circle class="cls-2" cx="83.76" cy="10.02" r="0.3"/><rect class="cls-1" x="83.47" y="7.71" width="0.59" height="0.59"/><circle class="cls-2" cx="83.76" cy="8.01" r="0.3"/><rect class="cls-1" x="83.47" y="5.7" width="0.59" height="0.59"/><circle class="cls-2" cx="83.76" cy="6" r="0.3"/><rect class="cls-1" x="83.47" y="3.69" width="0.59" height="0.59"/><circle class="cls-2" cx="83.76" cy="3.99" r="0.3"/><rect class="cls-1" x="71.92" y="3.46" width="0.58" height="0.58"/><circle class="cls-2" cx="72.21" cy="3.74" r="0.29"/><rect class="cls-1" x="69.97" y="3.46" width="0.58" height="0.58"/><circle class="cls-2" cx="70.25" cy="3.74" r="0.29"/><rect class="cls-1" x="68.01" y="3.46" width="0.58" height="0.58"/><circle class="cls-2" cx="68.3" cy="3.74" r="0.29"/><rect class="cls-1" x="66.05" y="3.46" width="0.58" height="0.58"/><circle class="cls-2" cx="66.34" cy="3.74" r="0.29"/><rect class="cls-1" x="64.09" y="3.46" width="0.58" height="0.58"/><circle class="cls-2" cx="64.38" cy="3.74" r="0.29"/><rect class="cls-1" x="62.14" y="3.46" width="0.58" height="0.58"/><circle class="cls-2" cx="62.42" cy="3.74" r="0.29"/><rect class="cls-1" x="60.18" y="3.46" width="0.58" height="0.58"/><circle class="cls-2" cx="60.47" cy="3.74" r="0.29"/><rect class="cls-1" x="58.22" y="3.46" width="0.58" height="0.58"/><circle class="cls-2" cx="58.51" cy="3.74" r="0.29"/><rect class="cls-1" x="56.26" y="3.46" width="0.58" height="0.58"/><circle class="cls-2" cx="56.55" cy="3.74" r="0.29"/><rect class="cls-1" x="54.31" y="3.46" width="0.58" height="0.58"/><circle class="cls-2" cx="54.59" cy="3.74" r="0.29"/><rect class="cls-1" x="52.35" y="3.46" width="0.58" height="0.58"/><circle class="cls-2" cx="52.64" cy="3.74" r="0.29"/><rect class="cls-1" x="50.39" y="3.46" width="0.58" height="0.58"/><circle class="cls-2" cx="50.68" cy="3.74" r="0.29"/><rect class="cls-1" x="48.43" y="3.46" width="0.58" height="0.58"/><circle class="cls-2" cx="48.72" cy="3.74" r="0.29"/><rect class="cls-1" x="46.47" y="3.46" width="0.58" height="0.58"/><circle class="cls-2" cx="46.76" cy="3.74" r="0.29"/><rect class="cls-1" x="44.52" y="3.46" width="0.58" height="0.58"/><circle class="cls-2" cx="44.8" cy="3.74" r="0.29"/><rect class="cls-1" x="42.56" y="3.46" width="0.58" height="0.58"/><circle class="cls-2" cx="42.85" cy="3.74" r="0.29"/><rect class="cls-1" x="40.6" y="3.46" width="0.58" height="0.58"/><circle class="cls-2" cx="40.89" cy="3.74" r="0.29"/><rect class="cls-1" x="38.64" y="3.46" width="0.58" height="0.58"/><circle class="cls-2" cx="38.93" cy="3.74" r="0.29"/><rect class="cls-1" x="36.69" y="3.46" width="0.58" height="0.58"/><circle class="cls-2" cx="36.97" cy="3.74" r="0.29"/><rect class="cls-1" x="34.73" y="3.46" width="0.58" height="0.58"/><circle class="cls-2" cx="35.02" cy="3.74" r="0.29"/><rect class="cls-1" x="32.77" y="3.46" width="0.58" height="0.58"/><circle class="cls-2" cx="33.06" cy="3.74" r="0.29"/><rect class="cls-1" x="30.81" y="3.46" width="0.58" height="0.58"/><circle class="cls-2" cx="31.1" cy="3.74" r="0.29"/><rect class="cls-1" x="28.86" y="3.46" width="0.58" height="0.58"/><circle class="cls-2" cx="29.14" cy="3.74" r="0.29"/><rect class="cls-1" x="26.9" y="3.46" width="0.58" height="0.58"/><circle class="cls-2" cx="27.19" cy="3.74" r="0.29"/><rect class="cls-1" x="24.94" y="3.46" width="0.58" height="0.58"/><circle class="cls-2" cx="25.23" cy="3.74" r="0.29"/><rect class="cls-1" x="22.98" y="3.46" width="0.58" height="0.58"/><circle class="cls-2" cx="23.27" cy="3.74" r="0.29"/><rect class="cls-1" x="21.03" y="3.46" width="0.58" height="0.58"/><circle class="cls-2" cx="21.31" cy="3.74" r="0.29"/><rect class="cls-1" x="19.07" y="3.46" width="0.58" height="0.58"/><circle class="cls-2" cx="19.36" cy="3.74" r="0.29"/><rect class="cls-1" x="17.11" y="3.46" width="0.58" height="0.58"/><circle class="cls-2" cx="17.4" cy="3.74" r="0.29"/><rect class="cls-1" x="15.15" y="3.46" width="0.58" height="0.58"/><circle class="cls-2" cx="15.44" cy="3.74" r="0.29"/><rect class="cls-1" x="13.19" y="3.46" width="0.58" height="0.58"/><circle class="cls-2" cx="13.48" cy="3.74" r="0.29"/><rect class="cls-1" x="11.24" y="3.46" width="0.58" height="0.58"/><circle class="cls-2" cx="11.52" cy="3.74" r="0.29"/><rect class="cls-1" x="9.28" y="3.46" width="0.58" height="0.58"/><circle class="cls-2" cx="9.57" cy="3.74" r="0.29"/><rect class="cls-1" x="7.32" y="3.46" width="0.58" height="0.58"/><circle class="cls-2" cx="7.61" cy="3.74" r="0.29"/><rect class="cls-1" x="6.96" y="5.06" width="0.58" height="0.58"/><circle class="cls-2" cx="7.25" cy="5.34" r="0.29"/><rect class="cls-1" x="6.96" y="7.01" width="0.58" height="0.58"/><circle class="cls-2" cx="7.25" cy="7.3" r="0.29"/><rect class="cls-1" x="6.96" y="8.97" width="0.58" height="0.58"/><circle class="cls-2" cx="7.25" cy="9.26" r="0.29"/><rect class="cls-1" x="6.96" y="10.93" width="0.58" height="0.58"/><circle class="cls-2" cx="7.25" cy="11.22" r="0.29"/><rect class="cls-1" x="6.96" y="12.89" width="0.58" height="0.58"/><circle class="cls-2" cx="7.25" cy="13.17" r="0.29"/><rect class="cls-1" x="6.96" y="14.84" width="0.58" height="0.58"/><circle class="cls-2" cx="7.25" cy="15.13" r="0.29"/><rect class="cls-1" x="6.96" y="16.8" width="0.58" height="0.58"/><circle class="cls-2" cx="7.25" cy="17.09" r="0.29"/><rect class="cls-1" x="6.96" y="18.76" width="0.58" height="0.58"/><circle class="cls-2" cx="7.25" cy="19.05" r="0.29"/><rect class="cls-1" x="6.96" y="20.72" width="0.58" height="0.58"/><circle class="cls-2" cx="7.25" cy="21.01" r="0.29"/><rect class="cls-1" x="6.96" y="22.67" width="0.58" height="0.58"/><circle class="cls-2" cx="7.25" cy="22.96" r="0.29"/><rect class="cls-1" x="6.96" y="24.63" width="0.58" height="0.58"/><circle class="cls-2" cx="7.25" cy="24.92" r="0.29"/><rect class="cls-1" x="6.96" y="26.59" width="0.58" height="0.58"/><circle class="cls-2" cx="7.25" cy="26.88" r="0.29"/><rect class="cls-1" x="6.96" y="28.55" width="0.58" height="0.58"/><circle class="cls-2" cx="7.25" cy="28.84" r="0.29"/><rect class="cls-1" x="6.96" y="30.51" width="0.58" height="0.58"/><circle class="cls-2" cx="7.25" cy="30.79" r="0.29"/><rect class="cls-1" x="6.96" y="32.46" width="0.58" height="0.58"/><circle class="cls-2" cx="7.25" cy="32.75" r="0.29"/><rect class="cls-1" x="6.96" y="34.42" width="0.58" height="0.58"/><circle class="cls-2" cx="7.25" cy="34.71" r="0.29"/><rect class="cls-1" x="6.96" y="36.38" width="0.58" height="0.58"/><circle class="cls-2" cx="7.25" cy="36.67" r="0.29"/><rect class="cls-1" x="6.96" y="38.34" width="0.58" height="0.58"/><circle class="cls-2" cx="7.25" cy="38.62" r="0.29"/><rect class="cls-1" x="6.96" y="40.29" width="0.58" height="0.58"/><circle class="cls-2" cx="7.25" cy="40.58" r="0.29"/><rect class="cls-1" x="6.96" y="42.25" width="0.58" height="0.58"/><circle class="cls-2" cx="7.25" cy="42.54" r="0.29"/><rect class="cls-1" x="7.64" y="43.53" width="0.58" height="0.58"/><circle class="cls-2" cx="7.93" cy="43.82" r="0.29"/><rect class="cls-1" x="9.6" y="43.53" width="0.58" height="0.58"/><circle class="cls-2" cx="9.89" cy="43.82" r="0.29"/><rect class="cls-1" x="11.56" y="43.53" width="0.58" height="0.58"/><circle class="cls-2" cx="11.84" cy="43.82" r="0.29"/><rect class="cls-1" x="13.51" y="43.53" width="0.58" height="0.58"/><circle class="cls-2" cx="13.8" cy="43.82" r="0.29"/><rect class="cls-1" x="15.47" y="43.53" width="0.58" height="0.58"/><circle class="cls-2" cx="15.76" cy="43.82" r="0.29"/><rect class="cls-1" x="17.43" y="43.53" width="0.58" height="0.58"/><circle class="cls-2" cx="17.72" cy="43.82" r="0.29"/><rect class="cls-1" x="19.39" y="43.53" width="0.58" height="0.58"/><circle class="cls-2" cx="19.67" cy="43.82" r="0.29"/><rect class="cls-1" x="21.34" y="43.53" width="0.58" height="0.58"/><circle class="cls-2" cx="21.63" cy="43.82" r="0.29"/><rect class="cls-1" x="23.3" y="43.53" width="0.58" height="0.58"/><circle class="cls-2" cx="23.59" cy="43.82" r="0.29"/><rect class="cls-1" x="25.26" y="43.53" width="0.58" height="0.58"/><circle class="cls-2" cx="25.55" cy="43.82" r="0.29"/><rect class="cls-1" x="27.22" y="43.53" width="0.58" height="0.58"/><circle class="cls-2" cx="27.51" cy="43.82" r="0.29"/><rect class="cls-1" x="29.18" y="43.53" width="0.58" height="0.58"/><circle class="cls-2" cx="29.46" cy="43.82" r="0.29"/><rect class="cls-1" x="31.13" y="43.53" width="0.58" height="0.58"/><circle class="cls-2" cx="31.42" cy="43.82" r="0.29"/><rect class="cls-1" x="33.09" y="43.53" width="0.58" height="0.58"/><circle class="cls-2" cx="33.38" cy="43.82" r="0.29"/><rect class="cls-1" x="35.05" y="43.53" width="0.58" height="0.58"/><circle class="cls-2" cx="35.34" cy="43.82" r="0.29"/><rect class="cls-1" x="37.01" y="43.53" width="0.58" height="0.58"/><circle class="cls-2" cx="37.29" cy="43.82" r="0.29"/><rect class="cls-1" x="38.96" y="43.53" width="0.58" height="0.58"/><circle class="cls-2" cx="39.25" cy="43.82" r="0.29"/><rect class="cls-1" x="40.92" y="43.53" width="0.58" height="0.58"/><circle class="cls-2" cx="41.21" cy="43.82" r="0.29"/><rect class="cls-1" x="42.88" y="43.53" width="0.58" height="0.58"/><circle class="cls-2" cx="43.17" cy="43.82" r="0.29"/><rect class="cls-1" x="44.84" y="43.53" width="0.58" height="0.58"/><circle class="cls-2" cx="45.12" cy="43.82" r="0.29"/><rect class="cls-1" x="46.79" y="43.53" width="0.58" height="0.58"/><circle class="cls-2" cx="47.08" cy="43.82" r="0.29"/><rect class="cls-1" x="48.75" y="43.53" width="0.58" height="0.58"/><circle class="cls-2" cx="49.04" cy="43.82" r="0.29"/><rect class="cls-1" x="50.71" y="43.53" width="0.58" height="0.58"/><circle class="cls-2" cx="51" cy="43.82" r="0.29"/><rect class="cls-1" x="52.67" y="43.53" width="0.58" height="0.58"/><circle class="cls-2" cx="52.95" cy="43.82" r="0.29"/><rect class="cls-1" x="54.62" y="43.53" width="0.58" height="0.58"/><circle class="cls-2" cx="54.91" cy="43.82" r="0.29"/><rect class="cls-1" x="56.58" y="43.53" width="0.58" height="0.58"/><circle class="cls-2" cx="56.87" cy="43.82" r="0.29"/><rect class="cls-1" x="58.54" y="43.53" width="0.58" height="0.58"/><circle class="cls-2" cx="58.83" cy="43.82" r="0.29"/><rect class="cls-1" x="60.5" y="43.53" width="0.58" height="0.58"/><circle class="cls-2" cx="60.79" cy="43.82" r="0.29"/><rect class="cls-1" x="62.46" y="43.53" width="0.58" height="0.58"/><circle class="cls-2" cx="62.74" cy="43.82" r="0.29"/><rect class="cls-1" x="64.41" y="43.53" width="0.58" height="0.58"/><circle class="cls-2" cx="64.7" cy="43.82" r="0.29"/><rect class="cls-1" x="66.37" y="43.53" width="0.58" height="0.58"/><circle class="cls-2" cx="66.66" cy="43.82" r="0.29"/><rect class="cls-1" x="68.33" y="43.53" width="0.58" height="0.58"/><circle class="cls-2" cx="68.62" cy="43.82" r="0.29"/><rect class="cls-1" x="70.29" y="43.53" width="0.58" height="0.58"/><circle class="cls-2" cx="70.57" cy="43.82" r="0.29"/><rect class="cls-1" x="72.24" y="43.53" width="0.58" height="0.58"/><circle class="cls-2" cx="72.53" cy="43.82" r="0.29"/><rect class="cls-1" x="73.28" y="42.61" width="0.58" height="0.58"/><circle class="cls-2" cx="73.57" cy="42.9" r="0.29"/><rect class="cls-1" x="73.28" y="40.65" width="0.58" height="0.58"/><circle class="cls-2" cx="73.57" cy="40.94" r="0.29"/><rect class="cls-1" x="73.28" y="38.69" width="0.58" height="0.58"/><circle class="cls-2" cx="73.57" cy="38.98" r="0.29"/><rect class="cls-1" x="73.28" y="36.74" width="0.58" height="0.58"/><circle class="cls-2" cx="73.57" cy="37.02" r="0.29"/><rect class="cls-1" x="73.28" y="34.78" width="0.58" height="0.58"/><circle class="cls-2" cx="73.57" cy="35.07" r="0.29"/><rect class="cls-1" x="73.28" y="32.82" width="0.58" height="0.58"/><circle class="cls-2" cx="73.57" cy="33.11" r="0.29"/><rect class="cls-1" x="73.28" y="30.86" width="0.58" height="0.58"/><circle class="cls-2" cx="73.57" cy="31.15" r="0.29"/><rect class="cls-1" x="73.28" y="28.91" width="0.58" height="0.58"/><circle class="cls-2" cx="73.57" cy="29.19" r="0.29"/><rect class="cls-1" x="73.28" y="26.95" width="0.58" height="0.58"/><circle class="cls-2" cx="73.57" cy="27.24" r="0.29"/><rect class="cls-1" x="73.28" y="24.99" width="0.58" height="0.58"/><circle class="cls-2" cx="73.57" cy="25.28" r="0.29"/><rect class="cls-1" x="73.28" y="23.03" width="0.58" height="0.58"/><circle class="cls-2" cx="73.57" cy="23.32" r="0.29"/><rect class="cls-1" x="73.28" y="21.08" width="0.58" height="0.58"/><circle class="cls-2" cx="73.57" cy="21.36" r="0.29"/><rect class="cls-1" x="73.28" y="19.12" width="0.58" height="0.58"/><circle class="cls-2" cx="73.57" cy="19.41" r="0.29"/><rect class="cls-1" x="73.28" y="17.16" width="0.58" height="0.58"/><circle class="cls-2" cx="73.57" cy="17.45" r="0.29"/><rect class="cls-1" x="73.28" y="15.2" width="0.58" height="0.58"/><circle class="cls-2" cx="73.57" cy="15.49" r="0.29"/><rect class="cls-1" x="73.28" y="13.24" width="0.58" height="0.58"/><circle class="cls-2" cx="73.57" cy="13.53" r="0.29"/><rect class="cls-1" x="73.28" y="11.29" width="0.58" height="0.58"/><circle class="cls-2" cx="73.57" cy="11.58" r="0.29"/><rect class="cls-1" x="73.28" y="9.33" width="0.58" height="0.58"/><circle class="cls-2" cx="73.57" cy="9.62" r="0.29"/><rect class="cls-1" x="73.28" y="7.37" width="0.58" height="0.58"/><circle class="cls-2" cx="73.57" cy="7.66" r="0.29"/><rect class="cls-1" x="73.28" y="5.41" width="0.58" height="0.58"/><circle class="cls-2" cx="73.57" cy="5.7" r="0.29"/><rect class="cls-1" x="73.28" y="3.46" width="0.58" height="0.58"/><circle class="cls-2" cx="73.57" cy="3.74" r="0.29"/></g></g></svg>