<?xml version="1.0" encoding="utf-8"?>
<!-- Generator: Adobe Illustrator 20.1.0, SVG Export Plug-In . SVG Version: 6.00 Build 0)  -->
<svg version="1.1" id="Layer_1" xmlns="http://www.w3.org/2000/svg" xmlns:xlink="http://www.w3.org/1999/xlink" x="0px" y="0px"
	 viewBox="0 0 507.5 56.3" style="enable-background:new 0 0 507.5 56.3;" xml:space="preserve">
<style type="text/css">
	.st0{fill:#231F20;}
	.st1{fill:none;}
	.st2{fill:#010101;}
</style>
<title>Asset 2</title>
<g id="Layer_2">
	<g id="Layer_1-2">
		<path class="st0" d="M387.6,1.1c0.3-0.6,0.8-0.6,1.1,0l6.9,14.6c0.4,0.7,1,1.2,1.8,1.3l16,2.1c0.7,0.1,0.8,0.5,0.3,1l-11.7,11
			c-0.5,0.6-0.8,1.3-0.7,2.1l3,15.9c0.1,0.7-0.3,0.9-0.9,0.6L389.2,42c-0.7-0.3-1.5-0.3-2.2,0l-14.2,7.7c-0.6,0.3-1,0-0.9-0.6
			l3-15.9c0.1-0.8-0.2-1.5-0.7-2.1L362.6,20c-0.5-0.5-0.3-0.9,0.3-1l16-2.1c0.8-0.1,1.4-0.6,1.8-1.3L387.6,1.1z"/>
		<path class="st0" d="M65.5,4.6c-0.7-0.9-1.9-1.2-2.9-0.8L18.5,22.4c-1.2,0.3-1.9,1.5-1.5,2.7c0.2,0.8,1,1.5,1.8,1.6l19,5l5,19
			c0.2,1.2,1.3,2.1,2.5,1.9c0.9-0.1,1.6-0.7,1.8-1.6L65.7,6.9C66,6.1,66,5.3,65.5,4.6z"/>
		<path class="st0" d="M330.8,11.1h-6.6c-0.3,0-0.6-0.2-0.7-0.4l-2.3-4.1c-0.4-0.6-1-1-1.7-1h-15.4c-0.7,0-1.3,0.4-1.7,1l-2.3,4.1
			c-0.1,0.2-0.4,0.4-0.7,0.4h-6.6c-3.7,0.1-6.7,3.1-6.6,6.8c0,0,0,0,0,0v24.6c-0.1,3.7,2.9,6.7,6.6,6.8c0,0,0,0,0,0h38.1
			c3.7-0.1,6.7-3.1,6.6-6.8c0,0,0,0,0,0V17.8C337.5,14.1,334.5,11.1,330.8,11.1L330.8,11.1z M303.8,29.7c0.1-4.4,3.7-8,8.1-7.9
			c4.4,0.1,8,3.7,7.9,8.1c-0.1,4.4-3.6,7.9-8,7.9C307.4,37.7,303.8,34.1,303.8,29.7z"/>
		<path class="st0" d="M245.9,4.4h-43.4c-2.3-0.1-4.2,1.8-4.3,4.1c0,0,0,0.1,0,0.1v34c0,2.3,1.9,4.2,4.2,4.2c0,0,0.1,0,0.1,0h10.8
			l-0.2,4.8c-0.1,2.4,1.7,4.5,4.1,4.7h0.4c0.9,0,1.7-0.2,2.5-0.6l17.5-8.9h8.3c2.3,0.1,4.2-1.8,4.3-4.1c0,0,0-0.1,0-0.1v-34
			c0-2.3-1.9-4.2-4.2-4.2C246,4.4,245.9,4.4,245.9,4.4z M215.1,34h-0.8v-2.5h0.8c1,0,1.9-0.2,2.8-0.6c0.7-0.4,1.3-1.2,1.4-2v-0.4
			c-1.3,0.4-2.7,0.1-3.7-0.8c-0.8-0.6-1.2-1.6-1.2-2.6c0-1.1,0.4-2.2,1.1-3.1c0.8-0.9,2.1-1.4,3.3-1.3c1.3,0,2.5,0.5,3.3,1.5
			c0.9,1.1,1.3,2.4,1.3,3.8C223.3,31.3,220.5,34,215.1,34z M225.3,34h-0.8v-2.5h0.8c1,0,1.9-0.2,2.8-0.6c0.7-0.4,1.3-1.2,1.4-2v-0.4
			c-1.3,0.4-2.7,0.1-3.7-0.8c-0.8-0.6-1.2-1.6-1.2-2.6c0-1.1,0.4-2.2,1.1-3.1c0.8-0.9,2.1-1.4,3.3-1.3c1.3,0,2.5,0.5,3.3,1.5
			c0.9,1.1,1.3,2.4,1.3,3.8C233.5,31.3,230.7,34,225.3,34L225.3,34z"/>
		<path class="st0" d="M490.1,5.7c0.4,0.8,0.2,1.7-0.5,2.3l-16,16.1v24.2c0,0.9-0.5,1.6-1.3,1.9l-0.8,0.2c-0.6,0-1.1-0.2-1.5-0.6
			l-8.4-8.4c-0.4-0.4-0.6-0.9-0.6-1.5V24.1L445,8c-0.7-0.6-0.9-1.5-0.5-2.3c0.3-0.8,1.1-1.3,1.9-1.3h41.8
			C489,4.4,489.8,4.9,490.1,5.7"/>
		<path class="st1" d="M469.1,0h55.3v55.3h-55.3V0z"/>
		<path class="st2" d="M159.3,55.9L159.3,55.9C154.6,46,149.6,44,147.4,44h-4c-4.4,0-7.9-2.2-7.9-7.9v-2.6c1.7-2.1,3-4.6,3.8-7.2
			c0.1-0.4,0.5-0.7,0.8-1c1.5-1.6,1.8-4,0.7-5.9c-0.2-0.3-0.4-0.5-0.4-0.9c0-2.3,0-4.7,0-7c0-2.9-0.9-5.6-2.8-7.8
			c-1.6-1.6-3.7-2.7-6-3.1c-2.8-0.6-5.8-0.5-8.6,0.2c-2.5,0.6-4.7,2.1-6.2,4.2c-1.2,1.9-1.9,4.1-1.9,6.3c0,2.4,0,4.7,0,7.1
			c0.1,0.5-0.3,0.8-0.5,1.2c-1.1,2-0.6,4.5,1.1,6c0.4,0.3,0.6,0.8,0.7,1.3c0.8,2.3,2,4.5,3.6,6.4v2.6c0,5.8-3.6,7.9-7.9,7.9h-4
			c-1.9,0-7.2,2-11.9,11.9h63.5L159.3,55.9z"/>
	</g>
</g>
</svg>
